<svg width="60" height="60" viewBox="0 0 60 60" fill="none" xmlns="http://www.w3.org/2000/svg">
<rect width="60" height="60" rx="30" fill="#CEC8FF"/>
<path d="M39.0874 22.0462H35.4851L33.4055 19.7734H26.5874L24.5078 22.0462H20.9055C19.6555 22.0462 18.6328 23.0689 18.6328 24.3189V37.9553C18.6328 39.2053 19.6555 40.228 20.9055 40.228H39.0874C40.3374 40.228 41.3601 39.2053 41.3601 37.9553V24.3189C41.3601 23.0689 40.3374 22.0462 39.0874 22.0462ZM39.0874 37.9553H20.9055V24.3189H25.5078L27.5874 22.0462H32.4055L34.4851 24.3189H39.0874V37.9553ZM29.9965 25.4553C26.8601 25.4553 24.3146 28.0007 24.3146 31.1371C24.3146 34.2734 26.8601 36.8189 29.9965 36.8189C33.1328 36.8189 35.6783 34.2734 35.6783 31.1371C35.6783 28.0007 33.1328 25.4553 29.9965 25.4553ZM29.9965 34.5462C28.1214 34.5462 26.5874 33.0121 26.5874 31.1371C26.5874 29.2621 28.1214 27.728 29.9965 27.728C31.8715 27.728 33.4055 29.2621 33.4055 31.1371C33.4055 33.0121 31.8715 34.5462 29.9965 34.5462Z" fill="#615AA3"/>
</svg>
