<svg width="200" height="200" viewBox="0 0 200 200" fill="none" xmlns="http://www.w3.org/2000/svg">
<path d="M111.042 198.453L111.051 198.461L111.035 198.621L110.988 198.6L111.042 198.453Z" fill="#E6DFD5"/>
<path d="M85.7871 14.0415L85.8988 13.9648L85.5977 14.0028L85.7871 14.0415Z" fill="#E6DFD5"/>
<path d="M76.707 184.909C76.8088 184.874 76.8865 184.898 76.9916 184.911C76.8936 184.947 76.8088 184.921 76.707 184.909Z" fill="#E6DFD5"/>
<path d="M47.8672 67.8105L47.9437 67.793L47.9002 67.8797L47.8912 67.8809L47.8672 67.8105Z" fill="#E6DFD5"/>
<path d="M56.0586 12.2976C56.1977 12.2504 56.2623 12.2956 56.401 12.3321C56.266 12.3811 56.1945 12.3327 56.0586 12.2976Z" fill="#E6DFD5"/>
<path d="M91.6232 18.4023L91.7283 18.5011L91.7094 18.7489L91.5664 18.5712L91.6232 18.4023Z" fill="#E6DFD5"/>
<path d="M187.535 5.51781L188.041 5.44922L188.097 5.54186L187.548 5.65072L187.535 5.51781Z" fill="#E6DFD5"/>
<path d="M92.1625 29.2023C93.259 28.3526 94.5465 27.7234 95.736 27.0124C97.1959 26.1202 98.678 25.2668 100.182 24.4521C101.687 23.6373 103.212 22.8625 104.756 22.1275C106.301 21.3923 107.864 20.698 109.446 20.0446C111.027 19.3913 112.624 18.7797 114.237 18.2098C116.108 17.5602 117.992 16.9534 119.89 16.3894C120.732 16.1348 121.7 15.956 122.503 15.6115C122.739 15.5101 122.764 15.3401 122.992 15.2268L123.111 15.4555C124.098 15.4282 125.144 15.1308 126.115 14.9371C127.418 14.6769 128.717 14.4669 130.044 14.3581C138.494 13.6649 149.515 15.2548 155.898 21.2661C157.895 23.1468 159.417 25.2767 159.481 28.1099C159.502 29.0286 159.211 34.3025 158.888 34.8179C160.05 38.6189 157.976 45.1271 156.577 48.8433C156.277 49.6443 155.998 50.4433 155.752 51.2626C156.388 50.2429 156.944 49.1429 157.462 48.0593C159.579 44.6534 162.575 38.0101 166.761 36.9407C166.867 36.9126 166.974 36.8898 167.082 36.8724C167.191 36.8551 167.3 36.8431 167.41 36.8366C167.519 36.8301 167.629 36.8291 167.739 36.8335C167.848 36.8379 167.958 36.8478 168.066 36.8632C168.175 36.8786 168.283 36.8993 168.389 36.9255C168.496 36.9515 168.601 36.9829 168.705 37.0196C168.808 37.0562 168.91 37.0979 169.009 37.1446C169.108 37.1915 169.205 37.2431 169.299 37.2995C170.12 37.7857 170.787 38.5605 170.993 39.5058C171.319 40.9925 170.485 42.5386 169.67 43.7288C168.105 46.0128 165.941 47.8398 163.539 49.1923C162.515 49.7683 161.397 50.265 160.431 50.9294C159.741 51.3056 157.412 52.3396 156.998 52.7036C158.327 52.4224 159.586 51.6392 160.922 51.2634C165.018 49.928 169.212 48.615 173.573 48.8839C174.613 48.9482 175.726 49.0605 176.667 49.545C177.363 49.903 177.893 50.4689 178.115 51.2278C178.326 51.9462 178.279 52.7898 177.9 53.4446C177.328 54.4339 176.122 54.8675 175.067 55.121C172.651 55.7007 170.077 55.5448 167.614 55.456C166.841 55.428 165.97 55.3175 165.201 55.3861C163.516 55.2081 161.823 55.0538 160.144 54.83C159.553 54.7513 159.042 54.4732 158.44 54.5224L158.407 54.5646C159.639 54.9349 161.868 55.3927 163.162 55.5384C166.637 56.4818 173.095 57.8595 175.058 61.1509C175.441 61.7935 175.663 62.5175 175.442 63.2564C175.225 63.9872 174.611 64.5624 173.948 64.9021C172.705 65.5398 171.477 65.3626 170.215 64.9173C166.7 63.6769 163.309 61.4737 160.338 59.2415C159.338 58.4902 158.406 57.636 157.374 56.9312L157.465 57.0435C159.905 60.0314 166.408 64.7097 166.07 68.8855C166.01 69.6308 165.646 70.2952 165.059 70.7585C164.391 71.2866 163.492 71.4708 162.66 71.3337C160.956 71.0532 159.738 69.8089 158.812 68.4433C157.326 66.2511 156.504 63.6132 155.632 61.1323C155.337 60.2956 155.098 59.0853 154.568 58.3784L154.366 58.3068C154.257 61.0374 154.529 63.8105 154.573 66.5458C154.614 72.2483 154.774 77.9474 155.054 83.6431C155.318 88.6585 155.788 93.6603 156.006 98.6788C156.425 97.2351 156.66 95.7441 157.057 94.2923C158.383 89.4349 161.454 79.9675 165.777 77.3093C165.971 77.1898 166.033 77.1804 166.249 77.2032L166.266 77.3433C165.905 77.7853 165.402 78.0507 164.987 78.4378C164.035 79.3273 163.139 80.4943 162.444 81.5997C157.505 89.464 154.225 107.112 153.294 116.686C152.831 121.445 152.773 126.253 152.429 131.021C152.134 135.1 151.722 139.15 151.519 143.237C151.419 145.255 151.264 147.292 151.474 149.308C151.559 150.055 151.676 150.797 151.825 151.534C153.225 151.962 154.605 152.309 156.057 152.516C156.259 152.159 155.82 149.575 155.763 149.035C155.128 142.996 154.449 137.001 154.054 130.937C153.723 125.85 153.753 120.185 154.215 115.105C155.104 105.332 158.379 87.3071 164.5 79.7386C165.392 78.6364 166.555 77.4159 167.96 77.0124C168.723 76.7931 169.491 76.8679 170.187 77.2548C173.021 78.831 175.045 85.3056 175.845 88.3915C176.079 89.2972 177.124 93.1243 176.761 93.7696C176.33 93.8222 176.093 93.4267 175.735 93.2497C175.512 93.1396 175.255 93.0894 175.024 92.9941C174.414 92.7421 173.839 92.3032 173.325 91.898C170.323 89.5339 168.741 86.9372 167.068 83.595C166.396 82.2523 165.731 80.9107 165.25 79.4849C159.983 85.6073 156.455 99.9538 155.546 108.018C154.983 113.015 155.037 118.198 155.098 123.221C155.127 125.644 155.077 128.117 155.257 130.531C155.628 135.513 155.933 140.579 156.659 145.521C156.821 146.619 157.913 151.579 157.819 152.176C157.51 152.121 157.47 152.071 157.195 152.243C156.986 152.652 156.882 153.093 156.759 153.533C157.304 153.715 158.272 153.407 158.904 153.39C159.776 151.623 160.479 149.642 161.162 147.789L160.026 147.357C159.626 148.005 159.265 148.652 158.66 149.132C158.687 148.486 159.37 147.605 159.733 147.081C159.183 146.214 158.858 145.414 158.918 144.37C159.075 141.664 161.671 137.219 163.342 135.188C164.296 134.028 165.393 133.034 166.503 132.029C165.571 132.432 164.728 132.939 163.913 133.544C162.905 134.294 159.32 137.798 158.203 137.606C157.94 137.56 157.759 137.414 157.601 137.208C157.157 136.629 157.364 134.178 157.217 133.251C156.85 130.924 155.334 128.638 155.634 126.233C155.908 124.034 156.921 120.81 158.782 119.422C161.437 117.443 163.586 120.015 165.926 120.223C166.298 120.257 166.518 120.151 166.793 119.922L166.779 119.866C165.914 119.088 164.351 119.157 163.357 118.552C162.962 118.312 162.674 117.976 162.576 117.517C162.386 116.629 162.911 115.644 163.396 114.927C164.87 112.746 167.135 112.15 169.574 111.687C168.642 107.695 167.877 103.663 166.979 99.6622C165.613 103.41 164.048 106.969 162.35 110.576C161.704 111.948 161.112 113.471 160.256 114.726C159.949 115.177 159.629 115.553 159.153 115.831C159.012 115.841 158.924 115.878 158.798 115.798C158.523 115.626 158.423 115.293 158.35 114.994C157.435 111.256 160.682 97.9023 162.815 94.5886C163.337 93.7782 164.213 92.6394 165.206 92.4558C165.666 92.3708 166.116 92.5218 166.491 92.7859C169.602 94.9747 171.132 107.818 171.742 111.512C172.617 111.47 173.498 111.502 174.374 111.515C174.654 109.601 175.321 107.889 176.329 106.238C177.395 104.491 179.383 102.134 181.486 101.686C183.166 101.329 184.996 102.128 186.365 103.053C187.671 103.935 188.558 105.093 189.181 106.535C191.886 112.799 187.697 119.266 188.847 125.731C189.018 126.696 189.788 127.449 189.943 128.373C189.98 128.59 189.952 128.625 189.834 128.794C189.772 128.784 189.703 128.796 189.649 128.766C189.428 128.642 189.094 128.073 188.908 127.85C188.321 127.147 187.666 126.478 187.026 125.822C185.209 123.957 182.672 123.651 180.529 122.376C179.937 122.024 179.362 121.519 179.213 120.814C178.842 119.055 181.656 119.102 182.249 117.953C182.321 117.814 182.259 117.716 182.225 117.574C181.697 116.951 180.73 116.443 179.945 116.273C178.44 115.947 176.694 117.327 175.504 118.117C175.269 119.875 175.294 121.7 175.173 123.475C178.828 124.151 183.046 125.001 185.904 127.519C187.198 128.659 188.071 130.089 188.147 131.853C188.177 132.532 188.067 136.179 187.717 136.55C187.548 136.451 187.408 136.353 187.267 136.216C186.204 135.187 181.876 129.968 181.92 128.76C181.926 128.594 181.991 128.59 182.106 128.491C182.326 128.486 182.477 128.514 182.682 128.603C185.408 129.792 186.562 133.394 187.57 135.92C187.595 134.473 187.903 132.996 187.745 131.553C187.55 129.759 186.573 128.546 185.203 127.466C182.9 125.651 179.769 124.749 176.924 124.206C176.369 124.1 175.697 123.909 175.136 123.973C175.098 124.454 175.138 125.336 174.931 125.758C174.872 126.598 174.751 127.424 174.628 128.256C174.523 129.21 174.407 130.164 174.282 131.115C175.706 131.26 177.093 131.469 178.462 131.905C181.263 132.797 185.55 135.226 187.395 137.525C188.114 138.422 188.528 139.493 188.378 140.653C188.116 142.675 186.451 144.717 184.877 145.915C183.174 141.191 183.074 139.655 179.149 136.021L179.785 135.364C182.153 136.677 184.425 137.664 185.244 140.525C185.689 142.08 185.371 143.723 185.133 145.284C186.43 144.003 188.037 142.127 188.046 140.192C188.051 138.963 187.334 137.925 186.481 137.104C183.475 134.213 178.36 131.598 174.169 131.514C173.682 134.474 173.191 137.447 172.436 140.353C174.335 141.17 182.536 145.501 183.111 147.019C183.317 147.56 183.049 148.283 182.787 148.756C182.46 149.348 181.933 149.989 181.256 150.184C180.884 150.292 180.514 150.224 180.189 150.017C178.833 149.15 178.482 146.642 176.329 147.094C176.273 147.106 176.218 147.121 176.163 147.139C176.108 147.156 176.054 147.176 176.001 147.199C175.949 147.222 175.897 147.247 175.847 147.275C175.796 147.303 175.748 147.334 175.701 147.367C175.653 147.399 175.608 147.435 175.564 147.472C175.521 147.509 175.479 147.549 175.439 147.59C175.399 147.632 175.362 147.675 175.326 147.721C175.291 147.766 175.258 147.813 175.227 147.862C174.844 148.456 174.87 149.17 175.047 149.831C175.624 151.975 178.005 153.185 176.645 155.667C176.192 156.494 175.516 157.144 174.822 157.767C177.021 159.414 179.074 160.849 179.495 163.78C179.98 167.157 178.364 170.862 176.361 173.493C175.075 175.18 173.505 176.631 171.893 178.001C163.81 184.87 153.613 187.815 143.449 190.048C139.884 190.831 136.27 191.622 132.648 192.089C120.647 193.636 109.411 193.507 98.1443 188.698C95.3682 187.513 92.7307 186.232 90.3248 184.379C87.4522 182.167 84.9336 179.145 83.7563 175.678C83.608 175.242 83.5486 174.802 83.4317 174.359C80.3363 173.979 77.3867 172.236 74.3692 171.429C74.3572 171.439 74.3449 171.448 74.3336 171.458C73.2859 172.386 68.1799 172.227 66.5738 172.308C65.4875 172.363 64.4018 172.488 63.319 172.59C62.8531 173.927 62.4082 175.296 61.675 176.516C60.2672 178.858 57.152 180.784 54.7736 181.984C49.4057 184.692 43.0377 185.551 37.2684 183.637C27.4481 180.379 20.6885 171.118 16.2712 162.207C13.176 155.963 10.4676 147.728 10.181 140.734C10.0365 137.207 10.3511 133.647 10.604 130.132C10.9479 125.354 11.501 120.192 12.5703 115.522C13.4294 111.77 14.6522 108.153 15.8864 104.514L15.9578 104.43C16.1742 103.248 16.7299 102.028 17.0951 100.87C18.8137 95.4212 20.5363 89.8335 23.9285 85.1648C28.7336 78.5515 35.3943 74.8819 43.3783 73.5935C43.4674 70.3972 43.6594 67.2562 44.1965 64.0987C44.2998 63.4913 44.8303 60.3638 45.0729 60.0452C45.1205 59.9825 45.2012 59.954 45.2654 59.9085L45.4617 59.9433L45.442 60.0427C45.4315 60.098 45.4221 60.1534 45.4109 60.2087C45.2676 60.9284 45.2602 61.6568 45.2291 62.3886C45.0672 66.2185 45.8436 69.7997 46.5803 73.531L47.1502 73.5228C47.3242 73.4193 47.3752 73.3753 47.4721 73.189C47.6985 72.753 47.8133 72.2534 48.0246 71.8064C48.6149 70.5577 49.4625 69.2679 50.2469 68.1202C52.2422 65.2003 54.775 62.464 57.2531 59.9489C57.2633 59.786 57.2598 59.4845 57.3166 59.3384C57.5902 58.6351 59.0266 57.7831 59.1539 57.1032C59.1854 56.9355 59.1428 56.678 59.1381 56.5013L59.2485 56.3859L59.3151 56.6909L59.4488 56.7128C60.3588 55.8566 61.2811 54.9409 62.1053 54.0021C62.8262 53.2216 63.5108 52.44 64.0652 51.5296L64.4565 51.3612C65.2986 50.6526 66.0986 49.823 66.8309 49.0028L67.2539 48.5976C68.7309 46.8239 71.1082 45.07 72.9131 43.6148C74.8535 42.0503 76.7453 40.4241 78.6729 38.8454C79.6059 38.0812 80.6967 37.4228 81.4852 36.5046L81.7735 36.2987C83.2053 35.2528 84.6967 34.3114 86.1947 33.3648L86.5244 33.1204C87.5442 32.3927 88.4971 31.5735 89.5252 30.8571C90.3344 30.2933 91.2078 29.8204 92.0008 29.2353L92.1625 29.2023Z" fill="black"/>
<path d="M149.758 168.969C150.303 169.045 150.849 169.112 151.387 169.23C150.957 169.396 150.527 169.584 150.087 169.718C150.155 169.619 150.224 169.521 150.297 169.426L150.351 169.356C150.144 169.238 149.952 169.105 149.758 168.969Z" fill="#EAE9FE"/>
<path d="M151.594 167.941C151.863 168.004 152.115 168.071 152.374 168.171C152.188 168.544 151.895 168.865 151.636 169.188C151.646 168.77 151.619 168.358 151.594 167.941Z" fill="#EAE9FE"/>
<path d="M78.1584 156.344C78.2656 156.465 78.3996 156.591 78.4877 156.725C78.3527 157.449 78.2119 158.158 78 158.864C78.0129 158.014 78.057 157.188 78.1584 156.344Z" fill="#C6EBE9"/>
<path d="M65.7969 74.1719C66.4061 75.3654 66.9141 76.6219 67.4062 77.868C66.9271 77.4436 66.6881 76.6203 66.4535 76.0422C66.5549 76.5498 66.6646 77.0277 66.6189 77.5494C66.3109 76.4318 66.0578 75.301 65.7969 74.1719Z" fill="#B3E3DF"/>
<path d="M56.6182 118.598C57.132 119.937 57.5281 121.329 57.9562 122.698C57.3098 121.683 56.7221 120.438 56.3164 119.307C56.5996 119.526 56.6732 119.711 56.8105 120.042L56.86 120.164C56.899 119.691 56.6445 119.195 56.6215 118.698C56.6199 118.665 56.6193 118.631 56.6182 118.598Z" fill="#B3E3DF"/>
<path d="M148.156 50.8344L148.258 50.7C148.628 50.7824 148.931 51.0029 149.265 51.1723C149.029 50.6379 148.179 50.249 147.832 49.7385L148.014 49.6719C148.955 50.5057 149.888 51.3467 150.857 52.1478C149.982 51.7092 148.994 51.3314 148.156 50.8344Z" fill="#DAE0EA"/>
<path d="M97.5914 120.375C97.0426 121.563 96.2344 122.872 95.45 123.921C95.4543 123.688 95.5109 123.525 95.5799 123.306C95.4096 123.379 95.1281 123.763 94.9334 123.9L94.8633 123.948C95.648 122.68 96.65 121.529 97.5914 120.375Z" fill="#B3E3DF"/>
<path d="M153.834 56.8516L153.986 56.9592C153.997 58.1086 154.066 59.29 154.013 60.4361C153.99 60.75 154.05 61.5195 153.867 61.732L153.738 61.7307C153.657 60.1135 153.649 58.4605 153.834 56.8516Z" fill="#EFEEF7"/>
<path d="M79.1172 155.304C79.3549 153.736 79.574 152.161 79.8664 150.602C80.0469 151.688 79.916 154.36 79.7039 155.482C79.5115 154.665 79.8631 153.782 79.6066 152.998L79.6645 153.242L79.5471 153.415C79.5561 153.919 79.4924 154.714 79.2207 155.152C79.1883 155.204 79.1518 155.253 79.1172 155.304Z" fill="#B3E3DF"/>
<path d="M171.457 140.449C171.715 140.521 171.753 140.504 171.906 140.719C171.585 142.111 171.255 143.501 170.914 144.888L170.836 145.148C170.885 143.588 171.233 141.997 171.457 140.449Z" fill="#EFEEF7"/>
<path d="M67.4336 153.191C68.2164 154.601 68.8029 156.313 68.876 157.933C68.734 157.691 68.6836 157.5 68.6352 157.223L68.6189 157.124L68.4662 157.766C68.1953 156.218 67.8895 154.697 67.4336 153.191Z" fill="#B3E3DF"/>
<path d="M136.562 87.3477C137.452 88.2061 138.416 90.2736 138.998 91.4047L138.802 91.4547L138.692 91.7703C137.974 90.3 137.264 88.8258 136.562 87.3477Z" fill="#C6EBE9"/>
<path d="M154.013 60.4375C154.267 62.3096 154.226 64.2764 154.272 66.1664C153.848 65.4936 154.279 64.5916 154.033 63.8457C153.879 64.5857 154.117 65.4563 153.98 66.248L153.884 66.8152C153.715 65.15 153.814 63.4123 153.738 61.732L153.867 61.7334C154.05 61.5209 153.99 60.7514 154.013 60.4375Z" fill="#DAE0EA"/>
<path d="M138.691 91.7719L138.801 91.4563L138.997 91.4062C139.434 92.2961 139.816 93.1992 140.191 94.116C140.445 94.7465 140.745 95.3873 140.947 96.0352C140.905 95.9912 140.862 95.9481 140.821 95.9033C140.6 95.6639 140.461 95.3635 140.312 95.0772C140.438 95.4631 140.594 95.8965 140.566 96.3059C140.277 95.71 140.071 95.0461 139.839 94.4238C139.5 93.5254 139.081 92.65 138.691 91.7719Z" fill="#DAE0EA"/>
<path d="M79.2748 150.793C79.2861 151.583 79.2508 153.3 78.934 153.984C78.8475 154.894 78.6883 155.834 78.4895 156.726C78.4014 156.592 78.2674 156.466 78.1602 156.345C78.2172 155.621 78.3266 154.812 78.507 154.11C78.6744 152.976 78.9438 151.889 79.2748 150.793Z" fill="#B3E3DF"/>
<path d="M151.336 45.1232L151.461 45.1094C151.894 45.948 152.11 47.1939 152.339 48.1217L152.487 48.0947L152.499 48.2264L152.379 48.2691L152.484 48.515C152.559 47.8703 151.781 45.6016 152.07 45.3322C152.337 46.0078 152.42 47.0164 152.582 47.7408C152.918 49.2357 153.449 50.7766 153.633 52.2873C152.719 49.9484 152.021 47.5369 151.336 45.1232Z" fill="#EFEEF7"/>
<path d="M182.527 118.051C182.968 118.308 183.479 120.14 183.68 120.684L182.813 120.284C182.219 119.965 181.654 119.546 181.09 119.173C181.554 118.779 182.039 118.416 182.527 118.051Z" fill="#EFEEF7"/>
<path d="M166.553 148.605C166.607 148.657 166.625 148.664 166.655 148.738C166.967 149.524 165.88 153.241 165.407 154.115C164.823 152.181 165.78 150.353 166.553 148.605Z" fill="#EFEEF7"/>
<path d="M161.394 148.102C161.095 150.07 160.762 152.033 160.396 153.991L159.297 153.583C159.957 151.741 160.732 149.942 161.394 148.102Z" fill="#CEC8FF"/>
<path d="M174.831 111.98C175.061 112.007 175.26 112.054 175.481 112.122C175.642 112.498 175.191 115.875 175.142 116.521C175.019 118.122 174.989 119.73 174.948 121.335L174.874 121.83C174.722 121.132 174.82 120.212 174.806 119.488C174.759 116.977 174.747 114.49 174.831 111.98Z" fill="#EFEEF7"/>
<path d="M165.504 92.7812C165.694 92.8248 165.893 92.8678 166.074 92.9412C166.904 93.2773 167.369 94.3885 167.708 95.1557C167.471 95.8764 167.315 96.6109 167.154 97.3514L167.048 97.7215C166.694 96.9779 166.581 96.0707 166.352 95.2758C166.11 94.433 165.8 93.6066 165.504 92.7812Z" fill="#EFEEF7"/>
<path d="M171.836 111.891C172.618 111.886 173.401 111.912 174.182 111.925C173.452 113.032 173.083 113.85 172.85 115.161C172.731 115.769 172.645 116.387 172.544 116.999C172.326 115.294 172.09 113.591 171.836 111.891Z" fill="#EFEEF7"/>
<path d="M50.1406 105.695C50.8617 107.307 51.5589 108.929 52.232 110.562C52.1783 110.727 52.1424 110.851 52.0434 110.996C51.8004 111.716 51.7096 112.513 51.584 113.261C51.3859 111.97 50.9893 110.69 50.717 109.411C50.4568 108.188 50.3105 106.933 50.1406 105.695Z" fill="#9FCEC7"/>
<path d="M89.4961 129.67C89.6619 129.069 89.8061 128.377 90.0865 127.82C90.7621 126.478 92.324 125.292 93.6072 124.564C93.7682 124.473 93.9299 124.384 94.0926 124.297C93.5021 125.148 92.7252 126.036 92.3014 126.979C91.8893 127.715 91.4883 128.554 90.9535 129.206C90.8998 129.19 90.8584 129.146 90.8137 129.113C90.9427 128.914 91.0677 128.712 91.1887 128.508L91.0934 128.502C90.9357 128.691 90.7861 128.884 90.6369 129.08L90.4713 129.062C90.8768 128.259 91.6398 127.477 92.2066 126.775L92.1957 126.547C91.6355 126.664 89.932 129.083 89.4961 129.67Z" fill="#B3E3DF"/>
<path d="M182.254 128.941C182.393 128.982 182.53 129.03 182.664 129.085C184.822 129.975 186.059 133.069 186.859 135.091C185.989 134.463 182.773 129.946 182.254 128.941Z" fill="#EFEEF7"/>
<path d="M170.509 111.941C170.795 111.925 171.162 111.874 171.393 112.05C171.624 112.82 172.24 116.375 172.129 117.06L171.967 117.026L171.067 116.154C170.834 115.243 170.057 112.916 170.191 112.066L170.509 111.941Z" fill="#EFEEF7"/>
<path d="M160.397 171.142C162.917 170.969 165.444 171.452 167.935 171.788C167.192 171.914 166.449 171.999 165.701 172.08C163.147 172.474 160.566 171.829 158.062 171.376C158.837 171.237 159.613 171.191 160.397 171.142Z" fill="#CEC8FF"/>
<path d="M96.485 107.078C96.6367 107.227 96.717 107.347 96.8082 107.539C96.075 109.504 95.4684 111.527 94.6902 113.473C94.3111 113.612 93.9217 113.57 93.524 113.559C93.4064 113.47 93.4756 113.532 93.3398 113.351C93.6916 112.189 95.7895 108.347 96.485 107.078Z" fill="#C6EBE9"/>
<path d="M97.1992 107.758C97.3221 107.858 97.3785 107.919 97.4686 108.045C97.9332 108.697 98.2641 109.348 98.1055 110.165C97.8729 111.362 96.8148 112.236 95.8752 112.906C95.659 113.017 95.5004 113.145 95.2539 113.133C95.7951 111.327 96.4736 109.499 97.1992 107.758Z" fill="#C6EBE9"/>
<path d="M156.76 153.533C157.304 153.716 158.272 153.408 158.905 153.391C157.768 155.864 156.99 158.51 155.816 160.96C156.179 158.858 156.149 155.3 156.76 153.533Z" fill="white"/>
<path d="M45.2174 92.75C45.9392 93.532 49.1982 99.7287 49.4873 100.915C49.6615 101.63 49.5924 102.519 49.6049 103.258C49.5806 103.236 49.5541 103.217 49.532 103.193C49.0619 102.684 45.7013 94.8148 45.3199 93.6619C45.2193 93.3576 45.2084 93.0676 45.2174 92.75Z" fill="#9FCEC7"/>
<path d="M66.3828 151.621C67.7717 153.532 68.7605 161.919 68.4025 164.349L68.3467 164.384L68.2467 164.322C66.9383 160.66 66.8721 155.573 66.3828 151.621Z" fill="#C6EBE9"/>
<path d="M179.707 136.008C181.356 136.371 182.986 137.527 183.968 138.882C185.185 140.562 185.225 142.336 184.923 144.303L184.872 144.355C184.577 144.204 184.104 142.265 183.94 141.833C183.058 139.508 181.467 137.704 179.707 136.008Z" fill="#EFEEF7"/>
<path d="M169.384 112.138L169.561 112.133C169.998 112.586 170.402 115.167 170.563 115.874C169.539 115.263 168.545 114.797 167.403 114.45C166.493 114.221 165.582 114.106 164.652 113.99C166.089 112.9 167.622 112.421 169.384 112.138Z" fill="#EFEEF7"/>
<path d="M181.94 101.965L182.135 101.984L182.116 102.083C180.298 103.434 179.585 103.942 178.226 105.814C177.874 106.299 177.503 106.782 177.24 107.322C176.914 107.99 175.824 111.271 175.62 111.537C175.568 111.605 175.473 111.624 175.399 111.668C175.154 111.589 175.031 111.591 174.862 111.385C174.69 109.87 175.797 107.844 176.566 106.581C177.782 104.587 179.587 102.527 181.94 101.965Z" fill="#EFEEF7"/>
<path d="M151.737 54.9601C151.729 54.9239 151.72 54.888 151.712 54.8519C151.611 54.381 151.609 54.0358 151.866 53.6147C152.178 53.1034 152.742 52.8153 153.313 52.695C153.954 52.5601 154.711 52.6341 155.256 53.0218C155.562 53.2401 155.774 53.5466 155.831 53.923C155.839 53.9754 155.844 54.0282 155.847 54.0814C155.85 54.1345 155.85 54.1876 155.846 54.2407C155.843 54.2939 155.838 54.3467 155.829 54.3991C155.82 54.4516 155.809 54.5034 155.794 54.5546C155.78 54.6058 155.763 54.6561 155.743 54.7056C155.724 54.7549 155.701 54.8031 155.677 54.8501C155.652 54.8971 155.624 54.9427 155.594 54.9868C155.565 55.0308 155.533 55.0732 155.498 55.1138C155.07 55.6288 154.37 55.8257 153.724 55.8538C153.187 55.8773 152.359 55.7534 151.937 55.394C151.843 55.3146 151.79 55.2216 151.74 55.1128L151.737 54.9601Z" fill="#EFEEF7"/>
<path d="M166.176 155.93C166.997 156.001 169.702 156.761 170.256 156.462C170.286 156.906 170.254 157.514 170.511 157.892C170.764 157.547 170.693 157.194 170.666 156.787C171.92 157.121 173.231 157.34 174.517 157.504C174.381 157.622 174.237 157.731 174.093 157.838C173.036 158.624 171.817 159.015 170.501 158.792C168.703 158.488 167.235 157.369 166.176 155.93Z" fill="#EAE9FE"/>
<path d="M160.705 154.246C161.947 154.62 163.682 154.704 164.763 155.163C164.29 155.532 163.747 155.814 163.269 156.19C161.583 157.514 160.015 159.152 158.707 160.848C159.577 158.742 160.232 156.474 160.705 154.246Z" fill="#EAE9FE"/>
<path d="M151.824 151.535C153.224 151.963 154.604 152.309 156.057 152.517C154.734 153.722 153.551 156.546 152.862 158.242C152.584 155.992 152.15 153.777 151.824 151.535Z" fill="white"/>
<path d="M44.7743 62.6172C44.7874 66.2871 45.3735 69.8699 46.1555 73.4484C45.3985 73.5295 44.63 73.5229 43.869 73.5363C43.8805 73.032 43.8635 72.5396 43.8325 72.0367C43.8149 68.8604 44.3051 65.7494 44.7743 62.6172Z" fill="#EFEEF7"/>
<path d="M147.609 150.516C148.51 150.772 149.432 151.058 150.374 151.101C150.099 153.353 149.575 156.658 149.611 158.842C149.569 159.012 149.524 159.181 149.477 159.349L149.36 159.354L149.057 158.642C148.546 155.938 148.063 153.229 147.609 150.516Z" fill="#EAE9FE"/>
<path d="M153.884 66.8133L153.981 66.2461C154.117 65.4543 153.88 64.5838 154.033 63.8438C154.28 64.5896 153.848 65.4916 154.273 66.1645C154.32 72.371 154.501 78.5736 154.815 84.7723C154.92 86.7736 155.049 88.7734 155.2 90.7719C155.262 91.7027 155.383 92.6709 155.365 93.6014C155.514 95.1742 155.915 98.8242 155.58 100.24L155.495 100.276C155.265 99.1932 155.274 97.9824 155.196 96.8756C155.118 95.7678 154.977 94.6344 154.953 93.5268C154.692 92.9311 154.593 88.7648 154.547 87.815C154.208 80.8129 153.83 73.8283 153.884 66.8133Z" fill="#EFEEF7"/>
<path d="M90.4709 129.059L90.6365 129.078C90.7857 128.882 90.9354 128.689 91.093 128.5L91.1883 128.505C91.0673 128.71 90.9423 128.911 90.8133 129.111C90.858 129.144 90.8994 129.188 90.9531 129.204C89.2904 131.933 87.5686 134.65 86.0092 137.439C84.2291 140.623 82.6457 143.846 80.5781 146.868L81.7994 142.894C81.9803 142.31 82.2266 141.716 82.3498 141.12L82.4059 141.138C82.4853 141.257 82.56 141.352 82.6555 141.462C83.5227 140.516 84.0986 139.201 84.7193 138.086C86.0602 135.678 88.6887 130.866 90.4709 129.059Z" fill="#C6EBE9"/>
<path d="M175.953 112.137C178.322 112.678 180.327 113.605 181.826 115.561C181.73 115.541 181.635 115.521 181.539 115.499C180.768 115.323 180.294 115.335 179.538 115.532C178.036 115.985 176.788 116.756 175.492 117.615C175.589 115.784 175.743 113.958 175.953 112.137Z" fill="#EFEEF7"/>
<path d="M89.6143 127.82C89.7654 128.529 88.9399 130.096 88.6125 130.743C87.7977 132.35 86.7459 133.87 85.8223 135.422C84.9098 136.955 84.0928 138.553 83.1377 140.057C83.1289 139.962 83.124 139.95 83.1361 139.839C83.2619 138.677 85.3582 132.043 85.9524 131.235C86.9092 129.935 88.3916 128.869 89.6143 127.82Z" fill="#C6EBE9"/>
<path d="M56.3174 119.306C55.8529 118.533 55.5279 117.555 55.1732 116.719C54.176 114.367 53.2676 111.983 52.2863 109.626C51.7416 108.318 50.2914 105.598 50.0494 104.363C50.0391 104.311 50.0316 104.259 50.0223 104.206C49.86 103.297 49.8869 102.355 49.875 101.434C51.8393 106.062 53.9687 110.522 55.5654 115.305C55.9271 116.389 56.3496 117.487 56.6191 118.596C56.6203 118.63 56.6209 118.663 56.6225 118.697C56.6455 119.194 56.9 119.69 56.8609 120.163L56.8115 120.041C56.6742 119.71 56.6006 119.525 56.3174 119.306Z" fill="url(#paint0_linear_1_187363)"/>
<path d="M154.96 111.176C155.104 112.012 154.882 113.596 154.852 114.532C154.788 116.504 154.839 118.501 154.699 120.467C154.787 123.323 154.724 126.186 154.823 129.041C154.911 131.563 155.205 134.084 155.41 136.6C155.801 141.41 156.137 146.246 157.286 150.951L156.487 152.17C155.853 145.956 155.07 139.798 154.608 133.565C154.381 130.501 154.171 127.448 154.24 124.374C154.205 120.428 154.196 114.986 154.96 111.176Z" fill="#EFEEF7"/>
<path d="M181.14 103.328C181.104 103.618 180.803 104.058 180.67 104.34C179.279 107.298 179.828 111.004 180.9 113.963C180.046 113.284 179.259 112.853 178.249 112.432C177.509 112.158 176.766 111.944 176.004 111.741C176.998 108.461 178.332 105.458 181.14 103.328Z" fill="#EFEEF7"/>
<path d="M167.878 95.7617C167.995 95.8949 167.973 95.8496 168.041 95.9994C168.586 97.2051 168.905 98.5873 169.217 99.8721C169.549 101.239 171.511 110.71 171.194 111.495L170.754 111.585C170.498 111.603 170.247 111.613 169.992 111.615C169.705 110.876 169.592 109.98 169.424 109.2L168.258 103.567C167.977 102.219 167.293 100.112 167.293 98.8305C167.293 97.8389 167.655 96.7275 167.878 95.7617Z" fill="#EFEEF7"/>
<path d="M142.547 148.836C143.911 149.323 145.698 149.926 147.139 150.019C147.467 152.011 147.812 154.001 148.174 155.987C148.314 156.77 148.391 157.848 148.69 158.573C148.728 159.023 148.684 159.821 149.068 160.115C149.221 160.232 149.508 160.162 149.715 160.243L149.798 160.765C149.73 161.306 149.752 161.893 149.733 162.441C149.235 161.292 148.741 160.134 148.147 159.03C146.296 155.587 144.12 152.437 142.547 148.836Z" fill="#EFEEF7"/>
<path d="M164.605 147.727C165.074 147.813 165.883 147.88 166.209 148.254C166.232 148.28 166.247 148.312 166.266 148.341C165.385 150.7 164.363 151.948 165.136 154.587L164.761 155.164C163.681 154.704 161.945 154.62 160.703 154.247C161.189 152.135 161.337 149.929 161.854 147.834L163.431 147.835C163.204 148.565 162.796 149.535 162.954 150.296C163.644 149.726 163.971 148.454 164.605 147.727Z" fill="#EFEEF7"/>
<path d="M140.567 96.3029C140.595 95.8936 140.438 95.4602 140.312 95.0742C140.462 95.3605 140.601 95.6609 140.821 95.9004C140.862 95.9451 140.905 95.9883 140.947 96.0322C142.699 99.8117 144.06 103.856 145.517 107.758C148.169 114.858 152.079 123.21 151.195 130.966C150.658 128.148 150.204 125.304 149.552 122.511C148.76 119.112 147.674 115.744 146.489 112.462C144.928 108.138 143.259 103.858 141.736 99.5199C141.378 98.4994 140.756 97.3543 140.567 96.3029Z" fill="#EFEEF7"/>
<path d="M106.177 94.9453C106.267 94.9754 106.287 94.9748 106.372 95.0447C107.442 95.926 108.253 99.9949 108.342 101.362C108.471 103.345 108.098 105.362 106.765 106.897C106.649 106.984 106.528 107.054 106.397 107.115C106.163 107.223 105.933 107.264 105.69 107.143C105.388 106.991 105.214 106.657 105.103 106.352C104.93 105.876 104.877 105.357 104.888 104.853C104.91 103.852 105.905 95.5268 106.177 94.9453Z" fill="#C6EBE9"/>
<path d="M172.439 118.007C172.595 119.578 173.005 121.136 173.219 122.704C173.475 124.578 173.491 126.473 173.525 128.36C173.531 128.737 173.444 129.113 173.721 129.38C173.967 128.729 173.97 127.929 174.011 127.243C174.335 121.781 171.136 117.482 174.445 112.211C174.237 116.069 174.561 119.925 174.387 123.784C174.314 124.46 174.208 125.154 174.205 125.834C174.19 126.477 174.258 127.118 174.234 127.759C173.913 130.514 173.529 133.221 173.012 135.948C172.791 137.112 172.596 138.328 172.249 139.462C172.154 139.775 172.05 140.171 171.741 140.335L171.588 140.263C171.371 139.449 172.437 135.982 172.627 134.891C172.736 134.265 172.761 133.608 172.795 132.974C172.888 131.251 172.783 129.513 172.67 127.793C172.424 124.029 171.955 120.481 171.141 116.799L172.439 118.007Z" fill="#EFEEF7"/>
<path d="M128.852 117.254C132.742 117.72 135.655 119.605 138.03 122.629C142.873 128.796 144.644 134.41 145.711 142.091L145.662 141.991C144.941 140.47 144.456 138.849 143.716 137.326C143.152 136.166 142.303 135.119 141.802 133.937C139.872 129.383 139.093 124.409 135.501 120.702C134.643 119.817 133.611 119.009 132.443 118.583C131.681 118.306 130.958 118.243 130.153 118.301L129.959 118.24C130.161 118.082 131.296 118.108 131.609 118.091C131.019 117.862 129.18 117.687 128.852 117.254Z" fill="#EFEEF7"/>
<path d="M92.9652 113.934C93.5227 114.005 94.0158 114.033 94.575 113.958L91.4035 122.788C90.9574 124.048 90.5625 125.856 89.8748 126.951C89.2508 127.944 87.94 128.842 87.0543 129.609C86.6982 129.913 86.359 130.237 86.0156 130.555C86.7314 127.701 87.9311 125.022 89.0924 122.328C89.8254 120.628 90.5275 118.898 91.3176 117.225C91.8445 116.108 92.5053 115.089 92.9652 113.934Z" fill="#C6EBE9"/>
<path d="M99.5102 86.4625C102.282 86.415 104.749 87.4861 107.104 88.849C105.853 89.0142 104.643 89.2306 103.443 89.6351C101.087 90.4296 99.5062 91.3166 96.9652 91.5884C94.5 91.6912 92.0479 91.8793 89.5859 92.0283C91.7635 89.7113 96.2906 86.73 99.5102 86.4625Z" fill="#C6EBE9"/>
<path d="M131.689 78.8984C132.552 78.9523 133.481 79.4812 134.147 80.0045C137.479 82.6229 138.987 87.4547 139.46 91.4869C138.741 90.2199 137.186 86.625 136.012 86.0094C135.817 85.907 135.806 85.9053 135.586 85.965C135.473 86.5637 136.179 87.6463 136.461 88.2094C137.405 90.2652 138.49 92.2424 139.336 94.3449C137.359 91.4834 134.853 89.0135 132.893 86.1242C131.887 84.6414 130.208 82.1309 130.623 80.2412C130.772 79.5664 131.123 79.2539 131.689 78.8984Z" fill="#C6EBE9"/>
<path d="M41.6875 86.375C42.2512 87.415 42.9129 88.5211 43.2844 89.643C44.0648 91.2807 44.5369 93.0822 45.274 94.749L48.2461 101.38C48.6805 102.347 49.2471 103.32 49.5646 104.332C50.0578 105.904 49.9955 107.676 50.2945 109.301C50.6684 111.33 51.6047 114.109 51.7482 116.096C52.0318 117.12 52.2877 118.135 52.4176 119.193C52.0457 118.379 51.6354 117.566 51.3039 116.735C50.8264 116.044 50.4871 115.072 50.1273 114.301C47.1062 107.818 44.8682 100.842 43.2713 93.8793C42.9088 92.2988 42.4496 90.6148 42.2967 89.0025C42.0365 88.1406 41.8691 87.2559 41.6875 86.375Z" fill="#9FCEC7"/>
<path d="M152.69 168.96C153.994 168.317 155.084 167.268 156.321 166.504C159.605 164.475 162.891 162.808 166.449 161.32C163.549 163.62 160.998 166.405 157.581 167.962C161.892 168.119 166.3 168.127 170.425 166.721C169.115 167.709 167.808 168.699 166.315 169.403C164.008 170.489 161.724 170.61 159.244 170.903C157.081 171.158 154.799 171.451 152.69 171.996C152.581 171.201 152.453 170.409 152.305 169.62L152.294 169.501L152.105 169.478L152.05 169.293L151.988 169.415L152.04 169.262C152.237 169.187 152.208 169.218 152.398 169.264C152.461 169.279 152.524 169.293 152.587 169.307L152.726 169.04L152.69 168.96Z" fill="#CEC8FF"/>
<path d="M152.724 169.043C153.83 169.414 155.002 169.807 156.034 170.353C154.715 170.244 153.811 169.658 152.586 169.311L152.724 169.043Z" fill="black"/>
<path d="M149.058 58.8668C148.743 59.2535 147.896 59.6914 147.454 59.9684C145.286 61.3256 139.976 64.6508 137.467 63.992C136.798 63.8166 136.307 63.3492 135.971 62.7588C135.714 62.3071 135.612 61.7793 135.76 61.2744C136.107 60.0977 137.4 59.2678 138.437 58.734C141.192 57.3147 149.424 55.0696 152.395 56.0344C150.035 57.5725 147.405 58.5907 144.68 59.292C143.362 59.6311 141.869 59.8473 140.659 60.4854C143.33 59.9963 145.827 59.1143 148.437 58.4362C149.236 58.1066 150.039 57.7895 150.847 57.485C151.448 57.0809 152.085 56.5826 152.749 56.2951C153.123 56.133 153.386 56.0871 153.773 56.2414C153.981 56.4942 153.953 56.6408 153.986 56.9612L153.834 56.8535L153.723 56.6182C153.448 56.5918 153.405 56.5914 153.157 56.7106C153.264 56.8246 153.349 56.8823 153.479 56.9641C153.44 58.0852 152.974 59.4674 152.496 60.4756L152.413 60.3684C152.499 59.6453 153.317 58.0684 153.306 57.5287C153.3 57.2713 153.229 57.0867 153.035 56.9164C152.829 56.7366 152.589 56.6055 152.314 56.6028C151.658 56.9483 151.513 57.794 151.141 58.3815C150.974 58.6461 150.767 58.7957 150.47 58.85C150.706 58.5604 151.004 58.2719 151.185 57.9457C151.273 57.7869 151.296 57.759 151.24 57.5825L151.039 57.6125C150.444 58.1121 149.745 58.5084 149.058 58.8668Z" fill="#DAE0EA"/>
<path d="M182.617 101.969C184.392 102.293 186.165 103.125 187.414 104.45C190.956 108.21 189.535 113.713 188.768 118.204C188.476 119.91 188.274 121.585 188.213 123.316L188.323 125.023C187.368 123.244 186.712 121.285 186.268 119.319C185.404 115.483 184.47 104.72 182.617 101.969Z" fill="#EFEEF7"/>
<path d="M155.238 55.9141C158.238 58.2061 165.232 64.5512 165.697 68.259C165.776 68.8863 165.693 69.5186 165.291 70.0256C164.833 70.6025 164.041 70.9373 163.318 70.9816C162.219 71.0488 161.195 70.5068 160.408 69.7785C157.909 67.4646 155.558 60.2848 154.736 56.86C154.668 57.3652 154.593 57.8682 154.57 58.3781L154.368 58.3064C154.29 57.599 154.292 56.8912 154.285 56.1803L155.238 55.9141Z" fill="#DAE0EA"/>
<path d="M168.542 77.261C169.248 77.2342 169.742 77.3752 170.321 77.7906C173.648 80.1781 175.807 89.2283 176.485 93.1469C173.282 91.7951 171.089 89.6248 169.189 86.7373C168.572 85.7067 165.555 80.3395 165.844 79.3602C165.924 79.0899 165.979 79.066 166.211 78.9426C168.497 79.0524 169.279 83.8889 170.604 85.1778L170.678 85.0688C170.467 83.592 169.331 81.5908 168.517 80.3483C167.909 79.4203 167.262 78.7824 166.151 78.5553C166.935 77.9678 167.586 77.5309 168.542 77.261Z" fill="#EFEEF7"/>
<path d="M161.989 147.454L162.006 147.306C162.038 147.007 162.106 146.753 161.939 146.484L161.78 146.452C161.57 146.7 161.646 146.917 161.595 147.207C161.548 146.966 161.544 146.669 161.385 146.482C161.208 146.699 161.224 146.944 161.207 147.21C160.999 147.278 160.825 147.232 160.63 147.121C160.533 147.066 160.51 147.037 160.438 146.967C160.549 146.18 163.153 144.036 163.868 143.504C165.916 141.977 168.511 140.823 171.061 140.523C170.07 146.445 169.945 150.485 170.257 156.46C169.704 156.759 166.999 155.999 166.178 155.928C165.948 155.567 165.829 155.231 165.714 154.82C166.364 152.763 167.129 150.533 167.095 148.357C165.443 147.134 163.929 147.33 161.989 147.454Z" fill="#EFEEF7"/>
<path d="M182.421 102.52C183.717 103.696 185.396 117.644 186.101 120.327C186.797 122.975 188.095 124.81 188.929 127.266C186.278 124.402 185.816 124.197 182.201 122.717C181.424 122.417 180.751 122.174 180.147 121.572C179.84 121.265 179.474 120.797 179.501 120.337C179.515 120.114 179.652 119.969 179.823 119.838C181.161 118.815 182.282 120.783 183.574 120.959C183.812 120.991 183.842 121.014 184.042 120.868C184.108 120.337 183.17 118.135 182.859 117.635C182.148 116.492 180.807 116.154 179.58 115.885C179.611 115.881 179.643 115.876 179.675 115.873C179.728 115.867 179.782 115.864 179.835 115.858C180.679 115.762 181.378 116.101 182.205 116.131C182.247 116.083 182.302 116.045 182.33 115.988C182.428 115.792 182.244 115.375 182.146 115.2C181.9 114.761 181.58 114.368 181.346 113.918C180.617 112.516 180.306 110.627 180.263 109.061C180.195 106.638 180.712 104.311 182.421 102.52Z" fill="#EFEEF7"/>
<path d="M164.966 92.9414C164.986 92.9492 165.009 92.9537 165.027 92.965C165.636 93.3307 166.616 97.7969 166.861 98.7223C165.658 102.59 163.954 106.27 162.226 109.925C161.475 111.513 160.769 113.167 159.853 114.668C159.655 114.921 159.474 115.201 159.147 115.28C159.01 115.237 158.921 115.245 158.843 115.112C158.123 113.9 159.115 108.294 159.402 106.748C159.719 105.108 160.092 103.481 160.524 101.867C161.312 98.8031 162.204 94.8363 164.966 92.9414Z" fill="#EFEEF7"/>
<path d="M49.5138 100.044C48.6476 98.0695 47.655 96.1875 46.5992 94.3082C46.0793 93.3826 45.381 92.4348 44.9976 91.4514C43.9703 88.8158 43.5384 75.1811 43.8328 72.0391C43.8638 72.542 43.8808 73.0344 43.8693 73.5387C44.6302 73.5252 45.3988 73.5318 46.1558 73.4508C46.9582 78.593 48.5459 83.6375 49.2273 88.7859C49.7154 92.4746 49.5193 96.3268 49.5138 100.044Z" fill="#9FCEC7"/>
<path d="M154.311 52.6297C153.833 51.6049 153.604 50.4246 153.344 49.3276C152.423 45.4467 151.896 41.7655 152.278 37.77C152.425 36.2282 152.703 34.5422 154.007 33.5268C154.624 33.0463 155.386 32.8539 156.157 32.9707C156.982 33.0953 157.703 33.534 158.164 34.2315C159.96 36.9453 157.878 44.0077 156.859 46.9612C156.347 48.4473 155.392 50.4639 155.161 51.9623C155.119 52.2346 155.163 52.2446 155.325 52.4508L155.175 52.5035L154.736 52.3869C154.268 51.7993 154.669 44.7438 154.742 43.7131C154.799 42.8938 155.005 41.9827 154.947 41.17L154.849 41.1942C154.047 42.8002 154.399 50.3844 154.311 52.6297Z" fill="#DAE0EA"/>
<path d="M143.563 34.6016C144.115 34.6486 144.636 34.7635 145.147 34.982C146.154 35.4123 146.941 36.1494 147.553 37.0436C148.477 38.3951 148.987 39.9707 149.552 41.4936C150.881 45.0814 151.877 48.7779 153.287 52.3293L152.164 52.6809L151.434 52.134C147.697 49.2498 142.438 43.2324 141.375 38.5713C141.163 37.6402 141.114 36.5785 141.67 35.7531C142.114 35.0947 142.805 34.7473 143.563 34.6016Z" fill="#DAE0EA"/>
<path d="M136.869 47.9935C137.593 47.9808 138.338 48.0646 139.051 48.1815C142.807 48.7972 146.234 50.389 149.634 52.0206C150.206 52.2948 151.345 52.679 151.695 53.1669C151.503 53.4944 151.355 53.7923 151.247 54.1575L151.219 54.2567C148.634 54.0073 146.018 53.5165 143.483 52.9608C142.956 52.8452 141.383 52.2468 140.974 52.3718C140.99 52.3997 141.004 52.4298 141.023 52.4554C141.459 53.0151 143.758 53.3087 144.548 53.4878C146.665 54.005 148.877 54.2315 151.029 54.5765C146.74 55.0122 136.137 56.0153 132.617 53.4815C132.116 53.1212 131.73 52.6407 131.645 52.0147C131.548 51.2876 131.899 50.4839 132.346 49.9276C133.426 48.5837 135.233 48.136 136.869 47.9935Z" fill="#DAE0EA"/>
<path d="M172.314 140.742C174.12 141.469 182.219 145.84 182.714 147.187C182.878 147.634 182.623 148.238 182.409 148.638C182.177 149.072 181.699 149.701 181.185 149.811C180.857 149.881 180.573 149.754 180.321 149.555C179.097 148.587 178.603 146.487 176.655 146.601C176.069 146.635 175.443 146.952 175.06 147.396C174.6 147.929 174.461 148.63 174.526 149.316C174.773 151.912 178.063 153.318 175.915 156.112C175.514 156.634 175.008 157.071 174.516 157.505C173.23 157.341 171.919 157.121 170.666 156.787C170.512 154.036 170.361 151.246 170.68 148.502C170.984 145.887 171.684 143.294 172.314 140.742Z" fill="#EFEEF7"/>
<path d="M155.322 52.451C155.368 52.4158 155.415 52.3822 155.46 52.3453C156.262 51.6805 157.065 49.7176 157.578 48.7442C159.274 45.5236 163.637 36.9424 167.84 37.2174C168.728 37.2756 169.504 37.684 170.058 38.3791C170.58 39.033 170.776 39.7424 170.677 40.5705C170.371 43.1195 167.832 45.7274 165.877 47.1961C163.798 48.758 161.43 49.9752 159.151 51.2184C158.054 51.8172 156.823 52.3014 155.883 53.1361L155.172 52.5037L155.322 52.451Z" fill="#EFEEF7"/>
<path d="M159.557 46.3438C159.785 46.417 159.843 46.4828 160.012 46.6445C160.058 46.934 160.047 46.9264 159.892 47.1779C159.648 47.1258 159.506 47.0937 159.301 46.9406C159.292 46.6719 159.417 46.5643 159.557 46.3438Z" fill="#E6DFD5"/>
<path d="M134.695 125.832C135.984 127.183 137.114 128.697 138.287 130.15C139.406 131.535 140.545 132.9 141.536 134.382C144.676 139.081 146.232 144.492 147.136 150.017C145.696 149.924 143.908 149.322 142.544 148.835C141.642 147.302 140.921 145.591 140.239 143.947C138.698 140.233 137.523 136.609 136.516 132.723C135.92 130.424 135.435 128.091 134.695 125.832Z" fill="#EFEEF7"/>
<path d="M111.504 116.875C114.888 114.787 118.699 113.033 122.755 113.063C127.807 113.1 131.872 115.896 135.291 119.381C132.203 117.205 128.299 116.347 124.558 116.637C123.778 116.697 121.565 117.037 121.102 117.575C121.346 117.926 121.77 117.631 122.106 117.518C123.944 116.901 126.997 116.651 128.849 117.257C129.178 117.69 131.017 117.865 131.606 118.094C131.293 118.111 130.159 118.085 129.957 118.243L130.151 118.304C128.046 118.766 126.334 120.118 124.275 120.595C119.847 121.619 115.161 119.087 111.504 116.875Z" fill="#C6EBE9"/>
<path d="M171.528 130.7C171.815 130.673 172.066 130.632 172.345 130.73C173.086 132.193 171.465 138.252 171.141 140.21C171.047 140.214 170.953 140.219 170.859 140.227C166.831 140.539 162.691 143.544 160.163 146.531C160.05 146.606 160.127 146.575 159.914 146.541C159.503 146.013 159.376 145.402 159.301 144.749C159.044 142.516 161.952 137.534 163.351 135.758C164.065 134.851 164.872 134.035 165.725 133.259C167.666 131.494 168.929 131.003 171.528 130.7Z" fill="#EFEEF7"/>
<path d="M170.864 121.815C171.166 121.767 171.449 121.726 171.705 121.9C172.219 124.064 172.339 127.953 172.442 130.263C167.427 130.459 164.603 132.331 160.954 135.464C160.207 136.106 159.379 136.948 158.405 137.209C158.15 137.148 158.077 137.136 157.917 136.906C157.694 136.585 157.686 135.976 157.745 135.607C157.917 134.52 160.697 132.255 161.569 131.579C162.133 131.158 162.74 130.754 163.348 130.401C164.233 129.886 165.27 129.59 165.661 128.521C165.84 128.03 165.813 127.421 165.583 126.951C165.38 126.537 165.025 126.259 164.592 126.114C163.244 125.66 161.061 127.663 159.85 128.243C159.348 128.484 158.524 128.803 157.974 128.551C157.68 128.417 157.423 128.14 157.354 127.813C157.279 127.453 157.401 127.161 157.621 126.885C158.029 126.375 158.646 125.938 159.162 125.543C162.604 122.904 166.683 122.297 170.864 121.815Z" fill="#EFEEF7"/>
<path d="M164.453 114.203C164.924 114.462 165.572 114.503 166.095 114.598C167.759 114.902 169.424 115.419 170.711 116.564C170.974 118.179 171.408 119.758 171.644 121.384C167.907 121.623 163.774 122.279 160.497 124.156C159.372 124.8 157.369 126.059 157.052 127.401C156.971 127.743 156.978 128.2 157.207 128.49C157.424 128.766 157.704 128.9 158.046 128.959C159.58 129.221 160.881 128.138 162.057 127.325C162.669 126.902 163.524 126.312 164.307 126.489C164.353 126.5 164.398 126.513 164.443 126.528C164.488 126.543 164.531 126.561 164.574 126.58C164.617 126.6 164.659 126.622 164.699 126.646C164.74 126.669 164.779 126.695 164.818 126.723C164.856 126.751 164.892 126.78 164.927 126.812C164.962 126.843 164.996 126.876 165.027 126.911C165.059 126.946 165.089 126.982 165.117 127.02C165.145 127.058 165.171 127.097 165.196 127.137C165.385 127.455 165.43 127.862 165.327 128.216C165.083 129.063 164.217 129.443 163.516 129.843C161.281 131.171 159.565 132.709 157.789 134.589C157.207 129.881 155.002 128.487 156.683 123.592C157.226 122.009 157.9 120.195 159.531 119.437C161.292 118.619 162.965 119.671 164.619 120.227C165.24 120.435 166.488 120.823 167.073 120.435C167.284 120.295 167.36 120.125 167.421 119.891C167.014 118.968 164.266 118.735 163.371 118.04C163.114 117.841 162.939 117.575 162.903 117.247C162.792 116.217 163.863 114.961 164.453 114.203Z" fill="#EFEEF7"/>
<path d="M170.658 49.2573C171.358 49.1571 172.146 49.1545 172.855 49.1729C174.32 49.2108 176.238 49.3741 177.277 50.5364C177.707 51.0162 177.983 51.694 177.931 52.3442C177.882 52.9455 177.53 53.4479 177.07 53.8161C173.979 56.2872 163.11 54.8508 159.034 54.4235C161.122 53.9829 163.234 53.6284 165.338 53.2743C166.546 53.0711 167.803 52.9395 168.977 52.5854C164.779 52.4934 160.63 54.1358 156.455 54.4346C157.919 55.0668 159.442 55.2571 160.999 55.5516C162.463 55.8145 163.913 56.1398 165.348 56.5274C166.847 56.9395 168.357 57.3772 169.803 57.9483C171.662 58.6827 174.191 59.8196 175 61.8182C175.219 62.3573 175.265 62.95 175.007 63.4842C174.704 64.1145 174.014 64.4997 173.376 64.7122C170.182 65.7766 163.682 61.2412 161.093 59.3289C160.041 58.5526 159.056 57.6602 157.981 56.9229C157.232 56.4094 156.397 56.0528 155.594 55.635C155.618 55.6022 155.642 55.5692 155.666 55.5368C155.748 55.4289 155.832 55.3237 155.908 55.2118C156.293 54.6436 156.232 54.1241 156.115 53.4782C160.787 51.7672 165.654 49.7034 170.658 49.2573Z" fill="#EFEEF7"/>
<path d="M150.729 165.453C149.479 161.031 150.126 153.666 151.088 149.195C151.55 153.09 152.945 157.084 152.241 161.002C152.69 160.152 152.946 159.229 153.273 158.329C153.951 156.461 154.907 154.457 156.211 152.942C156.12 155.703 155.793 158.494 155.408 161.229C155.269 162.222 154.843 163.288 154.824 164.272L154.966 164.291C155.142 164.098 155.246 163.898 155.346 163.657C155.637 162.957 155.74 162.173 156.009 161.461C157.005 158.828 158.077 156.118 159.297 153.582L160.396 153.989C159.85 156.527 159.146 159.062 158.003 161.4C157.442 162.546 156.627 163.651 156.161 164.828C157.252 163.871 158.042 162.462 158.873 161.283C160.303 159.253 162.512 156.794 164.695 155.565C163.493 158.312 160.939 162.615 158.654 164.571C157.656 165.423 156.422 166.081 155.33 166.813C154.437 167.411 153.553 168.177 152.612 168.677L152.534 168.535C152.566 168.47 152.6 168.406 152.628 168.339C152.843 167.832 153.573 166.001 153.379 165.541C152.854 165.878 152.567 167.548 152.377 168.17C152.119 168.069 151.867 168.002 151.597 167.939C151.366 167.015 151.152 166.251 150.62 165.446L150.521 165.294C150.501 165.263 150.48 165.234 150.46 165.204C150.751 166.486 151.236 167.712 151.533 168.996C150.525 168.818 148.721 168.241 147.754 168.587C148.402 168.789 149.085 168.889 149.758 168.967C149.952 169.104 150.144 169.237 150.351 169.354L150.297 169.424C150.224 169.52 150.155 169.618 150.087 169.716C148.789 170.26 146.888 170.304 145.507 170.059C141.363 169.326 137.917 166.638 135.543 163.267C138.921 165.718 143.114 166.525 146.83 168.297C146.047 167.217 144.805 166.423 143.893 165.437C141.747 163.117 140.044 160.46 138.455 157.739C141.82 160.342 143.562 162.48 147.539 164.619C147.023 163.224 146.403 161.873 145.937 160.458C145.082 157.859 144.52 155.16 143.909 152.496C145.29 154.93 146.855 157.298 148.125 159.787C149.062 161.625 149.555 163.749 150.729 165.453Z" fill="#CEC8FF"/>
<path d="M99.4805 94.9545C100.178 94.8428 100.929 94.9226 101.628 94.9826C100.379 95.4135 99.0019 95.5879 97.7225 95.9623C94.9633 96.7695 92.2478 97.7441 89.5352 98.6943L89.4994 98.8851L89.6283 99.0115C90.3471 99.0773 92.232 98.1471 92.9867 97.8773C94.2596 97.4091 95.5479 96.9875 96.8516 96.6127C98.1551 96.2378 99.4704 95.9106 100.798 95.631C97.9346 98.9668 93.392 100.065 90.7912 103.177C90.051 104.062 89.85 104.861 89.965 105.995C90.1603 107.918 90.6777 111.26 91.7377 112.867C91.9703 113.22 92.2791 113.473 92.6035 113.737C92.0355 115.21 91.1883 116.549 90.5408 117.986C88.6695 122.136 86.8848 126.297 85.5051 130.639C85.1447 131.908 83.45 133.241 82.59 134.263C80.7769 136.416 79.2881 138.75 77.9805 141.237C78.5617 138.43 78.8785 135.525 79.3482 132.693C80.0258 128.775 80.7821 124.871 81.617 120.983C83.3543 112.718 85.7959 104.61 88.1715 96.5113C88.3248 96.925 88.518 97.3238 88.7008 97.725C92.4344 97.4967 95.7783 95.4515 99.4805 94.9545Z" fill="#C6EBE9"/>
<path d="M106.6 94.5666C108.551 92.2275 121.38 77.177 122.916 76.6445C122.925 76.8076 122.945 76.7328 122.837 76.882C122.143 77.8426 121.038 78.7742 120.214 79.6412C117.391 82.6115 114.299 85.5228 111.911 88.8664C114.336 90.9311 116.364 93.0475 117.839 95.9117C118.516 97.225 119.05 98.6318 119.47 100.048C119.671 100.725 119.784 101.435 120.028 102.098C120.12 102.348 120.21 102.648 120.427 102.816L120.492 102.667C120.392 101.555 120.037 100.474 119.699 99.4154C118.26 94.9131 115.941 91.7951 112.417 88.7316C113.776 86.9605 115.266 85.3107 116.795 83.6867C118.71 85.0738 120.747 86.159 122.58 87.6877L122.49 87.9279C122.398 88.0254 122.306 88.1232 122.225 88.2303C120.43 90.5896 122.701 96.7725 123.897 99.0838C125.074 101.356 126.96 103.248 127.266 105.901C127.392 106.998 127.208 108.093 126.493 108.964C125.588 110.068 124.018 110.829 122.603 110.954C121.084 111.087 119.641 110.527 118.481 109.571C114.652 106.416 115.311 101.457 115.406 97.0707C115.434 95.7549 115.343 94.4592 115.21 93.152C114.603 93.435 114.09 93.7576 113.596 94.2129C110.116 97.418 111.154 101.288 110.976 105.482C110.906 107.147 110.588 109.377 109.251 110.546C108.202 111.463 106.629 112.064 105.222 111.906C104.884 111.869 104.528 111.737 104.338 111.437C103.866 110.687 104.513 107.447 104.649 106.46L104.687 106.525L104.753 106.632C105.037 107.104 105.302 107.474 105.863 107.621C106.174 107.703 106.48 107.633 106.746 107.462C107.703 106.847 108.303 105.209 108.55 104.141C109.27 101.03 108.247 97.2283 106.6 94.5666Z" fill="#C6EBE9"/>
<path d="M127.1 73.6604C127.501 73.6328 127.905 73.6026 128.308 73.6057C133.602 73.6475 140.867 78.9668 144.496 82.6696C145.971 84.175 147.426 85.894 147.357 88.1323C147.322 89.2657 146.881 90.4463 146.038 91.226C145.723 91.5174 145.43 91.7145 144.983 91.6768C143.505 91.5524 142.348 88.1625 141.775 87.0034C141.427 86.2969 141.047 85.6262 140.592 84.9807C138.872 82.5438 136.353 79.8045 133.462 78.7869C132.95 78.6067 132.385 78.5332 131.851 78.4426C131.648 78.5192 131.441 78.595 131.246 78.6918C130.772 78.9285 130.437 79.4317 130.278 79.9244C128.86 84.3215 138.172 92.2446 140.014 96.0508C140.556 97.1717 140.787 98.417 140.346 99.6143C139.845 100.973 138.677 102.06 137.371 102.652C136.025 103.261 134.198 103.544 132.799 102.989C130.59 102.111 130.267 99.5729 129.727 97.5594C129.48 96.6377 129.176 95.7584 128.809 94.878C126.853 90.0567 121.554 85.7797 116.996 83.428L118.167 82.2284C125.119 84.5391 128.253 87.1487 131.561 93.7114C132.36 95.2973 132.984 97.0325 133.917 98.542L133.993 98.6645C133.559 96.5362 132.366 94.3307 131.34 92.4262C128.244 86.6758 124.708 83.7889 118.475 81.9276C119.388 80.9707 122.591 77.1914 123.614 76.9725C123.915 76.9082 124.207 76.968 124.46 77.1436C125.676 77.9867 126.036 81.6035 126.348 83.076L126.522 83.05L126.523 83.1278C126.685 82.0883 126.11 79.1297 125.671 78.1221C125.29 77.2477 124.719 76.7889 123.854 76.4313C124.811 75.5182 125.904 74.2422 127.1 73.6604Z" fill="#C6EBE9"/>
<path d="M118.396 55.7812C120.133 55.9236 121.949 56.7338 123.331 57.7838C126.361 60.0877 126.341 63.2641 126.473 66.7449C126.545 68.6342 126.638 70.5125 126.898 72.3869C125.549 73.5223 124.217 74.6699 122.977 75.9246C120.329 71.6449 116.938 68.3629 112.576 65.8615C111.884 65.4648 109.797 64.1172 109.102 64.3068C109.174 64.518 109.25 64.5469 109.437 64.6662C110.313 65.2246 111.345 65.6092 112.252 66.1447C116.575 68.6984 120.177 71.8523 122.681 76.2707C120.394 78.25 118.344 80.6344 116.275 82.8406C107.03 76.2027 103.344 74.7045 91.7983 76.5885C90.8926 76.7379 89.3575 77.2006 88.4969 76.9854C88.3022 76.9367 88.1866 76.8713 88.1053 76.676C87.8184 75.9863 88.3534 74.6803 88.6664 74.0266C89.7215 71.8242 91.7719 69.9228 94.0832 69.1152C99.8666 67.0947 102.79 71.8617 107.394 74.0336C109.043 74.8111 111.462 75.3844 113.233 74.71C113.843 74.4781 114.417 74.0842 114.669 73.4598C115.019 72.5906 114.927 71.6008 114.554 70.7574C113.128 67.535 108.858 66.1949 105.87 64.9777C104.307 64.3416 102.121 63.6266 101.428 61.9504L101.379 61.8285C101.788 60.7252 102.527 59.9154 103.507 59.2834C107.919 56.4395 112.886 59.1295 116.082 62.4941C117.519 64.0076 118.717 65.9727 120.389 67.2326C121.253 67.8836 122.133 68.1277 123.173 68.3539C122.684 65.6529 121.516 63.4947 119.695 61.4465C118.773 60.4084 117.129 59.1492 116.774 57.7895C116.678 57.4182 116.752 57.0219 116.953 56.6982C117.294 56.1484 117.781 55.9059 118.396 55.7812Z" fill="#C6EBE9"/>
<path d="M30.4729 113.32C32.9566 114.578 35.0436 116.534 37.0746 118.408C38.5012 119.723 39.8919 121.074 41.2469 122.462C42.6018 123.851 43.9191 125.274 45.1988 126.732C46.4785 128.19 47.7187 129.68 48.9195 131.204C50.1203 132.728 51.2799 134.282 52.3984 135.867C53.877 137.924 55.3617 140 56.6082 142.209C58.3135 145.231 59.6762 148.919 60.7547 152.223C61.6551 154.983 62.4674 157.898 63.023 160.745C63.235 161.831 63.4508 164.619 63.7672 165.418L63.9207 165.459C63.9828 165.399 64.073 165.329 64.1197 165.257C64.2084 165.588 64.1309 165.962 64.1242 166.305C64.1057 167.241 64.0877 168.171 63.9725 169.102C63.874 169.897 63.6533 170.736 63.642 171.531C63.6141 171.54 63.5869 171.552 63.5582 171.556C61.5576 171.847 59.2957 171.434 57.9039 169.87C56.6236 168.432 55.6027 165.765 54.6736 164.024C53.4928 161.805 52.2279 159.634 50.8789 157.512C44.1172 146.727 36.9494 140.047 26.2693 133.214C24.2273 131.907 22.0365 130.862 20.0041 129.562L19.8441 129.458C18.1266 128.711 16.4447 127.806 14.7461 127.009C16.4837 127.467 18.2689 128.014 19.9123 128.743C21.608 129.283 23.2535 130.079 24.865 130.827C33.6898 134.921 42.4143 140.67 49.6023 147.231C51.152 148.646 52.7131 150.081 54.1553 151.606C55.108 152.613 55.9801 153.883 57.0643 154.74C56.409 153.173 55.5158 151.666 54.7199 150.164C52.8078 146.556 50.7963 143.022 48.7525 139.488C44.8766 132.785 41.5807 126.423 36.8701 120.163C35.04 117.732 32.9189 115.154 30.4729 113.32Z" fill="#9FCEC7"/>
<path d="M153.372 59.1523C153.454 59.7676 153.41 60.4254 153.43 61.049C153.504 62.8743 153.536 64.7003 153.527 66.527C153.541 70.773 153.568 75.0437 153.744 79.2859C153.949 83.9842 154.21 88.6794 154.53 93.3713L154.963 98.9307C155.047 100.05 155.201 101.209 155.113 102.329C154.989 103.919 154.38 105.53 154.138 107.123C153.723 109.862 153.443 112.621 153.029 115.363C152.64 117.946 152.089 120.51 151.781 123.103C151.623 124.427 151.582 125.778 151.511 127.109C151.275 125.523 151.265 123.96 150.918 122.381C150.065 118.503 148.656 114.878 147.243 111.181C145.926 107.735 144.687 104.257 143.338 100.824C142.377 98.3748 141.266 95.9549 140.395 93.4748C139.99 92.3199 139.887 91.1244 139.665 89.9285C139.331 88.1273 138.82 86.3156 138.068 84.6422C137.208 82.7295 135.943 81.1387 134.509 79.6297C137.435 81.4906 140.068 84.3273 141.585 87.458C142.212 88.7506 142.682 90.4014 143.749 91.3988C144.165 91.7885 144.732 92.1361 145.325 92.074C145.85 92.0193 146.282 91.6383 146.599 91.2434C147.617 89.9752 147.86 88.524 147.679 86.9578C147.013 84.2127 144.651 82.0953 142.557 80.3535C138.718 77.1598 132.678 72.7279 127.466 73.2109C128.471 72.5377 129.515 71.9205 130.68 71.5686C132.232 71.0996 133.902 71.1293 135.498 71.3062C140.337 71.8426 143.942 74.1193 148.041 76.4609C148.866 76.932 149.703 77.4643 150.558 77.8744C150.807 77.9943 150.917 78.0283 151.179 77.9414L151.186 77.823C150.345 77.1209 149.115 76.6164 148.156 76.0609C143.866 73.5766 140.428 71.4262 135.325 70.8842C131.719 70.5012 128.97 71.2779 126.268 73.723C125.412 74.4977 124.585 75.4162 123.674 76.1166C123.505 76.2467 123.523 76.2621 123.301 76.2291L123.376 76.1816L123.374 76.0879C124.883 74.4137 126.791 72.9012 128.657 71.6523C130.65 70.3182 136.102 67.5029 138.4 67.4898C139.347 67.4844 144.142 68.8541 145.317 69.235C146.1 69.4887 146.866 69.8135 147.631 70.1152C148.174 70.3293 149.518 71.2498 149.999 71.1793L150.018 71.0023C149.455 70.3352 148.119 69.9074 147.319 69.548C150.949 67.2373 152.17 63.0391 153.372 59.1523Z" fill="#C6EBE9"/>
<path d="M66.4525 76.043C66.687 76.6211 66.9261 77.4443 67.4052 77.8687C68.5048 80.2209 69.4156 82.6822 70.312 85.118C71.3706 87.9932 72.4288 90.8533 73.0402 93.8639C73.6368 96.8035 73.8255 99.8314 73.9544 102.822C74.412 113.426 73.1538 123.951 72.021 134.473L71.5495 139.063C71.4427 140.012 71.1939 141.072 71.2556 142.025C71.2691 142.234 71.2646 142.339 71.4488 142.457C72.0486 141.801 72.3603 138.946 72.614 137.934C73.9777 132.494 75.2554 127.052 76.8929 121.683C78.9669 114.884 81.5087 108.347 84.3945 101.857C85.5167 99.3338 86.6101 96.7062 88.0417 94.3387C87.6605 97.7732 86.4161 101.112 85.4673 104.425C84.1214 109.126 82.8286 113.819 81.724 118.584C80.5801 123.744 79.5714 128.931 78.698 134.144C78.298 136.565 78.1236 139.121 77.5579 141.498C77.2388 142.84 76.2798 143.983 75.682 145.215C73.3687 149.983 72.1144 155.097 73.0952 160.405C73.2738 161.371 73.6054 163.617 74.1628 164.365C74.1859 164.396 74.2144 164.422 74.2404 164.451C74.398 164.187 74.2566 163.755 74.1829 163.468C72.7669 157.94 72.8167 153.364 74.8636 148.027C75.3923 146.648 76.0077 145.198 76.7906 143.948C76.9501 143.693 77.0886 143.543 77.3792 143.443L77.7656 143.526C77.8775 143.239 77.782 142.864 77.7421 142.561C77.9892 142.112 78.2552 141.666 78.4761 141.204L78.7482 140.665C80.3398 137.493 82.599 134.639 85.0886 132.129C84.0572 135.096 83.3478 138.153 82.3501 141.121C81.3072 142.372 80.7146 145.262 80.2595 146.871C79.8402 148.354 79.1738 149.738 78.7425 151.211C77.6681 154.88 77.295 160.118 77.6796 163.925C77.7017 164.143 77.6818 164.164 77.8493 164.32L78.0064 164.297C78.1868 163.934 78.1413 160.922 78.2173 160.238C78.4005 158.593 78.8136 156.932 79.1183 155.302C79.1529 155.252 79.1894 155.202 79.2218 155.15C79.4935 154.712 79.5572 153.917 79.5482 153.413L79.6656 153.24L79.6077 152.996C79.8642 153.78 79.5126 154.663 79.705 155.48C79.7003 156.285 79.3015 157.721 79.6128 158.441L79.7644 158.357C80.3044 157.323 80.2564 149.376 80.4347 147.468C82.9179 144.805 84.4642 141.056 86.2085 137.882C87.8503 134.896 89.6954 132.032 91.4972 129.142C92.5992 127.374 93.5829 125.602 94.8646 123.948L94.9347 123.899C95.1294 123.762 95.4109 123.378 95.5812 123.306C95.5122 123.524 95.4556 123.688 95.4513 123.92L95.3761 124.073C94.9646 124.895 94.4273 125.681 93.9607 126.475C93.1253 127.897 92.3152 129.354 91.5595 130.82C87.2034 139.266 81.8142 151.109 79.9702 160.387C79.7173 161.66 79.4497 162.964 79.4365 164.265L79.4339 164.405C79.4337 164.433 79.4341 164.461 79.4341 164.489C80.8138 162.883 81.8827 160.3 83.0351 158.428C84.579 155.919 86.5587 154.062 88.6091 152.004C87.8628 153.164 86.9595 154.212 86.1648 155.338C84.2117 158.104 82.3574 161.534 81.7802 164.882C82.6529 163.626 82.8822 162.129 83.5064 160.754C84.6107 158.321 86.0367 156.19 87.5726 154.014C86.513 156.505 85.604 158.991 84.7204 161.548C84.3527 162.613 83.9357 163.668 83.6165 164.748C86.1097 163.374 88.3636 161.701 90.646 160.006C90.0036 160.731 89.326 161.421 88.6132 162.077C87.9006 162.733 87.1565 163.351 86.381 163.931C85.6363 164.481 84.7189 164.984 84.0359 165.589C83.8158 165.783 83.8302 165.835 83.7952 166.117L83.7117 166.302C83.3322 168.385 83.0931 170.69 83.1913 172.809C83.2077 173.163 83.3255 173.664 83.2204 173.991C80.4773 173.408 77.805 172.233 75.181 171.252C72.3687 170.503 69.4771 170.689 66.6247 171.104C65.6386 171.247 64.6339 171.454 63.6433 171.531C63.6546 170.736 63.8753 169.897 63.9738 169.101C64.089 168.171 64.107 167.241 64.1255 166.305C64.1322 165.961 64.2097 165.588 64.121 165.257C63.7902 163.193 63.499 161.168 63.045 159.125C62.7445 157.771 62.3163 156.445 62.0343 155.09C61.3781 153.132 60.6919 151.159 60.0632 149.197C60.6421 149.871 62.3751 154.062 62.5708 154.948C63.5605 157.165 64.2478 159.679 64.7488 162.059C64.8917 162.738 65.0493 164.835 65.3523 165.306L65.5531 165.373C65.7351 165.086 65.624 164.721 65.5525 164.401C65.3075 163.307 65.1216 162.203 64.9064 161.103C65.4482 162.332 65.9228 164.207 66.8284 165.176L67.006 165.196L67.0648 165.073C66.489 163.715 65.8234 162.406 65.2908 161.027C64.7747 159.691 64.3794 158.319 63.8909 156.974C63.382 155.574 62.7816 154.204 62.19 152.837C61.6788 151.656 61.1716 150.466 60.595 149.315C59.7876 147.703 58.9036 146.165 58.1933 144.503C56.1568 139.739 55.0003 135.158 54.0113 130.106C53.3956 126.962 52.87 123.76 52.7236 120.554C53.7804 122.911 55.031 125.206 56.1958 127.512C59.8171 134.678 63.2825 141.422 65.4896 149.201C66.857 154.021 66.1952 159.196 67.7077 163.989C67.8236 164.356 67.9433 164.86 68.2615 165.093C68.4681 165.034 68.4689 165.012 68.5659 164.827C68.8335 164.315 68.8663 163.631 68.9284 163.065C68.89 162.532 68.8646 161.998 68.8339 161.465C68.6404 160.247 68.5568 158.997 68.4673 157.768L68.62 157.126L68.6363 157.224C68.6847 157.501 68.7351 157.692 68.8771 157.935C69.0564 158.63 69.0575 159.431 69.096 160.149C69.1511 161.326 69.2921 162.572 69.2322 163.745C69.2622 164.165 69.2257 164.682 69.4867 165.02C69.7286 164.987 69.7298 165.035 69.8954 164.835C69.5115 163.752 69.5839 162.548 69.5376 161.412C69.4501 159.261 69.3372 157.039 68.6263 154.988C68.0101 153.212 66.8353 151.724 66.1673 150.001C65.9775 149.511 65.8659 148.984 65.7095 148.482C65.2488 147.005 64.7413 145.51 64.2304 144.049C63.0529 140.755 61.6866 137.542 60.1314 134.41C58.4803 131.091 56.8068 127.785 55.1107 124.489C54.3312 122.945 53.305 121.259 52.7886 119.612C52.573 118.925 52.5603 118.158 52.4275 117.448C52.1902 116.18 51.6699 114.721 51.7005 113.435C51.7189 112.66 51.9941 111.875 52.0394 111.091C52.0411 111.059 52.0423 111.027 52.0437 110.995C52.1427 110.85 52.1786 110.725 52.2324 110.56C52.6724 111.295 52.9423 112.302 53.2699 113.112C54.1081 115.185 54.9365 117.27 55.8456 119.313L64.2097 138.491C65.8144 142.075 67.5009 145.59 68.9587 149.241C69.4954 150.585 70.07 151.943 70.4693 153.335C71.2763 156.151 71.3421 158.717 70.8058 161.573C70.6118 162.605 70.3306 163.648 70.2429 164.696C70.2296 164.854 70.2159 164.782 70.3058 164.926C70.8919 164.444 71.0636 162.295 71.199 161.501C71.3609 162.365 71.4667 164.04 71.9831 164.725L72.0995 164.712C72.2118 164.442 71.7857 162.259 71.747 161.815C71.5783 159.875 71.7064 157.931 71.424 156C70.7671 151.507 68.512 147.306 66.8566 143.114C67.4989 139.16 68.0756 135.197 68.5868 131.224C69.2322 126.528 69.9361 121.844 70.2781 117.113C70.8663 108.975 70.4751 100.524 69.405 92.4457C68.7384 87.4137 67.4781 82.5365 66.6179 77.5502C66.6636 77.0285 66.5538 76.5506 66.4525 76.043Z" fill="#C6EBE9"/>
<path d="M79.0194 140.852C79.205 141.104 79.2942 141.144 79.2419 141.464C79.1165 142.232 78.7239 143.093 78.4923 143.846C78.1431 144.981 77.8706 146.148 77.6237 147.309C76.7966 151.202 76.3399 156.233 76.0233 160.241C75.9886 160.679 75.9165 164.123 75.8034 164.296C75.7745 164.34 75.712 164.349 75.6663 164.376L75.7368 164.5L75.7995 164.267L75.6661 164.409C75.03 162.101 76.6917 149.758 77.2985 146.929C77.712 145.002 78.3892 143.211 78.9005 141.322L79.0194 140.852Z" fill="black"/>
<path d="M75.1797 171.251C75.5492 170.79 79.5133 169.142 80.3666 168.655C81.5092 168.004 82.4693 167.05 83.5992 166.367L83.7104 166.301C83.3309 168.384 83.0918 170.689 83.19 172.808C83.2064 173.162 83.3242 173.663 83.2191 173.99C80.476 173.407 77.8037 172.232 75.1797 171.251Z" fill="#EFEEF7"/>
<path d="M132.018 146.816C133.903 147.256 135.828 147.451 137.727 147.809C139.051 148.059 140.669 148.659 141.974 148.647C143.276 151.296 144.003 153.602 144.426 156.527L145.626 160.672C144.918 159.496 144.219 158.306 143.453 157.167C143.09 156.695 142.207 155.301 141.631 155.222L141.523 155.371C141.572 155.601 143.163 157.372 143.444 157.779C144.767 159.692 146.073 161.774 146.934 163.94C144.065 162.457 141.541 159.963 139.144 157.811C138.392 157.135 137.637 156.336 136.799 155.77C137.269 156.933 138.086 157.954 138.769 159.003C140.69 161.952 142.476 164.837 145.164 167.175C142.381 166.196 138.998 165.134 136.523 163.554C135.53 162.92 134.843 161.919 133.855 161.323C134.173 162.073 134.692 162.732 135.168 163.388C137.128 166.087 139.351 168.163 142.431 169.546C141.179 169.389 139.803 169.139 138.567 169.491C138.633 169.539 138.686 169.613 138.764 169.637C139.027 169.716 139.545 169.663 139.832 169.676C141.954 169.765 144.051 170.253 146.163 170.308C147.159 170.338 148.15 170.282 149.137 170.139C150.588 169.929 151.516 169.642 152.532 168.536L152.61 168.678C152.627 168.788 152.632 168.865 152.689 168.962L152.724 169.042L152.586 169.31C152.523 169.296 152.459 169.282 152.396 169.267C152.206 169.22 152.235 169.19 152.039 169.265L151.987 169.418L152.048 169.296L152.104 169.481L152.292 169.503L152.304 169.622L152.108 169.703C151.904 170.264 152.297 171.47 152.427 172.054C150.123 172.521 147.828 172.995 145.551 173.587C143.129 174.216 140.698 174.994 138.216 175.345C135.715 175.699 133.147 175.998 130.622 176.061C128.901 176.103 127.188 175.917 125.472 176.123C122.419 176.491 119.54 177.675 116.414 177.378C113.96 177.145 111.55 176.463 109.122 176.054C106.773 175.659 104.399 175.506 102.066 174.995C99.7149 174.481 97.4996 173.639 95.0838 173.378C94.3704 173.301 93.6549 173.264 92.9373 173.267C92.2198 173.269 91.5046 173.312 90.7918 173.395C88.3475 173.682 85.676 174.45 83.2192 173.991C83.3243 173.664 83.2065 173.163 83.1901 172.809C83.0918 170.69 83.3309 168.385 83.7104 166.302L83.794 166.117C83.8303 166.11 83.8672 166.106 83.9026 166.096C85.2467 165.684 91.5491 160.188 92.0891 159.002C92.1623 158.842 92.0747 158.781 92.003 158.636C93.0239 157.173 98.767 154.501 100.662 153.654C101.663 153.206 102.898 152.842 103.78 152.196L104.856 152.813C104.081 153.253 103.592 153.746 103.107 154.48C101.981 154.979 100.579 155.349 99.5944 156.084L99.642 156.169C100.904 156.17 101.946 155.526 103.042 154.98C102.906 155.954 102.847 156.878 103.451 157.725C103.928 158.394 104.651 158.756 105.45 158.88C106.967 159.115 109.493 158.958 110.861 158.152C111.37 157.852 111.842 157.403 112.324 157.052C115.378 157.461 118.599 157.429 121.595 156.699C121.97 157.494 122.342 158.167 123.124 158.638C124.67 159.568 127.438 159.087 129.014 158.384C129.667 158.092 130.286 157.565 130.98 157.404C131.331 157.322 131.78 157.271 132.047 157.006C132.37 156.685 132.457 156.172 132.443 155.735C132.388 153.971 131.089 152.341 129.845 151.211C130.469 150.653 131.146 150.057 131.607 149.354C132.176 148.487 132.219 147.807 132.018 146.816Z" fill="#EAE9FE"/>
<path d="M122.49 87.9277L122.58 87.6875C124.987 89.4922 127.04 91.9727 128.289 94.7158C129.944 98.3518 129.617 104.421 135.322 103.606C137.181 103.34 138.924 102.478 140.06 100.948C140.564 100.27 140.85 99.5592 141.065 98.7473C143.494 106.105 146.712 113.223 148.732 120.713C149.3 122.821 149.744 125.002 150.122 127.152C150.33 128.329 150.471 129.55 150.741 130.713C150.797 130.951 150.844 131.137 151.001 131.325L151.235 131.368C151.171 132.322 150.737 134.985 151.155 135.755L151.091 135.514L151.239 135.442C151.506 133.478 151.483 131.493 151.57 129.517C151.606 128.705 151.761 127.903 151.819 127.092C151.995 124.645 152.063 122.286 152.573 119.867C152.609 119.697 152.651 119.222 152.775 119.117C152.9 120.037 152.583 122.025 152.528 123.052C152.363 126.099 152.241 129.138 151.999 132.181C151.833 134.27 151.566 136.35 151.386 138.438C151.021 142.685 151.048 146.875 150.374 151.102C149.432 151.059 148.51 150.773 147.609 150.516C147.215 148.173 146.683 145.854 146.297 143.513C145.798 140.482 145.403 137.463 144.604 134.489C143.098 128.89 139.761 123.591 135.778 119.412C132.25 115.71 128.266 112.757 122.939 112.653C119.536 112.586 116.181 113.845 113.212 115.418C112.404 115.846 111.512 116.314 110.847 116.951C111.241 117.196 111.627 117.442 112.004 117.712L111.855 117.811C111.618 117.692 111.398 117.57 111.174 117.427C110.036 118.472 108.83 119.578 107.851 120.771C103.77 125.744 102.174 132.285 100.104 138.233C98.6766 142.335 96.8809 146.561 94.7801 150.37C93.1559 153.314 91.3529 156.343 89.24 158.968C88.841 159.463 86.3582 162.028 86.2812 162.195C86.2488 162.264 86.2646 162.347 86.2562 162.424L86.5928 162.454C85.849 163.031 85.0107 163.521 84.2215 164.036C85.5471 160.657 86.4676 157.18 88.0645 153.901C88.4469 153.115 90.3285 150.732 90.376 150.326L90.2127 150.256C89.4721 150.534 88.7098 151.398 88.1314 151.93C84.2377 155.514 82.0336 158.883 79.7656 163.609C80.1369 161.343 80.5732 159.068 81.1855 156.854C82.6271 151.639 84.727 146.51 86.9031 141.565C89.4611 135.752 92.2223 130.03 95.5256 124.6C96.2103 123.474 100.498 116.875 100.56 116.271L100.46 116.16C100.215 116.278 95.092 122.849 94.683 123.503C93.0687 124.107 91.8139 125.247 90.5961 126.432C91.1369 124.416 91.9389 122.46 92.6375 120.495C93.4314 118.262 94.1578 115.983 95.0576 113.792C95.5135 113.563 95.9504 113.316 96.3687 113.024C97.3057 112.369 98.3129 111.379 98.4795 110.202C98.6355 109.102 98.0342 108.246 97.4221 107.405C98.8756 103.52 102.996 99.0215 105.614 95.7863C105.221 99.1189 104.795 102.447 104.335 105.771C104.129 107.352 103.845 108.969 103.769 110.561C103.754 110.879 103.707 111.441 103.904 111.698C104.2 112.086 104.824 112.201 105.282 112.246C106.668 112.381 108.194 112.028 109.259 111.104C112.366 108.412 111.06 103.288 111.345 99.7035C111.563 96.9584 112.806 95.3856 114.836 93.6629C115.515 97.9773 113.948 102.488 115.85 106.62C116.729 108.53 118.181 110.316 120.224 111.022C120.315 111.053 120.406 111.082 120.498 111.108C120.59 111.134 120.683 111.158 120.776 111.18C120.869 111.202 120.963 111.221 121.057 111.239C121.151 111.256 121.246 111.271 121.341 111.284C121.435 111.297 121.531 111.308 121.626 111.316C121.721 111.324 121.817 111.33 121.912 111.334C122.008 111.338 122.104 111.339 122.2 111.339C122.295 111.338 122.391 111.335 122.487 111.329C122.582 111.324 122.677 111.317 122.773 111.307C122.868 111.297 122.963 111.285 123.058 111.271C123.152 111.256 123.246 111.239 123.34 111.221C123.434 111.202 123.527 111.181 123.62 111.157C123.713 111.134 123.805 111.108 123.897 111.081C123.989 111.053 124.08 111.023 124.17 110.991C124.26 110.959 124.349 110.925 124.438 110.888C124.527 110.852 124.614 110.814 124.701 110.773C125.946 110.181 127.085 109.206 127.519 107.858C128.583 104.554 125.659 101.456 124.23 98.7734C123.095 96.643 121.589 92.249 122.007 89.8693C122.102 89.3297 122.533 88.8787 122.67 88.3492C122.716 88.168 122.586 88.075 122.49 87.9277Z" fill="url(#paint1_linear_1_187363)"/>
<path d="M111.176 117.43C111.399 117.572 111.619 117.695 111.857 117.813L112.005 117.715C115.725 119.748 120.362 122.168 124.713 120.889C127.659 120.023 129.838 117.549 133.088 119.298C137.627 121.741 139.507 128.368 141.055 132.965C139.996 131.571 138.859 130.238 137.762 128.875C136.516 127.326 135.247 125.538 133.723 124.248C134.139 125.751 134.721 127.202 135.136 128.706C135.93 131.584 136.511 134.526 137.386 137.383C138.573 141.258 140.23 144.998 141.975 148.649C140.67 148.661 139.052 148.06 137.728 147.811C135.829 147.452 133.904 147.257 132.019 146.818C132.22 147.808 132.177 148.488 131.608 149.355C131.147 150.059 130.47 150.654 129.846 151.212C131.09 152.342 132.389 153.972 132.444 155.736C132.458 156.173 132.371 156.686 132.048 157.007C131.781 157.272 131.332 157.323 130.98 157.405C130.287 157.567 129.668 158.094 129.014 158.385C127.439 159.088 124.671 159.57 123.125 158.639C122.343 158.168 121.971 157.495 121.596 156.701C118.6 157.43 115.379 157.463 112.325 157.054C111.843 157.405 111.371 157.853 110.862 158.153C109.494 158.959 106.968 159.117 105.451 158.881C104.652 158.757 103.929 158.395 103.452 157.727C102.848 156.879 102.907 155.955 103.043 154.982C101.947 155.527 100.905 156.171 99.643 156.171L99.5953 156.086C100.58 155.35 101.982 154.981 103.108 154.482C103.593 153.747 104.082 153.255 104.857 152.814L103.781 152.197C102.899 152.843 101.664 153.207 100.663 153.655C98.768 154.502 93.0248 157.174 92.0039 158.637C90.0746 159.641 88.4105 161.253 86.5943 162.457L86.2578 162.427C86.2662 162.35 86.2504 162.267 86.2828 162.197C86.3598 162.03 88.8426 159.466 89.2416 158.971C91.3545 156.346 93.1574 153.317 94.7816 150.372C96.8824 146.563 98.6781 142.338 100.106 138.235C102.175 132.288 103.771 125.747 107.852 120.774C108.832 119.58 110.037 118.475 111.176 117.43Z" fill="url(#paint2_linear_1_187363)"/>
<path d="M104.742 144.388C104.414 141.827 104.226 138.597 105.463 136.245C106.029 135.168 106.971 134.239 108.159 133.893C108.989 133.651 109.825 133.742 110.572 134.181C111.539 134.749 112.179 135.725 112.472 136.79C115.225 136.541 118.032 136.206 120.786 136.603C121.151 135.881 121.578 135.228 122.216 134.718C122.262 134.681 122.309 134.645 122.356 134.61C122.404 134.576 122.452 134.542 122.502 134.51C122.551 134.477 122.601 134.446 122.652 134.417C122.703 134.387 122.755 134.359 122.807 134.332C122.86 134.305 122.913 134.279 122.966 134.255C123.02 134.23 123.074 134.207 123.129 134.186C123.184 134.164 123.24 134.144 123.296 134.125C123.351 134.107 123.408 134.09 123.465 134.074C123.521 134.058 123.579 134.044 123.636 134.031C123.694 134.018 123.752 134.006 123.81 133.996C123.868 133.987 123.926 133.978 123.985 133.971C124.043 133.964 124.102 133.959 124.161 133.955C124.22 133.951 124.279 133.949 124.338 133.948C124.396 133.947 124.455 133.948 124.514 133.95C124.573 133.952 124.632 133.956 124.691 133.961C124.75 133.966 124.808 133.973 124.867 133.981C125.818 134.114 126.559 134.677 127.125 135.431C128.944 137.854 129.178 141.414 128.779 144.308C128.84 144.325 128.902 144.341 128.962 144.359C130.389 144.774 131.318 145.507 132.017 146.814C132.218 147.805 132.176 148.485 131.607 149.352C131.145 150.055 130.468 150.651 129.845 151.209C131.088 152.339 132.387 153.969 132.443 155.733C132.457 156.17 132.369 156.683 132.046 157.004C131.779 157.269 131.33 157.32 130.979 157.402C130.286 157.563 129.666 158.09 129.013 158.382C127.437 159.085 124.669 159.566 123.124 158.636C122.342 158.165 121.97 157.492 121.594 156.697C118.599 157.427 115.378 157.459 112.323 157.05C111.841 157.401 111.369 157.85 110.86 158.15C109.493 158.956 106.967 159.113 105.449 158.878C104.65 158.754 103.927 158.392 103.451 157.723C102.846 156.876 102.905 155.952 103.041 154.979C101.946 155.524 100.903 156.168 99.6414 156.167L99.5938 156.082C100.578 155.347 101.98 154.978 103.107 154.478C103.592 153.744 104.081 153.251 104.855 152.811L103.779 152.194C102.588 151.362 101.53 150.378 101.281 148.867C101.117 147.868 101.269 146.783 101.894 145.963C102.577 145.068 103.647 144.55 104.742 144.388Z" fill="black"/>
<path d="M111.032 156.684C111.282 156.75 111.495 156.796 111.702 156.962C111.629 157.213 111.309 157.399 111.103 157.566C110.939 157.681 110.831 157.746 110.634 157.785C110.586 157.474 110.899 156.982 111.032 156.684Z" fill="#C6EBE9"/>
<path d="M123.63 155.863C123.78 156.009 123.347 157.358 124.119 158.445C124.139 158.474 124.16 158.503 124.181 158.532L124.069 158.602C123.748 158.536 123.492 158.406 123.202 158.259C122.674 157.763 122.305 157.242 121.961 156.612C122.529 156.385 123.078 156.125 123.63 155.863Z" fill="#B3E3DF"/>
<path d="M108.858 155.664C109.457 155.983 110.04 156.326 110.624 156.672C110.444 157.242 110.254 157.664 109.851 158.113C109.418 158.264 108.968 158.377 108.527 158.503C108.614 158.386 108.702 158.27 108.776 158.143C109.254 157.322 109.065 156.528 108.858 155.664Z" fill="#B3E3DF"/>
<path d="M129.368 151.535C129.43 151.541 129.495 151.535 129.555 151.553C130.428 151.82 131.617 153.951 131.871 154.791C132.024 155.298 132.145 156.051 131.826 156.526C131.542 156.95 131.155 156.979 130.692 157.079C130.612 156.649 130.661 156.217 130.546 155.789C130.166 154.365 129.223 153.276 127.961 152.549L129.368 151.535Z" fill="#C6EBE9"/>
<path d="M128.776 144.672C129.707 144.996 130.707 145.454 131.293 146.283C131.338 146.346 131.38 146.411 131.419 146.478C131.457 146.545 131.493 146.614 131.524 146.684C131.556 146.755 131.584 146.827 131.609 146.9C131.633 146.974 131.654 147.048 131.672 147.124C131.689 147.199 131.702 147.275 131.712 147.352C131.722 147.429 131.728 147.506 131.73 147.583C131.732 147.661 131.73 147.738 131.724 147.815C131.719 147.892 131.709 147.969 131.696 148.045C131.37 149.915 129.043 151.343 127.615 152.354L125.867 153.484C127.353 150.788 128.171 147.671 128.776 144.672Z" fill="#C6EBE9"/>
<path d="M105.241 153.012C105.963 153.282 106.687 153.522 107.425 153.747C107.984 154.665 108.624 155.658 108.712 156.757C108.75 157.224 108.679 157.696 108.349 158.05C107.871 158.565 107.279 158.517 106.634 158.536C106.214 158.559 105.738 158.556 105.327 158.468C104.646 158.321 104.022 157.949 103.648 157.352C103.283 156.769 103.202 156.041 103.354 155.378C103.601 154.303 104.35 153.587 105.241 153.012Z" fill="#C6EBE9"/>
<path d="M104.701 144.738C105.024 145.113 105.214 147.082 105.371 147.709C105.849 149.622 106.6 151.487 107.285 153.334C106.585 153.09 105.902 152.836 105.226 152.532C103.86 151.831 102.364 150.913 101.817 149.391C101.512 148.543 101.516 147.511 101.925 146.697C102.489 145.578 103.587 145.124 104.701 144.738Z" fill="#C6EBE9"/>
<path d="M127.643 152.809C127.803 152.809 127.874 152.827 128.013 152.915C128.915 153.483 130.071 154.978 130.251 156.021C130.326 156.455 130.264 156.888 129.999 157.248C129.288 158.212 127.644 158.438 126.54 158.586C126.11 158.622 125.643 158.688 125.214 158.625C124.833 158.569 124.524 158.386 124.311 158.062C123.99 157.573 123.876 156.903 123.996 156.333C124.35 154.662 126.308 153.626 127.643 152.809Z" fill="#C6EBE9"/>
<path d="M108.438 134.198C108.772 134.177 109.128 134.141 109.459 134.2C110.272 134.345 111.026 134.875 111.484 135.553C111.975 136.282 112.121 137.152 111.944 138.008C111.749 138.953 111.176 139.891 110.36 140.422C110.28 140.474 110.199 140.521 110.114 140.565C110.03 140.609 109.944 140.648 109.856 140.683C109.768 140.718 109.678 140.748 109.586 140.774C109.495 140.799 109.403 140.82 109.31 140.837C109.216 140.853 109.122 140.864 109.027 140.871C108.933 140.878 108.838 140.879 108.743 140.876C108.649 140.873 108.554 140.865 108.46 140.853C108.366 140.84 108.273 140.823 108.181 140.801C107.535 140.65 106.915 140.27 106.578 139.687C106.265 139.145 106.225 138.523 106.388 137.925C106.588 137.196 107.198 136.301 107.869 135.931C108.319 135.684 108.852 135.667 109.329 135.842C109.883 136.045 110.35 136.509 110.575 137.051C110.769 137.519 110.783 138.048 110.581 138.515C110.4 138.932 110.078 139.193 109.653 139.332C109.196 139.481 108.588 139.555 108.155 139.296C107.195 138.723 107.949 138.17 107.785 137.459L107.607 137.521C107.493 137.67 107.378 137.812 107.308 137.987C107.166 138.342 107.165 138.731 107.33 139.079C107.496 139.427 107.819 139.658 108.178 139.782C108.78 139.988 109.486 139.888 110.05 139.613C110.108 139.584 110.164 139.552 110.219 139.518C110.274 139.484 110.327 139.447 110.379 139.407C110.43 139.367 110.479 139.325 110.526 139.28C110.573 139.235 110.617 139.188 110.659 139.139C110.701 139.089 110.741 139.038 110.778 138.985C110.815 138.931 110.849 138.876 110.88 138.82C110.911 138.763 110.939 138.704 110.965 138.645C110.99 138.585 111.012 138.524 111.031 138.462C111.214 137.881 111.122 137.253 110.831 136.724C110.491 136.106 109.936 135.582 109.238 135.412C108.608 135.257 107.962 135.407 107.429 135.767C106.668 136.282 106.108 137.199 105.95 138.1C105.935 138.192 105.923 138.285 105.917 138.378C105.911 138.471 105.909 138.564 105.912 138.657C105.915 138.751 105.922 138.843 105.934 138.936C105.947 139.028 105.963 139.12 105.985 139.211C106.006 139.302 106.032 139.391 106.063 139.48C106.093 139.568 106.128 139.654 106.167 139.739C106.206 139.824 106.249 139.906 106.297 139.987C106.344 140.067 106.396 140.145 106.451 140.22C106.869 140.79 107.475 141.131 108.169 141.238C109.125 141.385 110.074 141.118 110.834 140.527C111.933 139.674 112.321 138.516 112.485 137.195C113.852 137.019 115.223 136.909 116.6 136.864C117.976 136.82 119.352 136.842 120.726 136.929C120.606 137.567 120.57 138.229 120.708 138.867C120.88 139.666 121.519 140.447 122.199 140.879C122.28 140.93 122.364 140.977 122.45 141.019C122.536 141.062 122.624 141.1 122.714 141.134C122.804 141.168 122.896 141.198 122.988 141.223C123.081 141.248 123.175 141.268 123.27 141.284C123.365 141.3 123.46 141.311 123.556 141.317C123.652 141.324 123.748 141.325 123.844 141.322C123.94 141.319 124.036 141.311 124.131 141.299C124.226 141.286 124.321 141.269 124.415 141.247C125.099 141.09 125.669 140.664 126.037 140.069C126.533 139.267 126.64 138.272 126.388 137.369C126.189 136.655 125.755 135.976 125.089 135.617C124.413 135.253 123.724 135.293 123.014 135.521L122.928 135.576C122.308 135.981 121.847 136.499 121.715 137.25C121.601 137.899 121.675 138.621 122.072 139.165C122.111 139.218 122.153 139.269 122.198 139.318C122.242 139.367 122.289 139.414 122.338 139.458C122.387 139.502 122.439 139.543 122.492 139.582C122.546 139.621 122.601 139.658 122.658 139.691C122.715 139.725 122.774 139.755 122.834 139.782C122.894 139.81 122.955 139.835 123.018 139.856C123.081 139.877 123.144 139.895 123.208 139.91C123.273 139.925 123.338 139.937 123.403 139.945C123.85 140.007 124.35 139.926 124.71 139.64C124.971 139.433 125.127 139.142 125.159 138.811C125.213 138.253 124.921 137.576 124.558 137.168C124.436 137.439 124.64 138.141 124.684 138.475C124.712 138.684 124.766 139.05 124.609 139.22C124.381 139.468 123.966 139.645 123.627 139.629C123.237 139.611 122.898 139.425 122.633 139.144C122.224 138.709 122.049 138.119 122.089 137.53C122.124 137.003 122.345 136.496 122.755 136.153C122.805 136.112 122.857 136.073 122.91 136.036C122.964 136 123.019 135.966 123.076 135.935C123.133 135.905 123.191 135.877 123.251 135.851C123.31 135.826 123.371 135.804 123.433 135.785C123.495 135.766 123.557 135.751 123.621 135.738C123.684 135.725 123.748 135.716 123.813 135.709C123.877 135.703 123.942 135.7 124.007 135.7C124.071 135.7 124.136 135.704 124.2 135.71C124.707 135.765 125.258 136.1 125.564 136.503C126.038 137.126 126.23 138.049 126.095 138.816C125.977 139.486 125.592 140.195 125.021 140.583C124.522 140.922 123.913 141.013 123.326 140.898C122.568 140.749 121.905 140.263 121.492 139.617C121.434 139.526 121.381 139.433 121.333 139.338C121.284 139.242 121.241 139.144 121.202 139.044C121.164 138.944 121.131 138.842 121.102 138.738C121.074 138.635 121.051 138.53 121.033 138.424C121.015 138.319 121.003 138.212 120.996 138.105C120.989 137.998 120.987 137.891 120.99 137.784C120.994 137.677 121.003 137.57 121.017 137.464C121.032 137.357 121.051 137.252 121.076 137.148C121.307 136.165 122.037 135.226 122.898 134.708C123.556 134.313 124.321 134.193 125.062 134.406C126.163 134.723 126.941 135.685 127.45 136.666C128.091 137.899 129.007 141.138 128.531 142.428C128.366 142.873 127.999 143.132 127.569 143.298C126.743 143.617 125.73 143.657 124.855 143.7C122.231 143.83 119.57 143.652 116.94 143.662C114.261 143.672 111.497 143.937 108.835 143.649C107.48 143.502 106.223 143.146 104.987 142.578C104.835 140.736 104.846 138.537 105.611 136.816C106.193 135.506 107.121 134.7 108.438 134.198Z" fill="#C6EBE9"/>
<path d="M105.055 143.031C105.348 143.16 105.646 143.277 105.947 143.384C106.249 143.49 106.555 143.585 106.864 143.669C107.173 143.752 107.485 143.824 107.799 143.884C108.114 143.944 108.43 143.992 108.748 144.029C111.629 144.35 114.653 144.083 117.554 144.068C120.226 144.054 122.921 144.258 125.587 144.013C126.635 143.917 127.584 143.723 128.568 143.35C128.051 146.757 127.154 149.922 125.665 153.034C125.44 153.454 125.15 153.826 124.849 154.196C123.416 155.957 121.279 156.543 119.102 156.763C116.193 157.057 111.376 157.19 109.049 155.195C106.864 153.321 105.237 145.791 105.055 143.031Z" fill="#C6EBE9"/>
<path d="M120.567 145.992L120.812 146.026L120.863 146.183C120.766 146.274 120.757 146.29 120.624 146.367C120.284 146.566 119.802 146.688 119.427 146.807C116.953 147.587 114.296 147.383 111.85 146.601C111.671 146.496 111.571 146.442 111.477 146.252C111.65 146.123 111.708 146.168 111.912 146.206C112.56 146.327 113.179 146.601 113.83 146.721C116.229 147.164 118.301 146.758 120.567 145.992Z" fill="black"/>
<path d="M159.635 164.128C161.098 162.4 162.525 160.441 163.632 158.467C164.23 157.401 164.732 156.278 165.3 155.195C165.467 155.564 165.654 155.91 165.89 156.239C166.97 157.746 168.706 158.918 170.56 159.174C172.249 159.408 173.531 158.762 174.824 157.766C177.023 159.414 179.076 160.849 179.497 163.779C179.982 167.157 178.366 170.862 176.362 173.493C175.077 175.18 173.507 176.631 171.895 178.001C163.812 184.87 153.615 187.815 143.451 190.048C139.886 190.831 136.272 191.622 132.65 192.089C120.649 193.636 109.413 193.506 98.1463 188.698C95.3701 187.513 92.7326 186.232 90.3268 184.379C87.4541 182.167 84.9356 179.145 83.7582 175.678C83.61 175.241 83.5506 174.802 83.4336 174.359C87.3055 174.718 91.0022 173.331 94.9061 173.737C97.2369 173.98 99.3867 174.763 101.654 175.272C104.031 175.805 106.443 175.977 108.841 176.366C111.965 176.873 115.014 177.829 118.206 177.754C120.634 177.697 122.926 176.791 125.327 176.514C127.308 176.285 129.309 176.403 131.3 176.36C133.663 176.308 136.1 176.062 138.429 175.682C140.731 175.307 142.993 174.612 145.248 174.026C148.688 173.131 152.288 172.272 155.815 171.803C158.459 171.452 161.022 172.49 163.652 172.546C165.361 172.582 167.055 172.198 168.752 172.045C170.104 171.922 171.478 172.003 172.835 171.935C171.535 171.68 170.232 171.882 168.926 171.762C168.097 171.685 167.268 171.46 166.445 171.326C165.26 171.134 164.06 171.028 162.867 170.905C163.778 170.621 164.715 170.412 165.607 170.072C167.834 169.224 169.873 167.643 171.698 166.133C170.23 166.413 168.813 166.918 167.346 167.197C164.655 167.709 161.863 167.681 159.138 167.591C160.166 166.938 161.154 166.189 162.121 165.449C162.891 164.858 167.212 161.417 167.293 160.807C166.504 160.613 160.726 163.498 159.635 164.128Z" fill="#EAE9FE"/>
<path d="M15.9578 104.431C16.1742 103.248 16.7299 102.029 17.0951 100.871C18.8137 95.4215 20.5363 89.8338 23.9285 85.165C28.7336 78.5518 35.3943 74.8822 43.3783 73.5938C43.4248 76.8721 43.4281 80.1594 43.6486 83.432C43.81 85.8279 44.2078 88.2701 44.2631 90.665C43.6026 89.4129 42.3608 86.0607 41.358 85.2865L41.2305 85.3098C41.1012 86.5 41.819 88.8498 42.0942 90.0932C42.7283 92.9578 43.3082 95.8131 44.0733 98.6494C44.7318 101 45.4613 103.328 46.2617 105.634C47.0623 107.94 47.9322 110.219 48.8715 112.472C49.5418 114.089 50.3465 115.671 51.1 117.251C51.516 118.122 52.0231 119.019 52.2637 119.957C52.4869 120.829 52.4707 121.842 52.5504 122.738C52.6617 123.989 52.8174 125.248 53.0031 126.491C53.6268 130.665 54.6346 134.771 55.7182 138.842L56.8445 141.858C56.3113 141.108 55.6838 140.195 55.3111 139.358L55.2213 139.251C54.1961 138.019 53.3268 136.538 52.3938 135.224C50.8973 133.146 49.3499 131.107 47.7518 129.106C45.3484 126.073 33.5225 113.329 30.1725 112.85L29.9779 112.933C29.9606 113.192 30.0381 113.304 30.2078 113.493C30.6906 114.03 31.3074 114.446 31.8229 114.952C33.2348 116.313 34.5531 117.759 35.7777 119.29C40.6664 125.469 44.3006 132.441 48.1897 139.254C50.6524 143.567 53.3731 147.858 55.4217 152.384C45.8059 142.27 32.8688 133.148 19.7555 128.246C18.1762 127.655 15.0867 126.402 13.4987 126.392C13.3256 126.391 13.2465 126.401 13.1017 126.488L13.0867 126.651C13.8548 127.263 15.5897 127.788 16.5747 128.258C18.1374 129.01 19.6734 129.813 21.1826 130.668C30.2838 135.725 38.5738 141.898 45.1486 150.035C48.2459 153.868 50.9533 158.138 53.3641 162.428C54.0182 163.58 54.6478 164.746 55.2527 165.925C55.994 167.385 56.5381 168.995 57.6746 170.209C59.3281 171.977 61.791 172.101 64.0436 171.841C67.5211 171.441 70.8533 170.775 74.3692 171.429C74.3572 171.439 74.3449 171.448 74.3336 171.458C73.2859 172.386 68.1799 172.227 66.5738 172.308C65.4875 172.364 64.4018 172.488 63.319 172.59C62.8531 173.928 62.4082 175.296 61.675 176.516C60.2672 178.859 57.152 180.785 54.7736 181.985C49.4057 184.692 43.0377 185.552 37.2684 183.638C27.4481 180.379 20.6885 171.118 16.2712 162.207C13.176 155.963 10.4676 147.729 10.181 140.734C10.0365 137.207 10.3511 133.647 10.604 130.132C10.9479 125.354 11.501 120.192 12.5703 115.523C13.4294 111.771 14.6522 108.153 15.8864 104.515L15.9578 104.431Z" fill="#9FCEC7"/>
<path d="M92.1643 29.2023C93.2607 28.3526 94.5482 27.7234 95.7377 27.0124C97.1976 26.1202 98.6797 25.2668 100.184 24.4521C101.689 23.6374 103.213 22.8625 104.758 22.1275C106.303 21.3923 107.866 20.698 109.447 20.0446C111.029 19.3913 112.626 18.7797 114.239 18.2098C116.11 17.5602 117.994 16.9534 119.892 16.3894C120.733 16.1348 121.697 15.345 122.5 15.0005H123.5C124.487 14.9732 125.146 15.1308 126.116 14.9371C127.42 14.6769 128.719 14.4669 130.046 14.3581C138.495 13.6649 149.517 15.2548 155.9 21.2661C157.897 23.1468 159.418 25.2767 159.483 28.1099C159.504 29.0286 159.212 34.3025 158.89 34.8179C158.384 33.8331 157.757 33.0724 156.664 32.7105C155.839 32.4374 154.975 32.5253 154.217 32.9482C153.117 33.5626 152.514 34.6857 152.214 35.8702C151.441 38.929 151.888 42.2359 152.071 45.3323C151.783 45.6017 152.561 47.8704 152.486 48.5151L152.381 48.2692L152.501 48.2265L152.489 48.0948L152.341 48.1218C152.112 47.1941 151.896 45.9482 151.463 45.1095L151.338 45.1234C149.83 41.73 148.978 35.9829 145.063 34.4886C144.262 34.1829 143.377 34.1388 142.586 34.5025C141.852 34.84 141.342 35.4624 141.069 36.2142C140.434 37.9638 141.287 39.9544 142.065 41.5181C143.613 44.6282 145.848 47.0155 148.014 49.67L147.832 49.7366C148.179 50.2472 149.029 50.636 149.265 51.1704C148.931 51.0011 148.628 50.7806 148.258 50.6982L148.156 50.8325C144.225 49.122 138.441 46.5068 134.2 48.1718C133.031 48.6308 132.049 49.4579 131.536 50.6222C131.259 51.2505 131.138 51.9507 131.397 52.6069C131.755 53.5157 132.733 54.0722 133.598 54.4222C137.326 55.9304 143.891 55.5277 147.892 55.2066C148.881 55.1273 150.814 54.7472 151.737 54.9603L151.74 55.113L151.689 55.4179C150.492 55.5417 149.293 55.528 148.092 55.6798C144.898 56.0835 138.152 57.4882 136.107 59.9521C135.612 60.5482 135.322 61.2853 135.411 62.0667C135.493 62.7913 135.857 63.5118 136.452 63.946C137.239 64.5208 138.329 64.5146 139.245 64.3378C142.792 63.654 146.983 60.6222 150.053 58.7179C148.973 59.621 147.505 61.1589 146.758 62.3526L146.758 62.5261C147.125 62.3948 149.786 59.4675 150.472 58.8487C150.769 58.7944 150.977 58.6448 151.144 58.3802C151.515 57.7927 151.66 56.947 152.316 56.6015C152.591 56.6042 152.832 56.7353 153.037 56.9151C153.231 57.0855 153.302 57.27 153.308 57.5275C153.32 58.0671 152.502 59.6441 152.415 60.3671L152.499 60.4743C151.412 64.0003 150.133 67.279 146.925 69.3767C145.793 68.9755 144.662 68.6034 143.5 68.2995C142.55 68.0513 141.024 67.8345 140.195 67.4275C139.829 67.2482 139.487 66.846 139.203 66.5589L139.07 66.6245L139.133 67.0325C138.501 67.2503 137.764 67.1152 137.104 67.3066C134.046 68.1931 129.775 70.1495 127.281 72.1316C127.076 70.3034 126.963 68.4939 126.89 66.6562C126.746 63.0616 126.739 60.0583 123.697 57.6142C122.374 56.5513 120.001 55.2425 118.255 55.4798C117.663 55.5603 117.083 55.8331 116.715 56.3159C116.397 56.7327 116.296 57.247 116.383 57.7589C116.461 58.2191 116.669 58.6472 116.939 59.0245C118.072 60.6056 119.638 61.8325 120.846 63.6114C121.745 64.9368 122.311 66.3034 122.726 67.8442C119.418 66.8833 118.455 64.2675 116.191 61.9726C112.939 58.6778 108.112 56.2296 103.654 58.7136C102.682 59.2548 101.426 60.2694 101.129 61.3714C101.011 61.8107 101.082 62.2753 101.309 62.6679C103.127 65.8069 112.632 66.2198 114.249 71.1435C114.422 71.6694 114.57 72.3818 114.448 72.9327C114.347 73.3937 114.021 73.8558 113.621 74.1028C112.417 74.846 110.525 74.6714 109.21 74.3097C104.425 72.9937 101.632 67.9302 96.3332 68.2608C95.999 68.2816 95.667 68.3209 95.3373 68.3788C95.0075 68.4369 94.682 68.5132 94.3607 68.6077C94.0396 68.7023 93.7247 68.8145 93.416 68.9444C93.1074 69.0743 92.8071 69.221 92.515 69.3847C90.4588 70.536 88.4842 72.665 87.8404 74.9714C87.6666 75.5939 87.5762 76.4032 87.8982 76.9989C88.0258 77.2351 88.1594 77.3286 88.4176 77.3899C89.3057 77.6013 92.3189 76.9011 93.3029 76.7423C103.527 75.0941 107.977 77.2353 115.917 83.1253C111.618 88.2853 107.1 93.2144 102.923 98.4794C100.776 101.186 98.45 103.991 97.0092 107.162C96.79 106.947 96.6693 106.761 96.3666 106.691C95.627 107.45 93.5945 112.022 92.8383 113.344C92.515 113.077 92.1797 112.814 91.9523 112.455C91.0711 111.064 90.56 107.885 90.3908 106.214C90.276 105.079 90.4498 104.17 91.1992 103.276C93.2238 100.862 101.002 97.6993 101.613 94.9888C101.53 94.7482 101.527 94.6983 101.273 94.5939C99.0137 93.6632 90.4887 97.789 89.0469 97.2177C88.8885 97.1548 88.749 96.9925 88.6641 96.8521C88.1373 95.9808 88.6279 93.8956 88.9481 92.9884C88.993 92.8613 89.0404 92.7352 89.0904 92.6101C92.3701 92.0163 95.7086 92.3359 98.7557 91.7503C100.653 91.3855 102.812 90.2189 104.765 89.6456C105.726 89.3634 106.856 89.4931 107.754 89.1173L107.84 88.9681C107.306 88.014 103.986 86.8321 102.902 86.5263C99.9131 85.6825 97.5988 86.1081 94.9205 87.6148C93.335 88.5066 91.7941 89.5232 90.3254 90.5958C90.8859 89.5216 92.4123 86.5185 92.3041 85.413C92.0533 85.4546 91.9354 85.6497 91.783 85.848C90.8303 87.0888 90.1471 88.6355 89.5141 90.0575C89.2426 90.6673 89.0061 91.4114 88.6031 91.9413C88.1791 91.9626 87.8746 91.7253 87.5695 91.4419C86.8523 90.7753 86.601 89.5058 86.5869 88.5691C86.5588 86.6798 87.6258 84.556 88.9522 83.2425C90.3147 81.8933 91.9859 81.5054 93.8455 81.5284C98.7469 81.5892 103.846 83.5876 108.689 82.3454C109.085 82.2441 109.681 82.1015 109.955 81.7841C110.113 81.6027 110.116 81.4439 110.056 81.2224C109.72 79.9882 106.263 78.2159 105.124 77.7402C103.904 77.2308 101.571 76.6614 100.273 76.9069C100.376 77.0976 100.62 77.1644 100.827 77.2175C101.474 77.3835 102.219 77.3696 102.887 77.505C105.663 78.0667 107.943 79.3526 109.824 81.4663C108.8 81.8808 107.793 82.1939 106.688 82.298C103.325 82.6148 99.6822 81.6542 96.3383 81.3015C91.8957 80.8329 88.6768 81.2874 86.7646 85.8296C86.1162 87.3698 85.9236 89.1724 86.5965 90.7417C87.0002 91.6833 87.6432 92.1648 88.5602 92.5444C86.6986 95.5966 85.2615 98.9064 83.8166 102.17C81.9131 106.391 80.1844 110.683 78.6307 115.045C76.627 120.766 75.0326 126.587 73.5467 132.46C73.1244 134.113 72.7261 135.772 72.3518 137.436C72.2148 138.02 71.9863 138.588 71.9508 139.19L71.8863 139.146L71.9273 139.262C71.9277 139.223 71.9275 139.184 71.9283 139.145C71.9477 138.171 72.1621 137.2 72.2496 136.228C72.5863 132.769 72.9542 129.314 73.3533 125.861C74.4168 116.252 75.3578 102.861 73.3533 93.446C72.515 89.5093 71.0115 85.5755 69.4998 81.8558C68.8174 80.1763 66.743 74.5108 65.7768 73.4349C65.7 73.3493 65.6182 73.2946 65.5225 73.2329L65.377 73.3071C65.3064 73.6331 65.3275 73.9282 65.3883 74.256C65.6773 75.8136 66.1373 77.3603 66.485 78.9083C67.1406 81.8292 67.715 84.7825 68.2732 87.7239C69.1357 92.2691 69.5326 96.8669 69.8266 101.478C70.1639 106.771 70.2625 112.167 69.8469 117.457C69.4682 122.277 68.7514 127.052 68.0703 131.835C67.7955 133.764 67.5855 135.703 67.3094 137.632C67.074 139.277 66.7414 140.917 66.5437 142.566C64.5545 138.353 62.7783 134.098 61.0262 129.784C60.4186 128.288 59.6559 126.814 59.1234 125.295C58.5096 123.543 58.0945 121.702 57.5326 119.929C56.2768 115.87 54.8345 111.879 53.2059 107.955C52.591 106.524 51.9515 105.104 51.2873 103.696C50.859 102.784 50.265 101.769 50.0123 100.791C49.6848 99.5233 49.8854 97.8191 49.8932 96.5015C49.9064 94.2273 49.9434 91.9157 49.7041 89.6511C49.4281 87.0386 48.8197 84.4849 48.2672 81.9212C47.6592 79.1337 47.0975 76.337 46.582 73.531L47.152 73.5228C47.326 73.4193 47.377 73.3753 47.4738 73.189C47.7002 72.753 47.815 72.2534 48.0264 71.8064C48.6166 70.5577 49.4643 69.2679 50.2486 68.1202C52.2439 65.2003 54.7768 62.464 57.2549 59.9489C57.265 59.786 57.2615 59.4845 57.3184 59.3384C57.592 58.6351 59.0283 57.7831 59.1557 57.1032C59.1871 56.9355 59.1445 56.678 59.1398 56.5013L59.2502 56.3859L59.3168 56.6909L59.4506 56.7128C60.3605 55.8566 61.2828 54.9409 62.107 54.0021C62.8279 53.2216 63.5125 52.4399 64.067 51.5296L64.4582 51.3612C65.3004 50.6526 66.1004 49.823 66.8326 49.0028L67.2557 48.5976C68.7326 46.8239 71.11 45.07 72.9148 43.6148C74.8553 42.0503 76.7471 40.4241 78.6746 38.8454C79.6076 38.0812 80.6984 37.4228 81.4869 36.5046L81.7752 36.2987C83.207 35.2528 84.6984 34.3114 86.1965 33.3648L86.5262 33.1204C87.5459 32.3927 88.4988 31.5735 89.527 30.8571C90.3361 30.2933 91.2096 29.8204 92.0025 29.2353L92.1643 29.2023Z" fill="#C6EBE9"/>
<path d="M124.229 53.4492L124.4 53.55C124.501 53.933 124.712 54.5855 124.605 54.9689C124.572 55.0871 124.468 55.1084 124.369 55.1658C124.127 54.6697 124.004 54.0246 124.082 53.4768L124.171 53.5096L124.229 53.4492Z" fill="#DAE0EA"/>
<path d="M122.566 52.8516C122.691 52.9213 122.821 53.0004 122.916 53.1107C123.203 53.4467 123.417 54.2076 123.419 54.6375L123.315 54.6301L123.219 54.7564C122.967 54.2957 122.44 53.3604 122.566 52.8516Z" fill="#DAE0EA"/>
<path d="M62.1061 54.0006C62.5051 54.2703 62.9785 54.7607 63.4162 54.9189C64.5602 54.4123 65.5863 53.6148 66.6986 53.0305C68.2279 52.227 69.8195 51.434 71.4299 50.8084C71.9564 50.6039 72.5092 50.4922 73.0402 50.2904C73.8852 49.9691 74.8545 49.4758 75.7557 49.4102L75.8857 49.4787L75.8223 49.5834C71.6799 50.4119 65.6402 53.3582 62.2684 55.8463C60.5346 57.1256 59.0033 58.71 57.2539 59.9475C57.2641 59.7846 57.2605 59.483 57.3174 59.3369C57.591 58.6336 59.0273 57.7816 59.1547 57.1018C59.1861 56.934 59.1436 56.6766 59.1389 56.4998L59.2492 56.3844L59.3158 56.6895L59.4496 56.7113C60.3596 55.8551 61.2818 54.9395 62.1061 54.0006Z" fill="#C6EBE9"/>
<path d="M46.582 73.5316L47.152 73.5234C47.648 73.5281 48.1314 73.6885 48.6066 73.8201C51.4145 74.5973 54.0439 76.2053 56.0875 78.2721C59.2717 81.492 62.1742 86.251 62.1406 90.9006C62.1057 95.6951 58.2176 100.513 55.6482 104.367C54.9113 105.473 54.1156 107.044 53.2059 107.955C52.591 106.525 51.9515 105.105 51.2873 103.697C50.859 102.785 50.265 101.77 50.0123 100.792C49.6848 99.524 49.8854 97.8197 49.8932 96.5021C49.9064 94.2279 49.9434 91.9164 49.7041 89.6518C49.4281 87.0393 48.8197 84.4855 48.2672 81.9219C47.6592 79.1344 47.0975 76.3376 46.582 73.5316Z" fill="#9FCEC7"/>
<defs>
<linearGradient id="paint0_linear_1_187363" x1="50.5678" y1="111.371" x2="56.2491" y2="110.993" gradientUnits="userSpaceOnUse">
<stop stop-color="#ADDBC7"/>
<stop offset="1" stop-color="#C1E0F0"/>
</linearGradient>
<linearGradient id="paint1_linear_1_187363" x1="92.2112" y1="121.925" x2="152.845" y2="143.24" gradientUnits="userSpaceOnUse">
<stop stop-color="#B1E4E1"/>
<stop offset="1" stop-color="#F5EFED"/>
</linearGradient>
<linearGradient id="paint2_linear_1_187363" x1="98.7198" y1="128.622" x2="127.905" y2="160.845" gradientUnits="userSpaceOnUse">
<stop stop-color="#BCEAEB"/>
<stop offset="1" stop-color="#FCECEC"/>
</linearGradient>
</defs>
</svg>
