<svg width="150" height="44" viewBox="0 0 150 44" fill="none" xmlns="http://www.w3.org/2000/svg">
<path d="M144.444 0.881378C147.017 0.881378 149.11 2.9535 149.11 5.5V38.5C149.11 41.0465 147.017 43.1186 144.444 43.1186H5.55555C2.98333 43.1186 0.890277 41.0465 0.890277 38.5V5.5C0.890277 2.9535 2.98333 0.881378 5.55555 0.881378H144.444ZM144.444 3.8147e-06H5.55555C2.50139 3.8147e-06 0 2.47638 0 5.5V38.5C0 41.5236 2.50139 44 5.55555 44H144.444C147.499 44 150 41.5236 150 38.5V5.5C150 2.47638 147.499 3.8147e-06 144.444 3.8147e-06Z" fill="#747474"/>
<path d="M33.4108 21.7635C33.3785 18.2182 36.343 16.4934 36.4785 16.4131C34.7997 13.9898 32.1974 13.6587 31.283 13.6323C29.0974 13.4046 26.9774 14.927 25.8641 14.927C24.7285 14.927 23.0141 13.6543 21.1663 13.6917C18.7885 13.728 16.5641 15.0909 15.3441 17.2073C12.8263 21.5226 14.7041 27.8641 17.1163 31.3522C18.323 33.0605 19.733 34.9679 21.5785 34.9008C23.3841 34.8271 24.0585 33.7612 26.2374 33.7612C28.3963 33.7612 29.0297 34.9008 30.9119 34.8579C32.8497 34.8271 34.0697 33.1419 35.2341 31.4182C36.6285 29.4602 37.1885 27.5319 37.2108 27.4329C37.1652 27.4175 33.4474 26.0128 33.4108 21.7635Z" fill="#1C1C1E"/>
<path d="M29.8552 11.3377C30.8263 10.1354 31.4908 8.49974 31.3063 6.83984C29.9008 6.90144 28.143 7.80234 27.1308 8.97824C26.2352 10.0144 25.4352 11.7128 25.6419 13.31C27.2208 13.4266 28.8419 12.5213 29.8552 11.3377Z" fill="#1C1C1E"/>
<path d="M59.6005 34.6544H57.0772L55.695 30.3545H50.8905L49.5739 34.6544H47.1172L51.8772 20.0156H54.8172L59.6005 34.6544ZM55.2783 28.5505L54.0283 24.728C53.8961 24.3375 53.6483 23.4179 53.2827 21.9703H53.2383C53.0927 22.5929 52.8583 23.5125 52.5361 24.728L51.3083 28.5505H55.2783Z" fill="#1C1C1E"/>
<path d="M71.8264 29.2475C71.8264 31.0427 71.3364 32.4617 70.3564 33.5034C69.4786 34.4307 68.3886 34.8938 67.0875 34.8938C65.683 34.8938 64.6741 34.3944 64.0597 33.3956H64.0153V38.9561H61.6464V27.5744C61.6464 26.4458 61.6164 25.2875 61.5586 24.0995H63.6419L63.7741 25.7726H63.8186C64.6086 24.512 65.8075 23.8828 67.4164 23.8828C68.6741 23.8828 69.7241 24.3745 70.5641 25.359C71.4064 26.3446 71.8264 27.6404 71.8264 29.2475ZM69.413 29.3333C69.413 28.3059 69.1797 27.4589 68.7108 26.7923C68.1986 26.0971 67.5108 25.7495 66.6486 25.7495C66.0641 25.7495 65.533 25.9431 65.0586 26.3248C64.583 26.7098 64.2719 27.2125 64.1264 27.8351C64.053 28.1255 64.0164 28.3631 64.0164 28.5501V30.3101C64.0164 31.0779 64.2541 31.7258 64.7297 32.2549C65.2053 32.784 65.823 33.048 66.583 33.048C67.4753 33.048 68.1697 32.707 68.6664 32.0272C69.1641 31.3463 69.413 30.4487 69.413 29.3333Z" fill="#1C1C1E"/>
<path d="M84.1124 29.2475C84.1124 31.0427 83.6224 32.4617 82.6413 33.5034C81.7646 34.4307 80.6746 34.8938 79.3735 34.8938C77.969 34.8938 76.9601 34.3944 76.3468 33.3956H76.3024V38.9561H73.9335V27.5744C73.9335 26.4458 73.9035 25.2875 73.8457 24.0995H75.929L76.0613 25.7726H76.1057C76.8946 24.512 78.0935 23.8828 79.7035 23.8828C80.9602 23.8828 82.0102 24.3745 82.8524 25.359C83.6913 26.3446 84.1124 27.6404 84.1124 29.2475ZM81.699 29.3333C81.699 28.3059 81.4646 27.4589 80.9957 26.7923C80.4835 26.0971 79.7979 25.7495 78.9346 25.7495C78.349 25.7495 77.819 25.9431 77.3435 26.3248C76.8679 26.7098 76.5579 27.2125 76.4124 27.8351C76.3401 28.1255 76.3024 28.3631 76.3024 28.5501V30.3101C76.3024 31.0779 76.5401 31.7258 77.0135 32.2549C77.489 32.7829 78.1068 33.048 78.869 33.048C79.7613 33.048 80.4557 32.707 80.9524 32.0272C81.4502 31.3463 81.699 30.4487 81.699 29.3333Z" fill="#1C1C1E"/>
<path d="M97.8237 30.5489C97.8237 31.7941 97.3871 32.8072 96.5104 33.5893C95.5471 34.444 94.206 34.8708 92.4826 34.8708C90.8915 34.8708 89.6159 34.5672 88.6504 33.9589L89.1993 32.0042C90.2393 32.6268 91.3804 32.9392 92.6237 32.9392C93.5159 32.9392 94.2104 32.739 94.7093 32.3408C95.2059 31.9426 95.4537 31.408 95.4537 30.7414C95.4537 30.1474 95.2493 29.6469 94.8393 29.241C94.4315 28.8351 93.7504 28.4578 92.7993 28.1091C90.2104 27.1532 88.9171 25.7529 88.9171 23.9115C88.9171 22.7081 89.3704 21.7214 90.2782 20.9536C91.1826 20.1847 92.3893 19.8008 93.8982 19.8008C95.2437 19.8008 96.3615 20.0329 97.2537 20.496L96.6615 22.4078C95.8282 21.959 94.8859 21.7346 93.8315 21.7346C92.9982 21.7346 92.3471 21.9381 91.8804 22.3429C91.486 22.7048 91.2882 23.1459 91.2882 23.6684C91.2882 24.247 91.5137 24.7255 91.9671 25.1017C92.3615 25.4493 93.0782 25.8255 94.1182 26.2314C95.3904 26.7385 96.3248 27.3314 96.926 28.0112C97.5248 28.6888 97.8237 29.5369 97.8237 30.5489Z" fill="#1C1C1E"/>
<path d="M105.655 25.8588H103.044V30.9837C103.044 32.2872 103.504 32.9384 104.427 32.9384C104.85 32.9384 105.201 32.9021 105.479 32.8295L105.544 34.6105C105.078 34.7832 104.463 34.8701 103.702 34.8701C102.767 34.8701 102.035 34.5874 101.508 34.0231C100.982 33.4577 100.718 32.5095 100.718 31.1774V25.8567H99.1621V24.0966H100.718V22.1639L103.044 21.4688V24.0966H105.655V25.8588Z" fill="#1C1C1E"/>
<path d="M117.412 29.2893C117.412 30.9118 116.943 32.2439 116.008 33.2856C115.027 34.3581 113.724 34.8927 112.101 34.8927C110.537 34.8927 109.291 34.379 108.362 33.3516C107.433 32.3242 106.969 31.0273 106.969 29.4642C106.969 27.8285 107.447 26.4887 108.405 25.447C109.362 24.4042 110.653 23.8828 112.277 23.8828C113.841 23.8828 115.1 24.3965 116.05 25.425C116.959 26.4227 117.412 27.7108 117.412 29.2893ZM114.954 29.3652C114.954 28.3917 114.744 27.5568 114.319 26.8605C113.822 26.0179 113.112 25.5977 112.192 25.5977C111.24 25.5977 110.517 26.019 110.02 26.8605C109.594 27.5579 109.384 28.406 109.384 29.4092C109.384 30.3827 109.594 31.2176 110.02 31.9128C110.532 32.7554 111.248 33.1756 112.171 33.1756C113.075 33.1756 113.785 32.7466 114.298 31.8908C114.734 31.1813 114.954 30.3376 114.954 29.3652Z" fill="#1C1C1E"/>
<path d="M125.15 26.162C124.915 26.1191 124.665 26.0971 124.403 26.0971C123.57 26.0971 122.925 26.4084 122.472 27.0321C122.078 27.5821 121.88 28.2773 121.88 29.1166V34.6551H119.512L119.534 27.4237C119.534 26.2071 119.504 25.0994 119.445 24.1006H121.509L121.595 26.1202H121.661C121.911 25.4261 122.305 24.8673 122.845 24.4482C123.373 24.0709 123.943 23.8828 124.558 23.8828C124.776 23.8828 124.974 23.8982 125.15 23.9257V26.162Z" fill="#1C1C1E"/>
<path d="M135.727 28.8782C135.727 29.2984 135.7 29.6526 135.641 29.9419H128.534C128.562 30.9847 128.905 31.7822 129.565 32.3322C130.164 32.8239 130.939 33.0703 131.89 33.0703C132.942 33.0703 133.902 32.9042 134.765 32.5709L135.136 34.1989C134.127 34.6345 132.936 34.8512 131.562 34.8512C129.909 34.8512 128.611 34.3694 127.666 33.4069C126.724 32.4444 126.252 31.1519 126.252 29.5305C126.252 27.9388 126.691 26.6133 127.57 25.5562C128.49 24.4276 129.733 23.8633 131.298 23.8633C132.834 23.8633 133.997 24.4276 134.787 25.5562C135.413 26.4527 135.727 27.5615 135.727 28.8782ZM133.469 28.2699C133.484 27.5747 133.33 26.9741 133.009 26.467C132.599 25.8147 131.969 25.4891 131.121 25.4891C130.346 25.4891 129.716 25.807 129.235 26.445C128.841 26.9521 128.606 27.5604 128.534 28.2688H133.469V28.2699Z" fill="#1C1C1E"/>
<path d="M54.4496 11.0106C54.4496 12.3053 54.0574 13.2799 53.2741 13.9344C52.5485 14.5383 51.5174 14.8408 50.1819 14.8408C49.5196 14.8408 48.953 14.8122 48.4785 14.755V7.68085C49.0974 7.58185 49.7641 7.53125 50.4841 7.53125C51.7563 7.53125 52.7152 7.80515 53.3619 8.35295C54.0863 8.97225 54.4496 9.85775 54.4496 11.0106ZM53.2219 11.0425C53.2219 10.2032 52.9974 9.55965 52.5485 9.11085C52.0996 8.66315 51.4441 8.43875 50.5807 8.43875C50.2141 8.43875 49.9019 8.46295 49.643 8.51355V13.8915C49.7863 13.9135 50.0485 13.9234 50.4296 13.9234C51.3207 13.9234 52.0085 13.6781 52.493 13.1875C52.9774 12.6969 53.2219 11.9819 53.2219 11.0425Z" fill="#1C1C1E"/>
<path d="M60.9327 12.1398C60.9327 12.9373 60.7027 13.5907 60.2427 14.1033C59.7605 14.6302 59.1216 14.8931 58.3238 14.8931C57.555 14.8931 56.9427 14.6412 56.4861 14.1352C56.0305 13.6303 55.8027 12.9934 55.8027 12.2256C55.8027 11.4226 56.0372 10.7637 56.5083 10.2522C56.9794 9.74067 57.6127 9.48438 58.4105 9.48438C59.1794 9.48438 59.7972 9.73627 60.265 10.2412C60.7094 10.7318 60.9327 11.3654 60.9327 12.1398ZM59.725 12.1772C59.725 11.6987 59.6205 11.2884 59.4127 10.9463C59.1683 10.5327 58.8205 10.3259 58.3683 10.3259C57.9005 10.3259 57.545 10.5327 57.3005 10.9463C57.0916 11.2884 56.9883 11.7053 56.9883 12.1981C56.9883 12.6766 57.0927 13.0869 57.3005 13.429C57.5527 13.8426 57.9038 14.0494 58.3572 14.0494C58.8016 14.0494 59.1505 13.8393 59.4016 13.418C59.6172 13.0693 59.725 12.6557 59.725 12.1772Z" fill="#1C1C1E"/>
<path d="M69.6826 9.58984L68.0437 14.7752H66.9771L66.2982 12.5235C66.126 11.9614 65.986 11.4026 65.8771 10.8482H65.856C65.7549 11.418 65.6149 11.9757 65.4349 12.5235L64.7137 14.7752H63.6349L62.0938 9.58984H63.2904L63.8826 12.0549C64.026 12.6379 64.1437 13.1934 64.2382 13.7192H64.2593C64.346 13.2858 64.4893 12.7336 64.6915 12.0659L65.4349 9.59094H66.3837L67.096 12.0131C67.2682 12.6038 67.4082 13.1725 67.516 13.7203H67.5482C67.6271 13.1868 67.746 12.6181 67.9037 12.0131L68.5393 9.59094H69.6826V9.58984Z" fill="#1C1C1E"/>
<path d="M75.7317 14.7748H74.5673V11.8048C74.5673 10.8896 74.2162 10.432 73.5117 10.432C73.1662 10.432 72.8873 10.5574 72.6706 10.8093C72.4562 11.0612 72.3473 11.3582 72.3473 11.6981V14.7737H71.1828V11.0711C71.1828 10.6157 71.1684 10.1218 71.1406 9.58717H72.164L72.2184 10.3979H72.2506C72.3862 10.146 72.5884 9.93807 72.854 9.77197C73.1695 9.57837 73.5228 9.48047 73.9095 9.48047C74.3984 9.48047 74.8051 9.63667 75.1284 9.95017C75.5306 10.3341 75.7317 10.9072 75.7317 11.6684V14.7748Z" fill="#1C1C1E"/>
<path d="M78.9211 14.7756H77.7578V7.21094H78.9211V14.7756Z" fill="#1C1C1E"/>
<path d="M85.8019 12.1398C85.8019 12.9373 85.5719 13.5907 85.1119 14.1033C84.6297 14.6302 83.9897 14.8931 83.193 14.8931C82.423 14.8931 81.8108 14.6412 81.3552 14.1352C80.8997 13.6303 80.6719 12.9934 80.6719 12.2256C80.6719 11.4226 80.9063 10.7637 81.3774 10.2522C81.8485 9.74067 82.4819 9.48438 83.2785 9.48438C84.0485 9.48438 84.6652 9.73627 85.1341 10.2412C85.5785 10.7318 85.8019 11.3654 85.8019 12.1398ZM84.593 12.1772C84.593 11.6987 84.4885 11.2884 84.2808 10.9463C84.0374 10.5327 83.6885 10.3259 83.2374 10.3259C82.7685 10.3259 82.413 10.5327 82.1697 10.9463C81.9608 11.2884 81.8574 11.7053 81.8574 12.1981C81.8574 12.6766 81.9619 13.0869 82.1697 13.429C82.4219 13.8426 82.773 14.0494 83.2263 14.0494C83.6708 14.0494 84.0185 13.8393 84.2697 13.418C84.4863 13.0693 84.593 12.6557 84.593 12.1772Z" fill="#1C1C1E"/>
<path d="M91.4328 14.7754H90.3873L90.3006 14.1781H90.2684C89.9106 14.6544 89.4006 14.8931 88.7384 14.8931C88.2439 14.8931 87.8439 14.7358 87.5428 14.4234C87.2695 14.1396 87.1328 13.7865 87.1328 13.3674C87.1328 12.7338 87.3995 12.2509 87.9361 11.9165C88.4717 11.5821 89.225 11.4182 90.195 11.4259V11.3291C90.195 10.646 89.8328 10.305 89.1073 10.305C88.5906 10.305 88.135 10.4337 87.7417 10.6889L87.505 9.93207C87.9917 9.63397 88.5928 9.48438 89.3017 9.48438C90.6706 9.48438 91.3573 10.1994 91.3573 11.6294V13.539C91.3573 14.0571 91.3828 14.4696 91.4328 14.7754ZM90.2239 12.9934V12.1937C88.9395 12.1717 88.2973 12.5204 88.2973 13.2387C88.2973 13.5093 88.3706 13.7117 88.5206 13.847C88.6706 13.9823 88.8617 14.0494 89.0895 14.0494C89.345 14.0494 89.5839 13.9691 89.8017 13.8096C90.0206 13.649 90.155 13.4455 90.205 13.1958C90.2173 13.1397 90.2239 13.0715 90.2239 12.9934Z" fill="#1C1C1E"/>
<path d="M98.0273 14.7756H96.994L96.9396 13.9429H96.9073C96.5773 14.5765 96.0151 14.8933 95.2251 14.8933C94.594 14.8933 94.0684 14.648 93.6518 14.1574C93.2351 13.6668 93.0273 13.0299 93.0273 12.2478C93.0273 11.4085 93.2529 10.7287 93.7062 10.2095C94.1451 9.72554 94.6829 9.48354 95.3229 9.48354C96.0262 9.48354 96.5184 9.71784 96.7984 10.1875H96.8207V7.21094H97.9862V13.3786C97.9862 13.8835 97.9996 14.3488 98.0273 14.7756ZM96.8207 12.5888V11.7242C96.8207 11.5746 96.8096 11.4536 96.7884 11.3612C96.7229 11.084 96.5818 10.8508 96.3673 10.6627C96.1507 10.4746 95.8896 10.38 95.5884 10.38C95.154 10.38 94.814 10.5505 94.564 10.8926C94.3162 11.2347 94.1907 11.6714 94.1907 12.2049C94.1907 12.7175 94.3096 13.1333 94.5484 13.4534C94.8007 13.7944 95.1407 13.9649 95.5662 13.9649C95.9484 13.9649 96.254 13.823 96.4862 13.5381C96.7107 13.2752 96.8207 12.9584 96.8207 12.5888Z" fill="#1C1C1E"/>
<path d="M107.997 12.1398C107.997 12.9373 107.767 13.5907 107.307 14.1033C106.825 14.6302 106.187 14.8931 105.388 14.8931C104.621 14.8931 104.008 14.6412 103.551 14.1352C103.095 13.6303 102.867 12.9934 102.867 12.2256C102.867 11.4226 103.102 10.7637 103.573 10.2522C104.044 9.74067 104.677 9.48438 105.476 9.48438C106.244 9.48438 106.863 9.73627 107.329 10.2412C107.774 10.7318 107.997 11.3654 107.997 12.1398ZM106.791 12.1772C106.791 11.6987 106.686 11.2884 106.478 10.9463C106.233 10.5327 105.886 10.3259 105.433 10.3259C104.966 10.3259 104.611 10.5327 104.365 10.9463C104.156 11.2884 104.053 11.7053 104.053 12.1981C104.053 12.6766 104.157 13.0869 104.365 13.429C104.617 13.8426 104.968 14.0494 105.422 14.0494C105.866 14.0494 106.216 13.8393 106.467 13.418C106.682 13.0693 106.791 12.6557 106.791 12.1772Z" fill="#1C1C1E"/>
<path d="M114.299 14.7748H113.136V11.8048C113.136 10.8896 112.785 10.432 112.079 10.432C111.733 10.432 111.455 10.5574 111.239 10.8093C111.023 11.0612 110.916 11.3582 110.916 11.6981V14.7737H109.75V11.0711C109.75 10.6157 109.737 10.1218 109.709 9.58717H110.731L110.786 10.3979H110.818C110.955 10.146 111.157 9.93807 111.421 9.77197C111.738 9.57837 112.09 9.48047 112.478 9.48047C112.966 9.48047 113.372 9.63667 113.696 9.95017C114.099 10.3341 114.299 10.9072 114.299 11.6684V14.7748Z" fill="#1C1C1E"/>
<path d="M122.102 10.4557H120.82V12.9747C120.82 13.6149 121.048 13.935 121.499 13.935C121.708 13.935 121.881 13.9174 122.018 13.8811L122.048 14.7556C121.818 14.8414 121.515 14.8843 121.143 14.8843C120.683 14.8843 120.325 14.7457 120.067 14.4685C119.807 14.1913 119.678 13.7249 119.678 13.0704V10.4557H118.912V9.59218H119.678V8.64178L120.819 8.30078V9.59108H122.101V10.4557H122.102Z" fill="#1C1C1E"/>
<path d="M128.303 14.7756H127.137V11.8276C127.137 10.8981 126.786 10.4328 126.083 10.4328C125.543 10.4328 125.174 10.7023 124.972 11.2413C124.937 11.3546 124.917 11.4932 124.917 11.656V14.7745H123.754V7.21094H124.917V10.336H124.939C125.306 9.76734 125.832 9.48354 126.513 9.48354C126.995 9.48354 127.394 9.63974 127.711 9.95324C128.105 10.3437 128.303 10.9245 128.303 11.6923V14.7756Z" fill="#1C1C1E"/>
<path d="M134.598 11.9395C134.598 12.1463 134.583 12.3201 134.555 12.462H131.063C131.078 12.9746 131.245 13.3651 131.568 13.6357C131.864 13.8777 132.245 13.9987 132.711 13.9987C133.228 13.9987 133.699 13.9173 134.124 13.7534L134.306 14.5542C133.809 14.7676 133.225 14.8743 132.548 14.8743C131.737 14.8743 131.098 14.6378 130.636 14.1648C130.171 13.6918 129.941 13.0571 129.941 12.2607C129.941 11.4786 130.156 10.8274 130.588 10.3082C131.039 9.75376 131.649 9.47656 132.419 9.47656C133.173 9.47656 133.745 9.75376 134.131 10.3082C134.444 10.7482 134.598 11.2927 134.598 11.9395ZM133.487 11.6414C133.496 11.2993 133.419 11.0045 133.261 10.7559C133.059 10.4358 132.751 10.2752 132.335 10.2752C131.955 10.2752 131.645 10.4314 131.408 10.7449C131.215 10.9946 131.1 11.2927 131.063 11.6414H133.487Z" fill="#1C1C1E"/>
</svg>
