<svg width="150" height="44" viewBox="0 0 150 44" fill="none" xmlns="http://www.w3.org/2000/svg">
<rect width="149.6" height="44" rx="1.2" transform="matrix(1 0 0 -1 0 44)" fill="#F5F6F8"/>
<path d="M144.059 0.881373C146.625 0.881373 148.712 2.9535 148.712 5.5V38.5C148.712 41.0465 146.625 43.1186 144.059 43.1186H5.54074C2.97538 43.1186 0.887903 41.0465 0.887903 38.5V5.5C0.887903 2.9535 2.97538 0.881373 5.54074 0.881373H144.059ZM144.059 0H5.54074C2.49472 0 0 2.47638 0 5.5V38.5C0 41.5236 2.49472 44 5.54074 44H144.059C147.105 44 149.6 41.5236 149.6 38.5V5.5C149.6 2.47638 147.105 0 144.059 0Z" fill="#747474"/>
<path d="M52.5608 11.2674C52.5608 12.1859 52.2837 12.9215 51.738 13.4702C51.1105 14.1205 50.2932 14.4478 49.2917 14.4478C48.3346 14.4478 47.5173 14.115 46.8469 13.4592C46.1751 12.7937 45.8398 11.9769 45.8398 10.9993C45.8398 10.0217 46.1751 9.20491 46.8469 8.54491C47.5173 7.88353 48.3346 7.55078 49.2917 7.55078C49.7682 7.55078 50.2226 7.64841 50.6561 7.82991C51.0883 8.01278 51.4401 8.26028 51.695 8.56553L51.116 9.14578C50.6714 8.62466 50.066 8.36753 49.2917 8.36753C48.5936 8.36753 47.9883 8.60953 47.4744 9.09766C46.966 9.58716 46.7111 10.221 46.7111 10.9993C46.7111 11.7775 46.966 12.4169 47.4744 12.9064C47.9883 13.389 48.5936 13.6365 49.2917 13.6365C50.0328 13.6365 50.6561 13.389 51.1479 12.9009C51.472 12.5778 51.6562 12.1323 51.7047 11.563H49.2917V10.7683H52.5109C52.5497 10.9402 52.5608 11.1065 52.5608 11.2674V11.2674Z" fill="#1C1C1E" stroke="#1C1C1E" stroke-width="0.16" stroke-miterlimit="10"/>
<path d="M57.6416 8.513H54.6178V10.603H57.3438V11.3977H54.6178V13.4877H57.6416V14.2976H53.7617V7.70312H57.6416V8.513Z" fill="#1C1C1E" stroke="#1C1C1E" stroke-width="0.16" stroke-miterlimit="10"/>
<path d="M61.5604 14.2976H60.7044V8.513H58.8496V7.70312H63.4166V8.513H61.5604V14.2976Z" fill="#1C1C1E" stroke="#1C1C1E" stroke-width="0.16" stroke-miterlimit="10"/>
<path d="M66.3945 14.2976V7.70312H67.2492V14.2976H66.3945Z" fill="#1C1C1E" stroke="#1C1C1E" stroke-width="0.16" stroke-miterlimit="10"/>
<path d="M71.0663 14.2976H70.2172V8.513H68.3555V7.70312H72.928V8.513H71.0663V14.2976Z" fill="#1C1C1E" stroke="#1C1C1E" stroke-width="0.16" stroke-miterlimit="10"/>
<path d="M81.5661 13.4482C80.9109 14.115 80.0992 14.4478 79.131 14.4478C78.1572 14.4478 77.3455 14.115 76.6903 13.4482C76.0365 12.7827 75.7109 11.9659 75.7109 10.9993C75.7109 10.0327 76.0365 9.21591 76.6903 8.55041C77.3455 7.88353 78.1572 7.55078 79.131 7.55078C80.0937 7.55078 80.9054 7.88353 81.5606 8.55591C82.2199 9.22691 82.5454 10.0382 82.5454 10.9993C82.5454 11.9659 82.2199 12.7827 81.5661 13.4482ZM77.3233 12.8954C77.8164 13.389 78.4162 13.6365 79.131 13.6365C79.8402 13.6365 80.4455 13.389 80.9331 12.8954C81.4248 12.4018 81.6742 11.7679 81.6742 10.9993C81.6742 10.2307 81.4248 9.59678 80.9331 9.10316C80.4455 8.60953 79.8402 8.36203 79.131 8.36203C78.4162 8.36203 77.8164 8.60953 77.3233 9.10316C76.8316 9.59678 76.5822 10.2307 76.5822 10.9993C76.5822 11.7679 76.8316 12.4018 77.3233 12.8954V12.8954Z" fill="#1C1C1E" stroke="#1C1C1E" stroke-width="0.16" stroke-miterlimit="10"/>
<path d="M83.7715 14.2976V7.70312H84.8104L88.0406 12.8319H88.078L88.0406 11.5641V7.70312H88.8953V14.2976H88.0032L84.6206 8.91587H84.5832L84.6206 10.1891V14.2976H83.7715Z" fill="#1C1C1E" stroke="#1C1C1E" stroke-width="0.16" stroke-miterlimit="10"/>
<path d="M75.5214 23.9308C72.9186 23.9308 70.7923 25.897 70.7923 28.6099C70.7923 31.3008 72.9186 33.2877 75.5214 33.2877C78.1297 33.2877 80.2559 31.3008 80.2559 28.6099C80.2559 25.897 78.1297 23.9308 75.5214 23.9308ZM75.5214 31.4452C74.0932 31.4452 72.8646 30.275 72.8646 28.6099C72.8646 26.9228 74.0932 25.7733 75.5214 25.7733C76.9495 25.7733 78.1837 26.9228 78.1837 28.6099C78.1837 30.275 76.9495 31.4452 75.5214 31.4452V31.4452ZM65.2031 23.9308C62.5948 23.9308 60.4741 25.897 60.4741 28.6099C60.4741 31.3008 62.5948 33.2877 65.2031 33.2877C67.81 33.2877 69.9321 31.3008 69.9321 28.6099C69.9321 25.897 67.81 23.9308 65.2031 23.9308ZM65.2031 31.4452C63.7736 31.4452 62.5408 30.275 62.5408 28.6099C62.5408 26.9228 63.7736 25.7733 65.2031 25.7733C66.6312 25.7733 67.8599 26.9228 67.8599 28.6099C67.8599 30.275 66.6312 31.4452 65.2031 31.4452ZM52.9248 25.3649V27.3532H57.7079C57.568 28.4642 57.194 29.2809 56.6205 29.8502C55.9224 30.5377 54.835 31.3008 52.9248 31.3008C49.9813 31.3008 47.6764 28.9427 47.6764 26.0208C47.6764 23.0989 49.9813 20.7408 52.9248 20.7408C54.5164 20.7408 55.6744 21.3582 56.5291 22.1584L57.9406 20.7573C56.7452 19.6243 55.155 18.7539 52.9248 18.7539C48.8884 18.7539 45.4961 22.014 45.4961 26.0208C45.4961 30.0275 48.8884 33.2877 52.9248 33.2877C55.1065 33.2877 56.7452 32.5782 58.0334 31.2472C59.3535 29.9368 59.7649 28.0943 59.7649 26.6065C59.7649 26.1445 59.7261 25.7197 59.6568 25.3649H52.9248ZM103.132 26.9063C102.743 25.8599 101.542 23.9308 99.0958 23.9308C96.6717 23.9308 94.6535 25.8269 94.6535 28.6099C94.6535 31.2307 96.651 33.2877 99.3285 33.2877C101.494 33.2877 102.743 31.9773 103.257 31.2142L101.65 30.1513C101.114 30.9295 100.384 31.4452 99.3285 31.4452C98.2799 31.4452 97.5278 30.968 97.0457 30.0275L103.35 27.4384L103.132 26.9063V26.9063ZM96.705 28.4642C96.651 26.6602 98.1165 25.7362 99.1665 25.7362C99.9893 25.7362 100.687 26.1445 100.92 26.7289L96.705 28.4642V28.4642ZM91.5812 33.003H93.6534V19.253H91.5812V33.003ZM88.1875 24.973H88.1182C87.6528 24.4258 86.7649 23.9308 85.6401 23.9308C83.2798 23.9308 81.1217 25.9878 81.1217 28.625C81.1217 31.2472 83.2798 33.2877 85.6401 33.2877C86.7649 33.2877 87.6528 32.7885 88.1182 32.2248H88.1875V32.8958C88.1875 34.6847 87.2248 35.6458 85.672 35.6458C84.4059 35.6458 83.6205 34.7383 83.2964 33.9752L81.4943 34.7218C82.0137 35.962 83.3892 37.4883 85.672 37.4883C88.1016 37.4883 90.1517 36.0693 90.1517 32.6167V24.2154H88.1875V24.973V24.973ZM85.8174 31.4452C84.3893 31.4452 83.1939 30.2585 83.1939 28.625C83.1939 26.9764 84.3893 25.7733 85.8174 25.7733C87.2248 25.7733 88.3343 26.9764 88.3343 28.625C88.3343 30.2585 87.2248 31.4452 85.8174 31.4452V31.4452ZM112.834 19.253H107.878V33.003H109.945V27.7932H112.834C115.129 27.7932 117.38 26.1445 117.38 23.5224C117.38 20.9017 115.124 19.253 112.834 19.253V19.253ZM112.888 25.8805H109.945V21.1657H112.888C114.431 21.1657 115.312 22.4375 115.312 23.5224C115.312 24.5867 114.431 25.8805 112.888 25.8805ZM125.664 23.9047C124.17 23.9047 122.618 24.5592 121.979 26.0098L123.813 26.7729C124.208 26.0098 124.934 25.7623 125.701 25.7623C126.773 25.7623 127.861 26.4017 127.877 27.5305V27.6749C127.503 27.4604 126.703 27.1428 125.718 27.1428C123.742 27.1428 121.73 28.2222 121.73 30.2365C121.73 32.079 123.348 33.2657 125.166 33.2657C126.557 33.2657 127.325 32.6428 127.807 31.9182H127.877V32.981H129.873V27.7065C129.873 25.2687 128.039 23.9047 125.664 23.9047ZM125.414 31.4397C124.738 31.4397 123.796 31.1069 123.796 30.275C123.796 29.2108 124.971 28.8024 125.988 28.8024C126.898 28.8024 127.325 29.0018 127.877 29.2644C127.715 30.5377 126.611 31.4397 125.414 31.4397V31.4397ZM137.145 24.2058L134.77 30.1664H134.699L132.243 24.2058H130.015L133.705 32.5355L131.599 37.1707H133.759L139.445 24.2058H137.145V24.2058ZM118.516 33.003H120.588V19.253H118.516V33.003Z" fill="#1C1C1E"/>
<path d="M11.5842 8.29065C11.2587 8.6289 11.0703 9.15552 11.0703 9.83752V34.164C11.0703 34.846 11.2587 35.3727 11.5842 35.7109L11.6646 35.7852L25.3973 22.1589V21.8372L11.6646 8.2109L11.5842 8.29065Z" fill="#1C1C1E"/>
<path d="M29.9768 26.707L25.4043 22.1627V21.8409L29.9823 17.2965L30.0848 17.3557L35.5065 20.4178C37.0537 21.2868 37.0537 22.7168 35.5065 23.5913L30.0848 26.6479L29.9768 26.707V26.707Z" fill="#1C1C1E"/>
<path d="M30.06 26.6457L25.3795 21.9996L11.5664 35.7125C12.0803 36.2487 12.9183 36.3134 13.8714 35.7771L30.06 26.6457" fill="#1C1C1E"/>
<path d="M29.9996 17.3063L13.9145 8.2204C12.9615 7.68965 12.1916 7.68415 11.6777 8.2204L25.4793 22.1016L29.9996 17.3063Z" fill="#1C1C1E"/>
<path d="M11.1543 8.33594L30.3895 26.9254" stroke="#F5F6F8" stroke-width="0.33"/>
<line x1="29.8661" y1="16.7188" x2="11.0286" y2="35.3624" stroke="#F5F6F8" stroke-width="0.33"/>
</svg>
