<svg width="50" height="45" viewBox="0 0 50 45" fill="none" xmlns="http://www.w3.org/2000/svg">
<path d="M27.1178 1.89567C24.9887 3.14954 22.9726 3.85774 19.2809 9.31863C15.5734 8.29947 14.5455 8.29746 14.0266 8.15502C14.7967 7.09645 15.6823 6.12938 16.6666 5.27213C18.5133 3.74971 20.6823 2.68 23.0043 2.14644C24.4243 1.82144 25.7473 1.69904 26.9336 1.97389C21.6971 0.443152 15.8724 1.10922 10.933 3.83364C6.0966 6.49788 2.41681 11.2004 0.862107 16.6734C-0.692597 22.1463 0.0877233 28.2552 2.80301 33.1764C5.60147 38.1177 10.6439 41.6245 16.0725 43.1152C16.0725 43.1152 14.183 39.7768 14.597 31.9968C15.0465 23.5707 16.223 19.9234 17.8529 15.6944C20.5999 8.55627 22.2101 7.06764 23.7291 5.18582C24.7194 3.95084 25.8578 2.84562 27.1178 1.89567ZM2.22272 16.9622C3.16952 13.2165 5.16389 9.82739 7.96621 7.20207C10.0695 8.0527 10.119 8.24732 12.2679 8.92943C10.4477 11.7418 9.05065 14.8128 8.12267 18.0416C5.43709 17.3916 4.87859 17.4197 2.22272 16.9622ZM14.7495 21.0489C13.8345 24.4595 13.7909 26.7064 13.5117 30.8592C10.9251 30.147 13.0502 30.7348 10.4399 30.1089L8.37618 29.5412C8.19001 26.2229 8.60988 22.9809 9.30306 19.7248M13.3492 32.5044C13.4245 35.3451 13.9672 39.4258 15.506 42.1201C13.7751 41.5604 12.2501 39.8591 11.2836 38.1498C10.3329 36.3442 9.51299 35.4073 8.49897 31.762C8.46134 31.5614 8.44549 31.2946 8.40786 31.102C10.9964 31.8042 10.8637 31.73 13.3492 32.5044ZM15.8289 9.9967C18.3936 10.7992 16.013 10.1191 18.6016 10.8313C16.9102 14.0412 16.1774 16.7657 15.3615 19.8071C10.4379 18.4529 12.0263 18.9304 9.58429 18.3506C10.428 15.1821 11.694 12.1449 13.3473 9.32264L15.8289 10.0067V9.9967ZM11.3846 4.50976C13.6815 3.1304 16.2112 2.19504 18.8452 1.75123C21.0935 1.39477 23.3862 1.44162 25.6185 1.88964C23.8816 1.68902 20.1622 2.02005 18.1659 3.09337C16.2566 4.20079 15.2288 5.27412 13.7889 6.96535C13.6344 7.19005 13.1631 7.55719 12.9967 7.87216C10.7211 7.33851 10.327 7.4709 7.98206 7.19605C9.02343 6.18612 10.1635 5.28608 11.3846 4.50976ZM2.17915 17.1308C4.69837 18.0958 5.16577 18.4067 7.72459 19.2032C6.84699 22.4323 6.43671 25.7734 6.50657 29.1219C4.56369 28.6785 4.58944 28.8671 2.601 28.5943C2.18163 27.4094 1.91017 26.176 1.79295 24.9229C1.38574 22.328 1.51659 19.6756 2.17717 17.1348L2.17915 17.1308ZM2.55743 28.7668C4.57755 29.5953 4.4607 29.7438 6.51845 30.4018C6.57193 30.8713 6.88485 31.4049 6.93832 31.8784C8.56631 36.8377 9.68529 37.261 10.9845 39.4338C7.05982 36.9507 4.08588 33.1889 2.55149 28.7668H2.55743Z" fill="url(#paint0_linear_1706_89280)"/>
<path d="M14.7495 21.0489C13.8345 24.4595 13.7909 26.7064 13.5117 30.8592C10.9251 30.147 13.0502 30.7348 10.4399 30.1089L8.37618 29.5412C8.19001 26.2229 8.60988 22.9809 9.30306 19.7248M27.1178 1.89567C24.9887 3.14954 22.9726 3.85774 19.2809 9.31863C15.5734 8.29947 14.5455 8.29746 14.0266 8.15502C14.7967 7.09645 15.6823 6.12938 16.6666 5.27213C18.5133 3.74971 20.6823 2.68 23.0043 2.14644C24.4243 1.82144 25.7473 1.69904 26.9336 1.97389C21.6971 0.443152 15.8724 1.10922 10.933 3.83364C6.0966 6.49788 2.41681 11.2004 0.862107 16.6734C-0.692597 22.1463 0.0877233 28.2552 2.80301 33.1764C5.60147 38.1177 10.6439 41.6245 16.0725 43.1152C16.0725 43.1152 14.183 39.7768 14.597 31.9968C15.0465 23.5707 16.223 19.9234 17.8529 15.6944C20.5999 8.55627 22.2101 7.06764 23.7291 5.18582C24.7194 3.95084 25.8578 2.84562 27.1178 1.89567ZM2.22272 16.9622C3.16952 13.2165 5.16389 9.82739 7.96621 7.20207C10.0695 8.0527 10.119 8.24732 12.2679 8.92943C10.4477 11.7418 9.05065 14.8128 8.12267 18.0416C5.43709 17.3916 4.87859 17.4197 2.22272 16.9622ZM13.3492 32.5044C13.4245 35.3451 13.9672 39.4258 15.506 42.1201C13.7751 41.5604 12.2501 39.8591 11.2836 38.1498C10.3329 36.3442 9.51299 35.4073 8.49897 31.762C8.46134 31.5614 8.44549 31.2946 8.40786 31.102C10.9964 31.8042 10.8637 31.73 13.3492 32.5044ZM15.8289 9.9967C18.3936 10.7992 16.013 10.1191 18.6016 10.8313C16.9102 14.0412 16.1774 16.7657 15.3615 19.8071C10.4379 18.4529 12.0263 18.9304 9.58429 18.3506C10.428 15.1821 11.694 12.1449 13.3473 9.32264L15.8289 10.0067V9.9967ZM11.3846 4.50976C13.6815 3.1304 16.2112 2.19504 18.8452 1.75123C21.0935 1.39477 23.3862 1.44162 25.6185 1.88964C23.8816 1.68902 20.1622 2.02005 18.1659 3.09337C16.2566 4.20079 15.2288 5.27412 13.7889 6.96535C13.6344 7.19005 13.1631 7.55719 12.9967 7.87216C10.7211 7.33851 10.327 7.4709 7.98206 7.19605C9.02343 6.18612 10.1635 5.28608 11.3846 4.50976ZM2.17915 17.1308C4.69837 18.0958 5.16577 18.4067 7.72459 19.2032C6.84699 22.4323 6.4367 25.7734 6.50657 29.1219C4.56369 28.6785 4.58944 28.8671 2.601 28.5943C2.18163 27.4094 1.91017 26.176 1.79295 24.9229C1.38574 22.328 1.51659 19.6756 2.17717 17.1348L2.17915 17.1308ZM2.55743 28.7668C4.57755 29.5953 4.4607 29.7438 6.51845 30.4018C6.57193 30.8713 6.88485 31.4049 6.93832 31.8784C8.56631 36.8377 9.68529 37.261 10.9845 39.4338C7.05982 36.9507 4.08588 33.1889 2.55149 28.7668H2.55743Z" stroke="#666666" stroke-width="0.113585" stroke-miterlimit="10"/>
<path d="M28.1973 27.9721L32.4692 24.4111C32.4947 24.395 32.5234 24.3846 32.5532 24.3807C32.583 24.3768 32.6132 24.3793 32.642 24.3883C32.6707 24.3972 32.6972 24.4123 32.7197 24.4325C32.7421 24.4527 32.7601 24.4776 32.7722 24.5054C33.5506 26.2769 35.4677 31.6254 36.3669 33.6697C36.6145 34.2315 36.3986 34.729 35.5747 34.9898C34.7508 35.2506 32.0256 35.4252 31.5146 35.2787C31.0591 35.1483 30.6254 34.9658 30.4709 34.5144C29.8431 32.7028 28.5736 28.9231 28.1973 27.9721Z" fill="#161616"/>
<path d="M28.0371 27.7846L32.3091 24.2236C32.3346 24.2075 32.3632 24.1971 32.393 24.1932C32.4228 24.1893 32.4531 24.1918 32.4818 24.2008C32.5105 24.2097 32.537 24.2248 32.5595 24.245C32.582 24.2652 32.5999 24.2901 32.6121 24.3179C33.3904 26.0894 35.3076 31.4379 36.2067 33.4822C36.4543 34.044 36.2384 34.5415 35.4046 34.8023C34.6005 35.0531 31.8555 35.2377 31.3446 35.0912C30.8891 34.9608 30.4553 34.7782 30.3008 34.3268C29.677 32.5152 28.4134 28.7235 28.0371 27.7846Z" fill="#272727"/>
<path d="M11.2413 28.9437L9.34796 33.897C9.19546 34.4046 9.95598 35.0385 10.4788 35.0345C11.3087 35.0345 13.1347 35.0345 14.0299 35.0446C14.2956 35.0462 14.5553 34.9646 14.7733 34.8109C14.9914 34.6571 15.1572 34.4388 15.2479 34.1859L21.7836 13.2571L26.1744 23.3363C26.1744 23.3363 22.6927 23.2741 21.7598 23.3363C20.827 23.3985 17.9652 27.9366 17.9652 27.9366C17.9652 27.9366 17.7176 28.5023 18.09 28.6929C18.4049 28.8514 21.8133 28.8073 22.8749 28.7912C23.1654 28.7855 23.4497 28.7047 23.7008 28.5565C24.1068 28.3137 25.7407 26.801 25.7407 26.801L30.3612 22.8889C30.3612 22.8889 31.3752 21.9701 31.1891 21.5287C31.0029 21.0874 26.113 7.97082 26.113 7.97082C26.113 7.97082 25.8397 7.52544 23.9345 7.52344C21.9856 7.52344 19.308 7.52344 18.6861 7.97283C18.0642 8.42222 11.6196 27.3809 11.6196 27.3809L11.2413 28.9437Z" fill="#272727"/>
<path d="M27.8789 27.5913L32.1509 24.0322C32.1764 24.0161 32.205 24.0057 32.2348 24.0018C32.2646 23.9978 32.2949 24.0004 32.3236 24.0094C32.3523 24.0183 32.3788 24.0334 32.4013 24.0536C32.4238 24.0738 32.4417 24.0987 32.4539 24.1265C33.2322 25.898 35.1494 31.2465 36.0485 33.2909C36.2961 33.8526 36.0802 34.3482 35.2464 34.609C34.4126 34.8698 31.6973 35.0463 31.1844 34.8999C30.7308 34.7694 30.2971 34.5869 30.1426 34.1335C29.5247 32.3319 28.2552 28.5342 27.8789 27.5913Z" fill="#383838"/>
<path d="M11.091 28.7562L9.19761 33.7096C9.04511 34.2171 9.80364 34.8511 10.3265 34.8471C11.1583 34.8471 12.9824 34.8471 13.8795 34.8571C14.1452 34.8588 14.4049 34.7771 14.623 34.6234C14.8411 34.4697 15.0068 34.2514 15.0976 33.9984L21.6333 13.0697L26.0241 23.1489C26.0241 23.1489 22.5423 23.0867 21.6095 23.1489C20.6767 23.2111 17.795 27.7491 17.795 27.7491C17.795 27.7491 17.5475 28.3148 17.9198 28.5034C18.2347 28.6639 21.6432 28.6198 22.7047 28.6017C22.9952 28.5976 23.2797 28.5175 23.5306 28.369C23.9267 28.1263 25.5705 26.6136 25.5705 26.6136L30.1911 22.7015C30.1911 22.7015 31.2051 21.7826 31.0189 21.3413C30.8327 20.8999 25.9429 7.78337 25.9429 7.78337C25.9429 7.78337 25.6695 7.33794 23.7643 7.33594C21.8155 7.33594 19.1378 7.33594 18.5159 7.78533C17.894 8.23472 11.4574 27.1934 11.4574 27.1934L11.091 28.7562Z" fill="#383838"/>
<path d="M27.7109 27.2215L31.9829 23.6625C32.0082 23.646 32.0367 23.6352 32.0665 23.631C32.0963 23.6267 32.1266 23.6291 32.1554 23.6378C32.1842 23.6466 32.2108 23.6616 32.2334 23.6818C32.2559 23.702 32.2738 23.7269 32.2859 23.7548C33.0623 25.5283 34.9814 30.8748 35.8805 32.9211C36.1281 33.4829 35.9122 33.9784 35.0884 34.2392C34.2645 34.5 31.5393 34.6766 31.0263 34.5301C30.5728 34.3997 30.139 34.2171 29.9846 33.7637C29.3567 31.9541 28.0932 28.1624 27.7109 27.2215Z" fill="url(#paint1_linear_1706_89280)" stroke="#666666" stroke-width="0.113585" stroke-miterlimit="10"/>
<path d="M9.0194 33.3347C8.86888 33.8403 9.62742 34.4762 10.1503 34.4722C10.9801 34.4722 12.8061 34.4722 13.7033 34.4722C13.9687 34.4748 14.2283 34.3938 14.4462 34.2403C14.664 34.0868 14.8294 33.8685 14.9193 33.6156L21.455 12.6849L25.8459 22.7661C25.8459 22.7661 22.3641 22.7039 21.4313 22.7661C20.4985 22.8282 17.6366 27.3643 17.6366 27.3643C17.6366 27.3643 17.3871 27.932 17.7614 28.1206C18.0763 28.2811 21.4848 28.237 22.5463 28.2189C22.8362 28.2151 23.1202 28.1349 23.3702 27.9862C23.7782 27.7435 25.4101 26.2308 25.4101 26.2308L30.0326 22.3187C30.0326 22.3187 31.0467 21.3978 30.8605 20.9585C30.6743 20.5191 25.7845 7.4005 25.7845 7.4005C25.7845 7.4005 25.5092 6.95313 23.6059 6.95313C21.6551 6.95313 18.9794 6.95312 18.3575 7.40251C17.7356 7.8519 11.4257 26.8406 11.4257 26.8406L9.0194 33.3347Z" fill="url(#paint2_linear_1706_89280)" stroke="#666666" stroke-width="0.113585" stroke-miterlimit="10"/>
<path d="M29.6184 40.4283C16.4618 45.4679 2.95867 36.2152 3.02601 22.0635C2.96659 7.91369 17.0045 -1.6098 30.1591 3.42578C32.9575 4.45898 34.9242 5.72091 36.9304 7.82542C36.9902 7.88885 37.0655 7.93491 37.1488 7.95889C37.232 7.98288 37.32 7.98391 37.4038 7.96183H37.4156C37.497 7.94017 37.5714 7.89751 37.6317 7.83806C37.692 7.77861 37.736 7.70441 37.7595 7.6226C37.7831 7.54079 37.7853 7.45417 37.766 7.37124C37.7467 7.2883 37.7065 7.21185 37.6494 7.14931C31.9177 0.946122 22.7777 -1.86457 14.0812 1.4878C4.21234 5.1712 -1.68167 16.0669 0.514716 26.4951C3.23396 40.2457 18.1413 47.9174 30.6859 42.0894C35.344 40.0049 39.0912 36.1691 41.2915 31.5809C41.3228 31.5164 41.3383 31.4452 41.3366 31.3733C41.335 31.3014 41.3163 31.231 41.2821 31.168C41.2479 31.1051 41.1992 31.0513 41.1402 31.0114C41.0812 30.9716 41.0135 30.9467 40.943 30.9389H40.9311C40.8427 30.9298 40.7537 30.9482 40.6759 30.9915C40.5981 31.0349 40.5351 31.1012 40.4954 31.1817C38.2336 35.6776 34.3974 38.6608 29.6184 40.4283Z" fill="url(#paint3_linear_1706_89280)" stroke="#666666" stroke-width="0.113585" stroke-miterlimit="10"/>
<g clip-path="url(#clip0_1706_89280)">
<path d="M41.2475 26.0688C45.5609 26.0688 49.0575 22.5267 49.0575 18.1574C49.0575 13.7881 45.5609 10.2461 41.2475 10.2461C36.9342 10.2461 33.4375 13.7881 33.4375 18.1574C33.4375 22.5267 36.9342 26.0688 41.2475 26.0688Z" fill="#7769E1"/>
<path d="M45.4702 20.8215C45.5294 20.8208 45.5874 20.838 45.6369 20.8709C45.6864 20.9039 45.725 20.9511 45.7477 21.0064C45.7705 21.0618 45.7763 21.1228 45.7646 21.1816C45.7528 21.2404 45.724 21.2942 45.6817 21.3363C45.6251 21.3923 45.5493 21.4239 45.4702 21.4244H38.3472C38.1516 21.425 37.9577 21.3865 37.7769 21.3109C37.596 21.2353 37.4317 21.1243 37.2934 20.9841C37.1551 20.8439 37.0455 20.6773 36.971 20.4941C36.8965 20.3108 36.8586 20.1144 36.8594 19.9162V16.299C36.8594 16.1013 36.8979 15.9056 36.9727 15.723C37.0476 15.5405 37.1572 15.3746 37.2955 15.2351C37.4337 15.0955 37.5978 14.985 37.7782 14.9098C37.9587 14.8346 38.1521 14.7962 38.3472 14.7969H44.2997C44.4948 14.7962 44.6882 14.8346 44.8687 14.9098C45.0492 14.985 45.2132 15.0955 45.3514 15.2351C45.4897 15.3746 45.5993 15.5405 45.6742 15.723C45.749 15.9056 45.7875 16.1013 45.7875 16.299V21.0058C45.7883 21.0657 45.7713 21.1246 45.7387 21.1747C45.7062 21.2248 45.6596 21.2639 45.605 21.2869C45.5503 21.31 45.4901 21.3159 45.4321 21.304C45.374 21.2921 45.3209 21.2629 45.2794 21.2201C45.2239 21.1629 45.1927 21.086 45.1924 21.0058V16.299C45.1924 16.06 45.0986 15.8308 44.9318 15.6617C44.7649 15.4927 44.5386 15.3977 44.3026 15.3977H38.3472C38.1113 15.3977 37.885 15.4927 37.7181 15.6617C37.5512 15.8308 37.4575 16.06 37.4575 16.299V19.9162C37.4575 20.1553 37.5512 20.3845 37.7181 20.5535C37.885 20.7226 38.1113 20.8175 38.3472 20.8175L45.4702 20.8215Z" fill="white" stroke="white" stroke-width="0.248651" stroke-miterlimit="10"/>
<path d="M45.3559 16.0287C45.4272 15.9927 45.5094 15.9862 45.5853 16.0106C45.6589 16.0363 45.7196 16.0902 45.7543 16.1609C45.7897 16.233 45.7961 16.3163 45.7721 16.3932C45.747 16.4681 45.6937 16.53 45.6238 16.5654L41.9897 18.4071H41.9808C41.7738 18.5008 41.5496 18.5493 41.3229 18.5493C41.0962 18.5493 40.872 18.5008 40.665 18.4071H40.6561L37.0229 16.5654C36.9531 16.5297 36.8995 16.468 36.8737 16.3932C36.8497 16.3163 36.8561 16.233 36.8915 16.1609C36.9264 16.09 36.9875 16.0361 37.0615 16.0106C37.1374 15.9864 37.2196 15.9928 37.2909 16.0287L40.921 17.8643C41.0478 17.9204 41.1846 17.9494 41.3229 17.9494C41.4612 17.9494 41.598 17.9204 41.7248 17.8643L45.3559 16.0287Z" fill="white" stroke="white" stroke-width="0.248651" stroke-miterlimit="10"/>
</g>
<defs>
<linearGradient id="paint0_linear_1706_89280" x1="0.0703125" y1="22.1416" x2="27.1178" y2="22.1416" gradientUnits="userSpaceOnUse">
<stop stop-color="#CFCFCF"/>
<stop offset="1" stop-color="#696969"/>
</linearGradient>
<linearGradient id="paint1_linear_1706_89280" x1="28.2714" y1="27.719" x2="35.9464" y2="30.8294" gradientUnits="userSpaceOnUse">
<stop stop-color="#999999"/>
<stop offset="0.34" stop-color="#828282"/>
<stop offset="1" stop-color="#4D4D4D"/>
</linearGradient>
<linearGradient id="paint2_linear_1706_89280" x1="13.1884" y1="19.189" x2="28.1927" y2="24.5009" gradientUnits="userSpaceOnUse">
<stop stop-color="#E6E6E6"/>
<stop offset="0.13" stop-color="#DFDFDF"/>
<stop offset="0.3" stop-color="#CDCDCD"/>
<stop offset="0.51" stop-color="#AEAEAE"/>
<stop offset="0.75" stop-color="#838383"/>
<stop offset="1" stop-color="#4D4D4D"/>
</linearGradient>
<linearGradient id="paint3_linear_1706_89280" x1="0.0572169" y1="22.0534" x2="41.3391" y2="22.0534" gradientUnits="userSpaceOnUse">
<stop stop-color="#CCCCCC"/>
<stop offset="0.23" stop-color="#A8A8A8"/>
<stop offset="0.58" stop-color="#777777"/>
<stop offset="0.85" stop-color="#595959"/>
<stop offset="1" stop-color="#4D4D4D"/>
</linearGradient>
<clipPath id="clip0_1706_89280">
<rect width="15.62" height="15.8227" fill="white" transform="translate(33.4375 10.2461)"/>
</clipPath>
</defs>
</svg>
