<svg width="81" height="41" viewBox="0 0 81 41" fill="none" xmlns="http://www.w3.org/2000/svg">
<path d="M48.5 2H32.5C31.4 2 30.5 2.9 30.5 4V22L34.5 18H48.5C49.6 18 50.5 17.1 50.5 16V4C50.5 2.9 49.6 2 48.5 2ZM48.5 16H34.5L32.5 18V4H48.5V16Z" fill="#747474"/>
<path d="M23.9726 27.0469H25.292V30.1572C25.292 30.6722 25.3671 31.0755 25.5175 31.3672C25.6679 31.6589 25.8958 31.8639 26.2011 31.9824C26.5065 32.1009 26.887 32.1602 27.3427 32.1602C27.6162 32.1602 27.8805 32.1488 28.1357 32.126C28.3955 32.1032 28.6484 32.0713 28.8945 32.0303C29.1406 31.9893 29.3821 31.9391 29.6191 31.8799C29.8606 31.8206 30.0976 31.7568 30.33 31.6885V32.7686C30.1067 32.8369 29.8834 32.9007 29.6601 32.96C29.4414 33.0192 29.2135 33.0693 28.9765 33.1104C28.7441 33.1514 28.4935 33.1833 28.2246 33.2061C27.9602 33.2288 27.6663 33.2402 27.3427 33.2402C26.6409 33.2402 26.0371 33.14 25.5312 32.9395C25.0299 32.7344 24.6448 32.4062 24.3759 31.9551C24.1071 31.5039 23.9726 30.9046 23.9726 30.1572V27.0469ZM29.9951 27.0469H31.3144V37H29.9951V27.0469ZM37.9896 35.7354V31.9277C37.9896 31.6361 37.9303 31.3831 37.8118 31.1689C37.6979 30.9502 37.5247 30.7816 37.2923 30.6631C37.0599 30.5446 36.7728 30.4854 36.431 30.4854C36.112 30.4854 35.8317 30.54 35.5902 30.6494C35.3532 30.7588 35.1663 30.9023 35.0296 31.0801C34.8974 31.2578 34.8314 31.4492 34.8314 31.6543H33.5667C33.5667 31.39 33.6351 31.1279 33.7718 30.8682C33.9085 30.6084 34.1045 30.3737 34.3597 30.1641C34.6195 29.9499 34.9294 29.7812 35.2894 29.6582C35.654 29.5306 36.0596 29.4668 36.5062 29.4668C37.0439 29.4668 37.5179 29.5579 37.928 29.7402C38.3428 29.9225 38.6663 30.1982 38.8988 30.5674C39.1357 30.932 39.2542 31.39 39.2542 31.9414V35.3867C39.2542 35.6328 39.2747 35.8949 39.3157 36.1729C39.3613 36.4508 39.4274 36.6901 39.514 36.8906V37H38.1946C38.1308 36.8542 38.0807 36.6605 38.0443 36.4189C38.0078 36.1729 37.9896 35.945 37.9896 35.7354ZM38.2083 32.5156L38.222 33.4043H36.9437C36.5836 33.4043 36.2624 33.4339 35.9798 33.4932C35.6973 33.5479 35.4603 33.6322 35.2689 33.7461C35.0775 33.86 34.9316 34.0036 34.8314 34.1768C34.7311 34.3454 34.681 34.5436 34.681 34.7715C34.681 35.0039 34.7334 35.2158 34.8382 35.4072C34.943 35.5986 35.1002 35.7513 35.3099 35.8652C35.5241 35.9746 35.7861 36.0293 36.096 36.0293C36.4834 36.0293 36.8252 35.9473 37.1214 35.7832C37.4176 35.6191 37.6523 35.4186 37.8255 35.1816C38.0032 34.9447 38.0989 34.7145 38.1126 34.4912L38.6527 35.0996C38.6208 35.291 38.5342 35.5029 38.3929 35.7354C38.2516 35.9678 38.0625 36.1911 37.8255 36.4053C37.5931 36.6149 37.3151 36.7904 36.9915 36.9316C36.6725 37.0684 36.3125 37.1367 35.9114 37.1367C35.4101 37.1367 34.9704 37.0387 34.5921 36.8428C34.2184 36.6468 33.9267 36.3848 33.7171 36.0566C33.512 35.724 33.4095 35.3525 33.4095 34.9424C33.4095 34.5459 33.487 34.1973 33.6419 33.8965C33.7969 33.5911 34.0202 33.3382 34.3118 33.1377C34.6035 32.9326 34.9544 32.7777 35.3646 32.6729C35.7747 32.568 36.2327 32.5156 36.7386 32.5156H38.2083ZM44.2888 29.6035V37H43.0173V29.6035H44.2888ZM46.7702 29.6035V30.6289H40.5837V29.6035H46.7702ZM49.1934 32.1465H51.4151C52.0121 32.1465 52.5157 32.2513 52.9258 32.4609C53.336 32.666 53.6459 32.9508 53.8555 33.3154C54.0697 33.6755 54.1768 34.0856 54.1768 34.5459C54.1768 34.8877 54.1176 35.209 53.9991 35.5098C53.8806 35.806 53.7028 36.0658 53.4659 36.2891C53.2334 36.5124 52.9441 36.6878 52.5977 36.8154C52.2559 36.9385 51.8617 37 51.4151 37H48.2705V29.6035H49.5352V35.9609H51.4151C51.7797 35.9609 52.0713 35.8949 52.2901 35.7627C52.5088 35.6305 52.6661 35.4596 52.7618 35.25C52.8575 35.0404 52.9053 34.8216 52.9053 34.5938C52.9053 34.3704 52.8575 34.1517 52.7618 33.9375C52.6661 33.7233 52.5088 33.5456 52.2901 33.4043C52.0713 33.2585 51.7797 33.1855 51.4151 33.1855H49.1934V32.1465ZM56.8086 29.6035V37H55.544V29.6035H56.8086Z" fill="#747474"/>
</svg>
