<svg width="81" height="41" viewBox="0 0 81 41" fill="none" xmlns="http://www.w3.org/2000/svg">
<path d="M40.5 2C34.98 2 30.5 6.48 30.5 12C30.5 17.52 34.98 22 40.5 22C46.02 22 50.5 17.52 50.5 12C50.5 6.48 46.02 2 40.5 2ZM35.85 18.5C37.16 17.56 38.76 17 40.5 17C42.24 17 43.84 17.56 45.15 18.5C43.84 19.44 42.24 20 40.5 20C38.76 20 37.16 19.44 35.85 18.5ZM46.64 17.12C44.95 15.8 42.82 15 40.5 15C38.18 15 36.05 15.8 34.36 17.12C33.2 15.73 32.5 13.95 32.5 12C32.5 7.58 36.08 4 40.5 4C44.92 4 48.5 7.58 48.5 12C48.5 13.95 47.8 15.73 46.64 17.12Z" fill="#747474"/>
<path d="M40.5 6C38.57 6 37 7.57 37 9.5C37 11.43 38.57 13 40.5 13C42.43 13 44 11.43 44 9.5C44 7.57 42.43 6 40.5 6ZM40.5 11C39.67 11 39 10.33 39 9.5C39 8.67 39.67 8 40.5 8C41.33 8 42 8.67 42 9.5C42 10.33 41.33 11 40.5 11Z" fill="#747474"/>
<path d="M10.8867 27.0469V37H9.56738V27.0469H10.8867ZM17.0186 27.0469L12.6982 32.5225H10.3604L10.1553 31.4287H11.9121L15.3848 27.0469H17.0186ZM15.6924 37L11.9531 32.3516L12.6914 31.1963L17.3057 37H15.6924ZM17.7842 33.3838V33.2266C17.7842 32.6934 17.8617 32.1989 18.0166 31.7432C18.1715 31.2829 18.3949 30.8841 18.6865 30.5469C18.9782 30.2051 19.3314 29.9408 19.7461 29.7539C20.1608 29.5625 20.6257 29.4668 21.1406 29.4668C21.6602 29.4668 22.1273 29.5625 22.542 29.7539C22.9613 29.9408 23.3167 30.2051 23.6084 30.5469C23.9046 30.8841 24.1302 31.2829 24.2852 31.7432C24.4401 32.1989 24.5176 32.6934 24.5176 33.2266V33.3838C24.5176 33.917 24.4401 34.4115 24.2852 34.8672C24.1302 35.3229 23.9046 35.7217 23.6084 36.0635C23.3167 36.4007 22.9635 36.665 22.5488 36.8564C22.1387 37.0433 21.6738 37.1367 21.1543 37.1367C20.6348 37.1367 20.1676 37.0433 19.7529 36.8564C19.3382 36.665 18.9827 36.4007 18.6865 36.0635C18.3949 35.7217 18.1715 35.3229 18.0166 34.8672C17.8617 34.4115 17.7842 33.917 17.7842 33.3838ZM19.0488 33.2266V33.3838C19.0488 33.7529 19.0921 34.1016 19.1787 34.4297C19.2653 34.7533 19.3952 35.0404 19.5684 35.291C19.7461 35.5417 19.9671 35.7399 20.2314 35.8857C20.4958 36.027 20.8034 36.0977 21.1543 36.0977C21.5007 36.0977 21.8037 36.027 22.0635 35.8857C22.3278 35.7399 22.5465 35.5417 22.7197 35.291C22.8929 35.0404 23.0228 34.7533 23.1094 34.4297C23.2005 34.1016 23.2461 33.7529 23.2461 33.3838V33.2266C23.2461 32.862 23.2005 32.5179 23.1094 32.1943C23.0228 31.8662 22.8906 31.5768 22.7129 31.3262C22.5397 31.071 22.321 30.8704 22.0566 30.7246C21.7969 30.5788 21.4915 30.5059 21.1406 30.5059C20.7943 30.5059 20.4889 30.5788 20.2246 30.7246C19.9648 30.8704 19.7461 31.071 19.5684 31.3262C19.3952 31.5768 19.2653 31.8662 19.1787 32.1943C19.0921 32.5179 19.0488 32.862 19.0488 33.2266ZM31.1211 32.8096V33.835H27.2109V32.8096H31.1211ZM27.4775 29.6035V37H26.2129V29.6035H27.4775ZM32.1465 29.6035V37H30.875V29.6035H32.1465ZM37.1982 29.6035V37H35.9268V29.6035H37.1982ZM39.6797 29.6035V30.6289H33.4932V29.6035H39.6797ZM45.1758 35.7354V31.9277C45.1758 31.6361 45.1165 31.3831 44.998 31.1689C44.8841 30.9502 44.7109 30.7816 44.4785 30.6631C44.2461 30.5446 43.959 30.4854 43.6172 30.4854C43.2982 30.4854 43.0179 30.54 42.7764 30.6494C42.5394 30.7588 42.3525 30.9023 42.2158 31.0801C42.0837 31.2578 42.0176 31.4492 42.0176 31.6543H40.7529C40.7529 31.39 40.8213 31.1279 40.958 30.8682C41.0947 30.6084 41.2907 30.3737 41.5459 30.1641C41.8057 29.9499 42.1156 29.7812 42.4756 29.6582C42.8402 29.5306 43.2458 29.4668 43.6924 29.4668C44.2301 29.4668 44.7041 29.5579 45.1143 29.7402C45.529 29.9225 45.8525 30.1982 46.085 30.5674C46.3219 30.932 46.4404 31.39 46.4404 31.9414V35.3867C46.4404 35.6328 46.4609 35.8949 46.502 36.1729C46.5475 36.4508 46.6136 36.6901 46.7002 36.8906V37H45.3809C45.3171 36.8542 45.2669 36.6605 45.2305 36.4189C45.194 36.1729 45.1758 35.945 45.1758 35.7354ZM45.3945 32.5156L45.4082 33.4043H44.1299C43.7699 33.4043 43.4486 33.4339 43.166 33.4932C42.8835 33.5479 42.6465 33.6322 42.4551 33.7461C42.2637 33.86 42.1178 34.0036 42.0176 34.1768C41.9173 34.3454 41.8672 34.5436 41.8672 34.7715C41.8672 35.0039 41.9196 35.2158 42.0244 35.4072C42.1292 35.5986 42.2865 35.7513 42.4961 35.8652C42.7103 35.9746 42.9723 36.0293 43.2822 36.0293C43.6696 36.0293 44.0114 35.9473 44.3076 35.7832C44.6038 35.6191 44.8385 35.4186 45.0117 35.1816C45.1895 34.9447 45.2852 34.7145 45.2988 34.4912L45.8389 35.0996C45.807 35.291 45.7204 35.5029 45.5791 35.7354C45.4378 35.9678 45.2487 36.1911 45.0117 36.4053C44.7793 36.6149 44.5013 36.7904 44.1777 36.9316C43.8587 37.0684 43.4987 37.1367 43.0977 37.1367C42.5964 37.1367 42.1566 37.0387 41.7783 36.8428C41.4046 36.6468 41.113 36.3848 40.9033 36.0566C40.6982 35.724 40.5957 35.3525 40.5957 34.9424C40.5957 34.5459 40.6732 34.1973 40.8281 33.8965C40.9831 33.5911 41.2064 33.3382 41.498 33.1377C41.7897 32.9326 42.1406 32.7777 42.5508 32.6729C42.9609 32.568 43.4189 32.5156 43.9248 32.5156H45.3945ZM49.8037 29.6035V37H48.5391V29.6035H49.8037ZM54.6572 29.6035L51.1504 33.8418H49.3799L49.1885 32.7344H50.6377L53.1191 29.6035H54.6572ZM53.2969 37L50.5762 33.6504L51.3896 32.7344L54.9033 37H53.2969ZM59.0186 29.6035V37H57.7471V29.6035H59.0186ZM61.5 29.6035V30.6289H55.3135V29.6035H61.5ZM63.7832 32.1465H66.0049C66.6019 32.1465 67.1055 32.2513 67.5156 32.4609C67.9258 32.666 68.2357 32.9508 68.4453 33.3154C68.6595 33.6755 68.7666 34.0856 68.7666 34.5459C68.7666 34.8877 68.7074 35.209 68.5889 35.5098C68.4704 35.806 68.2926 36.0658 68.0557 36.2891C67.8232 36.5124 67.5339 36.6878 67.1875 36.8154C66.8457 36.9385 66.4515 37 66.0049 37H62.8604V29.6035H64.125V35.9609H66.0049C66.3695 35.9609 66.6611 35.8949 66.8799 35.7627C67.0986 35.6305 67.2559 35.4596 67.3516 35.25C67.4473 35.0404 67.4951 34.8216 67.4951 34.5938C67.4951 34.3704 67.4473 34.1517 67.3516 33.9375C67.2559 33.7233 67.0986 33.5456 66.8799 33.4043C66.6611 33.2585 66.3695 33.1855 66.0049 33.1855H63.7832V32.1465ZM71.3984 29.6035V37H70.1338V29.6035H71.3984Z" fill="#747474"/>
</svg>
