<svg width="81" height="41" viewBox="0 0 81 41" fill="none" xmlns="http://www.w3.org/2000/svg">
<path d="M45 15.2603L41.4363 5.18776C41.1119 4.27075 39.8881 4.27075 39.5637 5.18776L36 15.2603L34.5 19.5M36 15.2603H45M45 15.2603L46.5 19.5" stroke="#747474" stroke-width="2" stroke-linecap="square"/>
<path d="M18.3174 33.835H19.6299C19.5615 34.4639 19.3815 35.0267 19.0898 35.5234C18.7982 36.0202 18.3857 36.4144 17.8525 36.7061C17.3193 36.9932 16.654 37.1367 15.8564 37.1367C15.2731 37.1367 14.7422 37.0273 14.2637 36.8086C13.7897 36.5898 13.3818 36.2799 13.04 35.8789C12.6982 35.4733 12.4339 34.988 12.2471 34.4229C12.0648 33.8532 11.9736 33.2197 11.9736 32.5225V31.5312C11.9736 30.834 12.0648 30.2028 12.2471 29.6377C12.4339 29.068 12.7005 28.5804 13.0469 28.1748C13.3978 27.7692 13.8193 27.457 14.3115 27.2383C14.8037 27.0195 15.3574 26.9102 15.9727 26.9102C16.7246 26.9102 17.3604 27.0514 17.8799 27.334C18.3994 27.6165 18.8027 28.0085 19.0898 28.5098C19.3815 29.0065 19.5615 29.583 19.6299 30.2393H18.3174C18.2536 29.7744 18.1351 29.3757 17.9619 29.043C17.7887 28.7057 17.5426 28.446 17.2236 28.2637C16.9046 28.0814 16.4876 27.9902 15.9727 27.9902C15.5306 27.9902 15.141 28.0745 14.8037 28.2432C14.471 28.4118 14.1908 28.651 13.9629 28.9609C13.7396 29.2708 13.571 29.6423 13.457 30.0752C13.3431 30.5081 13.2861 30.9889 13.2861 31.5176V32.5225C13.2861 33.0101 13.3363 33.4681 13.4365 33.8965C13.5413 34.3249 13.6986 34.7008 13.9082 35.0244C14.1178 35.348 14.3844 35.6032 14.708 35.79C15.0316 35.9723 15.4144 36.0635 15.8564 36.0635C16.417 36.0635 16.8636 35.9746 17.1963 35.7969C17.529 35.6191 17.7796 35.3639 17.9482 35.0312C18.1214 34.6986 18.2445 34.2998 18.3174 33.835ZM24.3057 37.1367C23.7907 37.1367 23.3236 37.0501 22.9043 36.877C22.4896 36.6992 22.1318 36.4508 21.8311 36.1318C21.5348 35.8128 21.307 35.4346 21.1475 34.9971C20.988 34.5596 20.9082 34.0811 20.9082 33.5615V33.2744C20.9082 32.6729 20.9971 32.1374 21.1748 31.668C21.3525 31.194 21.5941 30.793 21.8994 30.4648C22.2048 30.1367 22.5511 29.8883 22.9385 29.7197C23.3258 29.5511 23.7269 29.4668 24.1416 29.4668C24.6702 29.4668 25.126 29.5579 25.5088 29.7402C25.8962 29.9225 26.2129 30.1777 26.459 30.5059C26.7051 30.8294 26.8874 31.2122 27.0059 31.6543C27.1243 32.0918 27.1836 32.5703 27.1836 33.0898V33.6572H21.6602V32.625H25.9189V32.5293C25.9007 32.2012 25.8324 31.8822 25.7139 31.5723C25.5999 31.2624 25.4176 31.0072 25.167 30.8066C24.9163 30.6061 24.5745 30.5059 24.1416 30.5059C23.8545 30.5059 23.5902 30.5674 23.3486 30.6904C23.1071 30.8089 22.8997 30.9867 22.7266 31.2236C22.5534 31.4606 22.4189 31.75 22.3232 32.0918C22.2275 32.4336 22.1797 32.8278 22.1797 33.2744V33.5615C22.1797 33.9124 22.2275 34.2428 22.3232 34.5527C22.4235 34.8581 22.5671 35.127 22.7539 35.3594C22.9453 35.5918 23.1755 35.7741 23.4443 35.9062C23.7178 36.0384 24.0277 36.1045 24.374 36.1045C24.8206 36.1045 25.1989 36.0133 25.5088 35.8311C25.8187 35.6488 26.0898 35.4049 26.3223 35.0996L27.0879 35.708C26.9284 35.9495 26.7256 36.1797 26.4795 36.3984C26.2334 36.6172 25.9303 36.7949 25.5703 36.9316C25.2148 37.0684 24.7933 37.1367 24.3057 37.1367ZM29.9248 31.0254V39.8438H28.6533V29.6035H29.8154L29.9248 31.0254ZM34.9082 33.2402V33.3838C34.9082 33.9215 34.8444 34.4206 34.7168 34.8809C34.5892 35.3366 34.4023 35.7331 34.1562 36.0703C33.9147 36.4076 33.6162 36.6696 33.2607 36.8564C32.9053 37.0433 32.4974 37.1367 32.0371 37.1367C31.5677 37.1367 31.153 37.0592 30.793 36.9043C30.4329 36.7493 30.1276 36.5238 29.877 36.2275C29.6263 35.9313 29.4258 35.5758 29.2754 35.1611C29.1296 34.7464 29.0293 34.2793 28.9746 33.7598V32.9941C29.0293 32.4473 29.1318 31.9574 29.2822 31.5244C29.4326 31.0915 29.6309 30.7223 29.877 30.417C30.1276 30.1071 30.4307 29.8724 30.7861 29.7129C31.1416 29.5488 31.5518 29.4668 32.0166 29.4668C32.4814 29.4668 32.8939 29.5579 33.2539 29.7402C33.6139 29.918 33.917 30.1732 34.1631 30.5059C34.4092 30.8385 34.5938 31.2373 34.7168 31.7021C34.8444 32.1624 34.9082 32.6751 34.9082 33.2402ZM33.6367 33.3838V33.2402C33.6367 32.8711 33.598 32.5247 33.5205 32.2012C33.443 31.873 33.3223 31.5859 33.1582 31.3398C32.9987 31.0892 32.7936 30.8932 32.543 30.752C32.2923 30.6061 31.9938 30.5332 31.6475 30.5332C31.3285 30.5332 31.0505 30.5879 30.8135 30.6973C30.5811 30.8066 30.3828 30.9548 30.2188 31.1416C30.0547 31.3239 29.9202 31.5335 29.8154 31.7705C29.7152 32.0029 29.64 32.2445 29.5898 32.4951V34.2656C29.681 34.5846 29.8086 34.8854 29.9727 35.168C30.1367 35.446 30.3555 35.6715 30.6289 35.8447C30.9023 36.0133 31.2464 36.0977 31.6611 36.0977C32.0029 36.0977 32.2969 36.027 32.543 35.8857C32.7936 35.7399 32.9987 35.5417 33.1582 35.291C33.3223 35.0404 33.443 34.7533 33.5205 34.4297C33.598 34.1016 33.6367 33.7529 33.6367 33.3838ZM39.9941 33.7461H37.5674L37.5537 32.7344H39.5361C39.9281 32.7344 40.2539 32.6956 40.5137 32.6182C40.778 32.5407 40.9762 32.4245 41.1084 32.2695C41.2406 32.1146 41.3066 31.9232 41.3066 31.6953C41.3066 31.5176 41.2679 31.3626 41.1904 31.2305C41.1175 31.0938 41.0059 30.9821 40.8555 30.8955C40.7051 30.8044 40.5182 30.7383 40.2949 30.6973C40.0762 30.6517 39.8187 30.6289 39.5225 30.6289H37.9023V37H36.6377V29.6035H39.5225C39.9919 29.6035 40.4134 29.6445 40.7871 29.7266C41.1654 29.8086 41.4867 29.9339 41.751 30.1025C42.0199 30.2666 42.2249 30.4762 42.3662 30.7314C42.5075 30.9867 42.5781 31.2874 42.5781 31.6338C42.5781 31.8571 42.5326 32.069 42.4414 32.2695C42.3503 32.4701 42.2158 32.6478 42.0381 32.8027C41.8604 32.9577 41.6416 33.0853 41.3818 33.1855C41.1221 33.2812 40.8236 33.3428 40.4863 33.3701L39.9941 33.7461ZM39.9941 37H37.1094L37.7383 35.9746H39.9941C40.3451 35.9746 40.6367 35.9313 40.8691 35.8447C41.1016 35.7536 41.2747 35.626 41.3887 35.4619C41.5072 35.2933 41.5664 35.0928 41.5664 34.8604C41.5664 34.6279 41.5072 34.4297 41.3887 34.2656C41.2747 34.097 41.1016 33.9694 40.8691 33.8828C40.6367 33.7917 40.3451 33.7461 39.9941 33.7461H38.0732L38.0869 32.7344H40.4863L40.9443 33.1172C41.3499 33.1491 41.694 33.2493 41.9766 33.418C42.2591 33.5866 42.4733 33.8008 42.6191 34.0605C42.765 34.3158 42.8379 34.5938 42.8379 34.8945C42.8379 35.2409 42.7718 35.5462 42.6396 35.8105C42.512 36.0749 42.3252 36.2959 42.0791 36.4736C41.833 36.6468 41.5345 36.779 41.1836 36.8701C40.8327 36.9567 40.4362 37 39.9941 37ZM45.9004 34.9971L49.3115 29.6035H50.583V37H49.3115V31.6064L45.9004 37H44.6426V29.6035H45.9004V34.9971ZM55.5732 36.0977C55.874 36.0977 56.152 36.0361 56.4072 35.9131C56.6624 35.79 56.8721 35.6214 57.0361 35.4072C57.2002 35.1885 57.2936 34.9401 57.3164 34.6621H58.5195C58.4967 35.0996 58.3486 35.5075 58.0752 35.8857C57.8063 36.2594 57.4531 36.5625 57.0156 36.7949C56.5781 37.0228 56.0973 37.1367 55.5732 37.1367C55.0173 37.1367 54.5319 37.0387 54.1172 36.8428C53.707 36.6468 53.3652 36.3779 53.0918 36.0361C52.8229 35.6943 52.6201 35.3024 52.4834 34.8604C52.3512 34.4137 52.2852 33.9421 52.2852 33.4453V33.1582C52.2852 32.6615 52.3512 32.1921 52.4834 31.75C52.6201 31.3034 52.8229 30.9092 53.0918 30.5674C53.3652 30.2256 53.707 29.9567 54.1172 29.7607C54.5319 29.5648 55.0173 29.4668 55.5732 29.4668C56.152 29.4668 56.6579 29.5853 57.0908 29.8223C57.5238 30.0547 57.8633 30.3737 58.1094 30.7793C58.36 31.1803 58.4967 31.6361 58.5195 32.1465H57.3164C57.2936 31.8411 57.207 31.5654 57.0566 31.3193C56.9108 31.0732 56.7103 30.8773 56.4551 30.7314C56.2044 30.5811 55.9105 30.5059 55.5732 30.5059C55.1859 30.5059 54.86 30.5833 54.5957 30.7383C54.3359 30.8887 54.1286 31.0938 53.9736 31.3535C53.8232 31.6087 53.7139 31.8936 53.6455 32.208C53.5817 32.5179 53.5498 32.8346 53.5498 33.1582V33.4453C53.5498 33.7689 53.5817 34.0879 53.6455 34.4023C53.7093 34.7168 53.8164 35.0016 53.9668 35.2568C54.1217 35.512 54.3291 35.7171 54.5889 35.8721C54.8532 36.0225 55.1813 36.0977 55.5732 36.0977ZM60.9805 32.1465H63.2021C63.7992 32.1465 64.3027 32.2513 64.7129 32.4609C65.123 32.666 65.4329 32.9508 65.6426 33.3154C65.8568 33.6755 65.9639 34.0856 65.9639 34.5459C65.9639 34.8877 65.9046 35.209 65.7861 35.5098C65.6676 35.806 65.4899 36.0658 65.2529 36.2891C65.0205 36.5124 64.7311 36.6878 64.3848 36.8154C64.043 36.9385 63.6488 37 63.2021 37H60.0576V29.6035H61.3223V35.9609H63.2021C63.5667 35.9609 63.8584 35.8949 64.0771 35.7627C64.2959 35.6305 64.4531 35.4596 64.5488 35.25C64.6445 35.0404 64.6924 34.8216 64.6924 34.5938C64.6924 34.3704 64.6445 34.1517 64.5488 33.9375C64.4531 33.7233 64.2959 33.5456 64.0771 33.4043C63.8584 33.2585 63.5667 33.1855 63.2021 33.1855H60.9805V32.1465ZM68.5957 29.6035V37H67.3311V29.6035H68.5957Z" fill="#747474"/>
</svg>
