<svg width="82" height="41" viewBox="0 0 82 41" fill="none" xmlns="http://www.w3.org/2000/svg">
<path d="M48.4328 12.98C48.4728 12.66 48.5028 12.34 48.5028 12C48.5028 11.66 48.4728 11.34 48.4328 11.02L50.5428 9.37C50.7328 9.22 50.7828 8.95 50.6628 8.73L48.6628 5.27C48.5728 5.11 48.4028 5.02 48.2228 5.02C48.1628 5.02 48.1028 5.03 48.0528 5.05L45.5628 6.05C45.0428 5.65 44.4828 5.32 43.8728 5.07L43.4928 2.42C43.4628 2.18 43.2528 2 43.0028 2H39.0028C38.7528 2 38.5428 2.18 38.5128 2.42L38.1328 5.07C37.5228 5.32 36.9628 5.66 36.4428 6.05L33.9528 5.05C33.8928 5.03 33.8328 5.02 33.7728 5.02C33.6028 5.02 33.4328 5.11 33.3428 5.27L31.3428 8.73C31.2128 8.95 31.2728 9.22 31.4628 9.37L33.5728 11.02C33.5328 11.34 33.5028 11.67 33.5028 12C33.5028 12.33 33.5328 12.66 33.5728 12.98L31.4628 14.63C31.2728 14.78 31.2228 15.05 31.3428 15.27L33.3428 18.73C33.4328 18.89 33.6028 18.98 33.7828 18.98C33.8428 18.98 33.9028 18.97 33.9528 18.95L36.4428 17.95C36.9628 18.35 37.5228 18.68 38.1328 18.93L38.5128 21.58C38.5428 21.82 38.7528 22 39.0028 22H43.0028C43.2528 22 43.4628 21.82 43.4928 21.58L43.8728 18.93C44.4828 18.68 45.0428 18.34 45.5628 17.95L48.0528 18.95C48.1128 18.97 48.1728 18.98 48.2328 18.98C48.4028 18.98 48.5728 18.89 48.6628 18.73L50.6628 15.27C50.7828 15.05 50.7328 14.78 50.5428 14.63L48.4328 12.98ZM46.4528 11.27C46.4928 11.58 46.5028 11.79 46.5028 12C46.5028 12.21 46.4828 12.43 46.4528 12.73L46.3128 13.86L47.2028 14.56L48.2828 15.4L47.5828 16.61L46.3128 16.1L45.2728 15.68L44.3728 16.36C43.9428 16.68 43.5328 16.92 43.1228 17.09L42.0628 17.52L41.9028 18.65L41.7028 20H40.3028L39.9528 17.52L38.8928 17.09C38.4628 16.91 38.0628 16.68 37.6628 16.38L36.7528 15.68L35.6928 16.11L34.4228 16.62L33.7228 15.41L34.8028 14.57L35.6928 13.87L35.5528 12.74C35.5228 12.43 35.5028 12.2 35.5028 12C35.5028 11.8 35.5228 11.57 35.5528 11.27L35.6928 10.14L34.8028 9.44L33.7228 8.6L34.4228 7.39L35.6928 7.9L36.7328 8.32L37.6328 7.64C38.0628 7.32 38.4728 7.08 38.8828 6.91L39.9428 6.48L40.1028 5.35L40.3028 4H41.6928L42.0428 6.48L43.1028 6.91C43.5328 7.09 43.9328 7.32 44.3328 7.62L45.2428 8.32L46.3028 7.89L47.5728 7.38L48.2728 8.59L47.2028 9.44L46.3128 10.14L46.4528 11.27ZM41.0028 8C38.7928 8 37.0028 9.79 37.0028 12C37.0028 14.21 38.7928 16 41.0028 16C43.2128 16 45.0028 14.21 45.0028 12C45.0028 9.79 43.2128 8 41.0028 8ZM41.0028 14C39.9028 14 39.0028 13.1 39.0028 12C39.0028 10.9 39.9028 10 41.0028 10C42.1028 10 43.0028 10.9 43.0028 12C43.0028 13.1 42.1028 14 41.0028 14Z" fill="#747474"/>
<path d="M13.0273 31.3262V32.3994H7.64062V31.3262H13.0273ZM7.8457 27.0469V37H6.52637V27.0469H7.8457ZM14.1758 27.0469V37H12.8633V27.0469H14.1758ZM20.6904 35.7354V31.9277C20.6904 31.6361 20.6312 31.3831 20.5127 31.1689C20.3988 30.9502 20.2256 30.7816 19.9932 30.6631C19.7607 30.5446 19.4736 30.4854 19.1318 30.4854C18.8128 30.4854 18.5326 30.54 18.291 30.6494C18.054 30.7588 17.8672 30.9023 17.7305 31.0801C17.5983 31.2578 17.5322 31.4492 17.5322 31.6543H16.2676C16.2676 31.39 16.3359 31.1279 16.4727 30.8682C16.6094 30.6084 16.8053 30.3737 17.0605 30.1641C17.3203 29.9499 17.6302 29.7812 17.9902 29.6582C18.3548 29.5306 18.7604 29.4668 19.207 29.4668C19.7448 29.4668 20.2188 29.5579 20.6289 29.7402C21.0436 29.9225 21.3672 30.1982 21.5996 30.5674C21.8366 30.932 21.9551 31.39 21.9551 31.9414V35.3867C21.9551 35.6328 21.9756 35.8949 22.0166 36.1729C22.0622 36.4508 22.1283 36.6901 22.2148 36.8906V37H20.8955C20.8317 36.8542 20.7816 36.6605 20.7451 36.4189C20.7087 36.1729 20.6904 35.945 20.6904 35.7354ZM20.9092 32.5156L20.9229 33.4043H19.6445C19.2845 33.4043 18.9632 33.4339 18.6807 33.4932C18.3981 33.5479 18.1611 33.6322 17.9697 33.7461C17.7783 33.86 17.6325 34.0036 17.5322 34.1768C17.432 34.3454 17.3818 34.5436 17.3818 34.7715C17.3818 35.0039 17.4342 35.2158 17.5391 35.4072C17.6439 35.5986 17.8011 35.7513 18.0107 35.8652C18.2249 35.9746 18.487 36.0293 18.7969 36.0293C19.1842 36.0293 19.526 35.9473 19.8223 35.7832C20.1185 35.6191 20.3532 35.4186 20.5264 35.1816C20.7041 34.9447 20.7998 34.7145 20.8135 34.4912L21.3535 35.0996C21.3216 35.291 21.235 35.5029 21.0938 35.7354C20.9525 35.9678 20.7633 36.1911 20.5264 36.4053C20.2939 36.6149 20.016 36.7904 19.6924 36.9316C19.3734 37.0684 19.0133 37.1367 18.6123 37.1367C18.111 37.1367 17.6712 37.0387 17.293 36.8428C16.9193 36.6468 16.6276 36.3848 16.418 36.0566C16.2129 35.724 16.1104 35.3525 16.1104 34.9424C16.1104 34.5459 16.1878 34.1973 16.3428 33.8965C16.4977 33.5911 16.721 33.3382 17.0127 33.1377C17.3044 32.9326 17.6553 32.7777 18.0654 32.6729C18.4756 32.568 18.9336 32.5156 19.4395 32.5156H20.9092ZM26.9043 36.0977C27.2051 36.0977 27.4831 36.0361 27.7383 35.9131C27.9935 35.79 28.2031 35.6214 28.3672 35.4072C28.5312 35.1885 28.6247 34.9401 28.6475 34.6621H29.8506C29.8278 35.0996 29.6797 35.5075 29.4062 35.8857C29.1374 36.2594 28.7842 36.5625 28.3467 36.7949C27.9092 37.0228 27.4284 37.1367 26.9043 37.1367C26.3483 37.1367 25.863 37.0387 25.4482 36.8428C25.0381 36.6468 24.6963 36.3779 24.4229 36.0361C24.154 35.6943 23.9512 35.3024 23.8145 34.8604C23.6823 34.4137 23.6162 33.9421 23.6162 33.4453V33.1582C23.6162 32.6615 23.6823 32.1921 23.8145 31.75C23.9512 31.3034 24.154 30.9092 24.4229 30.5674C24.6963 30.2256 25.0381 29.9567 25.4482 29.7607C25.863 29.5648 26.3483 29.4668 26.9043 29.4668C27.4831 29.4668 27.9889 29.5853 28.4219 29.8223C28.8548 30.0547 29.1943 30.3737 29.4404 30.7793C29.6911 31.1803 29.8278 31.6361 29.8506 32.1465H28.6475C28.6247 31.8411 28.5381 31.5654 28.3877 31.3193C28.2419 31.0732 28.0413 30.8773 27.7861 30.7314C27.5355 30.5811 27.2415 30.5059 26.9043 30.5059C26.5169 30.5059 26.1911 30.5833 25.9268 30.7383C25.667 30.8887 25.4596 31.0938 25.3047 31.3535C25.1543 31.6087 25.0449 31.8936 24.9766 32.208C24.9128 32.5179 24.8809 32.8346 24.8809 33.1582V33.4453C24.8809 33.7689 24.9128 34.0879 24.9766 34.4023C25.0404 34.7168 25.1475 35.0016 25.2979 35.2568C25.4528 35.512 25.6602 35.7171 25.9199 35.8721C26.1842 36.0225 26.5124 36.0977 26.9043 36.0977ZM34.2871 29.6035V37H33.0156V29.6035H34.2871ZM36.7686 29.6035V30.6289H30.582V29.6035H36.7686ZM39.2773 31.0254V39.8438H38.0059V29.6035H39.168L39.2773 31.0254ZM44.2607 33.2402V33.3838C44.2607 33.9215 44.1969 34.4206 44.0693 34.8809C43.9417 35.3366 43.7549 35.7331 43.5088 36.0703C43.2673 36.4076 42.9688 36.6696 42.6133 36.8564C42.2578 37.0433 41.8499 37.1367 41.3896 37.1367C40.9202 37.1367 40.5055 37.0592 40.1455 36.9043C39.7855 36.7493 39.4801 36.5238 39.2295 36.2275C38.9788 35.9313 38.7783 35.5758 38.6279 35.1611C38.4821 34.7464 38.3818 34.2793 38.3271 33.7598V32.9941C38.3818 32.4473 38.4844 31.9574 38.6348 31.5244C38.7852 31.0915 38.9834 30.7223 39.2295 30.417C39.4801 30.1071 39.7832 29.8724 40.1387 29.7129C40.4941 29.5488 40.9043 29.4668 41.3691 29.4668C41.834 29.4668 42.2464 29.5579 42.6064 29.7402C42.9665 29.918 43.2695 30.1732 43.5156 30.5059C43.7617 30.8385 43.9463 31.2373 44.0693 31.7021C44.1969 32.1624 44.2607 32.6751 44.2607 33.2402ZM42.9893 33.3838V33.2402C42.9893 32.8711 42.9505 32.5247 42.873 32.2012C42.7956 31.873 42.6748 31.5859 42.5107 31.3398C42.3512 31.0892 42.1462 30.8932 41.8955 30.752C41.6449 30.6061 41.3464 30.5332 41 30.5332C40.681 30.5332 40.403 30.5879 40.166 30.6973C39.9336 30.8066 39.7354 30.9548 39.5713 31.1416C39.4072 31.3239 39.2728 31.5335 39.168 31.7705C39.0677 32.0029 38.9925 32.2445 38.9424 32.4951V34.2656C39.0335 34.5846 39.1611 34.8854 39.3252 35.168C39.4893 35.446 39.708 35.6715 39.9814 35.8447C40.2549 36.0133 40.599 36.0977 41.0137 36.0977C41.3555 36.0977 41.6494 36.027 41.8955 35.8857C42.1462 35.7399 42.3512 35.5417 42.5107 35.291C42.6748 35.0404 42.7956 34.7533 42.873 34.4297C42.9505 34.1016 42.9893 33.7529 42.9893 33.3838ZM45.5391 33.3838V33.2266C45.5391 32.6934 45.6165 32.1989 45.7715 31.7432C45.9264 31.2829 46.1497 30.8841 46.4414 30.5469C46.7331 30.2051 47.0863 29.9408 47.501 29.7539C47.9157 29.5625 48.3805 29.4668 48.8955 29.4668C49.415 29.4668 49.8822 29.5625 50.2969 29.7539C50.7161 29.9408 51.0716 30.2051 51.3633 30.5469C51.6595 30.8841 51.8851 31.2829 52.04 31.7432C52.195 32.1989 52.2725 32.6934 52.2725 33.2266V33.3838C52.2725 33.917 52.195 34.4115 52.04 34.8672C51.8851 35.3229 51.6595 35.7217 51.3633 36.0635C51.0716 36.4007 50.7184 36.665 50.3037 36.8564C49.8936 37.0433 49.4287 37.1367 48.9092 37.1367C48.3896 37.1367 47.9225 37.0433 47.5078 36.8564C47.0931 36.665 46.7376 36.4007 46.4414 36.0635C46.1497 35.7217 45.9264 35.3229 45.7715 34.8672C45.6165 34.4115 45.5391 33.917 45.5391 33.3838ZM46.8037 33.2266V33.3838C46.8037 33.7529 46.847 34.1016 46.9336 34.4297C47.0202 34.7533 47.1501 35.0404 47.3232 35.291C47.501 35.5417 47.722 35.7399 47.9863 35.8857C48.2507 36.027 48.5583 36.0977 48.9092 36.0977C49.2555 36.0977 49.5586 36.027 49.8184 35.8857C50.0827 35.7399 50.3014 35.5417 50.4746 35.291C50.6478 35.0404 50.7777 34.7533 50.8643 34.4297C50.9554 34.1016 51.001 33.7529 51.001 33.3838V33.2266C51.001 32.862 50.9554 32.5179 50.8643 32.1943C50.7777 31.8662 50.6455 31.5768 50.4678 31.3262C50.2946 31.071 50.0758 30.8704 49.8115 30.7246C49.5518 30.5788 49.2464 30.5059 48.8955 30.5059C48.5492 30.5059 48.2438 30.5788 47.9795 30.7246C47.7197 30.8704 47.501 31.071 47.3232 31.3262C47.1501 31.5768 47.0202 31.8662 46.9336 32.1943C46.847 32.5179 46.8037 32.862 46.8037 33.2266ZM55.2256 34.9971L58.6367 29.6035H59.9082V37H58.6367V31.6064L55.2256 37H53.9678V29.6035H55.2256V34.9971ZM57.9463 26.9238H58.9717C58.9717 27.2793 58.8896 27.596 58.7256 27.874C58.5615 28.1475 58.3268 28.3617 58.0215 28.5166C57.7161 28.6715 57.3538 28.749 56.9346 28.749C56.3011 28.749 55.7998 28.5804 55.4307 28.2432C55.0661 27.9014 54.8838 27.4616 54.8838 26.9238H55.9092C55.9092 27.1927 55.9867 27.4297 56.1416 27.6348C56.2965 27.8398 56.5609 27.9424 56.9346 27.9424C57.2992 27.9424 57.5589 27.8398 57.7139 27.6348C57.8688 27.4297 57.9463 27.1927 57.9463 26.9238ZM63.3125 29.6035V37H62.0479V29.6035H63.3125ZM68.166 29.6035L64.6592 33.8418H62.8887L62.6973 32.7344H64.1465L66.6279 29.6035H68.166ZM66.8057 37L64.085 33.6504L64.8984 32.7344L68.4121 37H66.8057ZM70.8799 34.9971L74.291 29.6035H75.5625V37H74.291V31.6064L70.8799 37H69.6221V29.6035H70.8799V34.9971Z" fill="#747474"/>
</svg>
