<svg width="24" height="24" viewBox="0 0 24 24" fill="none" xmlns="http://www.w3.org/2000/svg">
<path d="M4.33969 2.93359L2.92969 4.34359L7.28969 8.70359L6.99969 9.00359H2.99969V15.0036H6.99969L11.9997 20.0036V13.4136L16.1797 17.5936C15.5297 18.0836 14.7997 18.4736 13.9997 18.7036V20.7636C15.3397 20.4636 16.5697 19.8436 17.6097 19.0136L19.6597 21.0636L21.0697 19.6536L4.33969 2.93359ZM9.99969 15.1736L7.82969 13.0036H4.99969V11.0036H7.82969L8.70969 10.1236L9.99969 11.4136V15.1736ZM18.9997 12.0036C18.9997 12.8236 18.8497 13.6136 18.5897 14.3436L20.1197 15.8736C20.6797 14.7036 20.9997 13.3936 20.9997 12.0036C20.9997 7.72359 18.0097 4.14359 13.9997 3.23359V5.29359C16.8897 6.15359 18.9997 8.83359 18.9997 12.0036ZM11.9997 4.00359L10.1197 5.88359L11.9997 7.76359V4.00359ZM16.4997 12.0036C16.4997 10.2336 15.4797 8.71359 13.9997 7.97359V9.76359L16.4797 12.2436C16.4897 12.1636 16.4997 12.0836 16.4997 12.0036Z" fill="#747474"/>
</svg>
