<svg width="32" height="32" viewBox="0 0 32 32" fill="#747474" xmlns="http://www.w3.org/2000/svg">
  <path
    d="M13.3385 14.6667C16.2852 14.6667 18.6719 12.28 18.6719 9.33333C18.6719 6.38667 16.2852 4 13.3385 4C10.3919 4 8.00521 6.38667 8.00521 9.33333C8.00521 12.28 10.3919 14.6667 13.3385 14.6667ZM13.3385 6.66667C14.8052 6.66667 16.0052 7.86667 16.0052 9.33333C16.0052 10.8 14.8052 12 13.3385 12C11.8719 12 10.6719 10.8 10.6719 9.33333C10.6719 7.86667 11.8719 6.66667 13.3385 6.66667Z"
  />
  <path
    d="M5.33854 22.6667C5.63188 21.7067 9.75187 20 13.3385 20C13.3385 19.0667 13.5119 18.1733 13.8052 17.3467C10.1652 17.2133 2.67188 19.0267 2.67188 22.6667V25.3333H15.3919C14.6985 24.56 14.1519 23.6667 13.8052 22.6667H5.33854Z"
  />
  <path
    d="M25.9119 22.6933C26.3919 21.9067 26.6719 20.9867 26.6719 20C26.6719 17.0533 24.2852 14.6667 21.3385 14.6667C18.3919 14.6667 16.0052 17.0533 16.0052 20C16.0052 22.9467 18.3919 25.3333 21.3385 25.3333C22.3252 25.3333 23.2452 25.04 24.0319 24.5733C25.2719 25.8133 26.1919 26.7333 27.4585 28L29.3385 26.12C27.3385 24.12 28.2852 25.0533 25.9119 22.6933ZM21.3385 22.6667C19.8719 22.6667 18.6719 21.4667 18.6719 20C18.6719 18.5333 19.8719 17.3333 21.3385 17.3333C22.8052 17.3333 24.0052 18.5333 24.0052 20C24.0052 21.4667 22.8052 22.6667 21.3385 22.6667Z"
  />
</svg>
