<svg width="32" height="32" viewBox="0 0 32 32" fill="#747474" xmlns="http://www.w3.org/2000/svg">
  <path fill-rule="evenodd" clip-rule="evenodd"
        d="M1.82126 28.1999C1.32188 27.4897 1.19948 26.5809 1.49317 25.7639L9.1621 4.43058C9.54265 3.37196 10.5466 2.66602 11.6715 2.66602H20.3337C21.4586 2.66602 22.4626 3.37196 22.8431 4.43058L30.5121 25.7639C30.8058 26.5809 30.6834 27.4897 30.184 28.1999C29.6846 28.9101 28.8708 29.3327 28.0026 29.3327H20.7407C19.551 29.3327 18.5051 28.5445 18.1773 27.4007L17.5149 25.0897H14.4903L13.828 27.4007C13.5001 28.5445 12.4543 29.3327 11.2645 29.3327H4.00262C3.13445 29.3327 2.32063 28.9101 1.82126 28.1999ZM12.4806 22.423H19.5247L20.7407 26.666H28.0026L20.3337 5.33268H11.6715L4.00262 26.666H11.2645L12.4806 22.423ZM16.084 10.4184H15.9212L13.7475 18.0026H18.2577L16.084 10.4184Z"
  />
</svg>
