<svg width="32" height="32" viewBox="0 0 32 32" fill="#747474" xmlns="http://www.w3.org/2000/svg">
  <path
    d="M26.5522 17.308C26.607 16.8813 26.6481 16.4546 26.6481 16.0013C26.6481 15.548 26.607 15.1213 26.5522 14.6946L29.4444 12.4946C29.7049 12.2946 29.7734 11.9346 29.6089 11.6413L26.8675 7.02797C26.7441 6.81464 26.5111 6.69463 26.2643 6.69463C26.1821 6.69463 26.0998 6.70797 26.0313 6.73464L22.6182 8.06797C21.9054 7.53464 21.1378 7.09464 20.3016 6.7613L19.7807 3.22797C19.7396 2.90797 19.4518 2.66797 19.1091 2.66797H13.6261C13.2835 2.66797 12.9956 2.90797 12.9545 3.22797L12.4336 6.7613C11.5974 7.09464 10.8298 7.54797 10.117 8.06797L6.70391 6.73464C6.62167 6.70797 6.53942 6.69463 6.45718 6.69463C6.22415 6.69463 5.99113 6.81464 5.86776 7.02797L3.12629 11.6413C2.94809 11.9346 3.03033 12.2946 3.29077 12.4946L6.18303 14.6946C6.1282 15.1213 6.08708 15.5613 6.08708 16.0013C6.08708 16.4413 6.1282 16.8813 6.18303 17.308L3.29077 19.508C3.03033 19.708 2.9618 20.068 3.12629 20.3613L5.86776 24.9746C5.99113 25.188 6.22415 25.308 6.47089 25.308C6.55313 25.308 6.63537 25.2946 6.70391 25.268L10.117 23.9346C10.8298 24.468 11.5974 24.908 12.4336 25.2413L12.9545 28.7746C12.9956 29.0946 13.2835 29.3346 13.6261 29.3346H19.1091C19.4518 29.3346 19.7396 29.0946 19.7807 28.7746L20.3016 25.2413C21.1378 24.908 21.9054 24.4546 22.6182 23.9346L26.0313 25.268C26.1136 25.2946 26.1958 25.308 26.278 25.308C26.5111 25.308 26.7441 25.188 26.8675 24.9746L29.6089 20.3613C29.7734 20.068 29.7049 19.708 29.4444 19.508L26.5522 17.308ZM23.8381 15.028C23.893 15.4413 23.9067 15.7213 23.9067 16.0013C23.9067 16.2813 23.8793 16.5746 23.8381 16.9746L23.6462 18.4813L24.8662 19.4146L26.3466 20.5346L25.3871 22.148L23.6462 21.468L22.2207 20.908L20.987 21.8146C20.3976 22.2413 19.8356 22.5613 19.2736 22.788L17.8206 23.3613L17.6013 24.868L17.3271 26.668H15.4081L14.9283 23.3613L13.4754 22.788C12.8859 22.548 12.3376 22.2413 11.7893 21.8413L10.542 20.908L9.08899 21.4813L7.34816 22.1613L6.38864 20.548L7.86904 19.428L9.08899 18.4946L8.89709 16.988C8.85597 16.5746 8.82855 16.268 8.82855 16.0013C8.82855 15.7346 8.85597 15.428 8.89709 15.028L9.08899 13.5213L7.86904 12.588L6.38864 11.468L7.34816 9.85463L9.08899 10.5346L10.5146 11.0946L11.7482 10.188C12.3376 9.7613 12.8996 9.4413 13.4616 9.21463L14.9146 8.6413L15.1339 7.13463L15.4081 5.33464H17.3134L17.7932 8.6413L19.2462 9.21463C19.8356 9.45463 20.3839 9.7613 20.9322 10.1613L22.1795 11.0946L23.6325 10.5213L25.3734 9.8413L26.3329 11.4546L24.8662 12.588L23.6462 13.5213L23.8381 15.028ZM16.3676 10.668C13.3383 10.668 10.8847 13.0546 10.8847 16.0013C10.8847 18.948 13.3383 21.3346 16.3676 21.3346C19.3969 21.3346 21.8506 18.948 21.8506 16.0013C21.8506 13.0546 19.3969 10.668 16.3676 10.668ZM16.3676 18.668C14.8598 18.668 13.6261 17.468 13.6261 16.0013C13.6261 14.5346 14.8598 13.3346 16.3676 13.3346C17.8754 13.3346 19.1091 14.5346 19.1091 16.0013C19.1091 17.468 17.8754 18.668 16.3676 18.668Z"
  />
</svg>
