<svg width="48" height="48" viewBox="0 0 48 48" fill="none" xmlns="http://www.w3.org/2000/svg">
<path fill-rule="evenodd" clip-rule="evenodd" d="M24 0C37.2548 0 48 10.7452 48 24C48 37.2548 37.2548 48 24 48C10.7452 48 0 37.2548 0 24C0 10.7452 10.7452 0 24 0ZM20 14C19.1716 14 18.5 14.6716 18.5 15.5V32.5C18.5 33.3284 19.1716 34 20 34C20.8284 34 21.5 33.3284 21.5 32.5V15.5C21.5 14.6716 20.8284 14 20 14ZM28 14C27.1716 14 26.5 14.6716 26.5 15.5V32.5C26.5 33.3284 27.1716 34 28 34C28.8284 34 29.5 33.3284 29.5 32.5V15.5C29.5 14.6716 28.8284 14 28 14Z" fill="#7769E1"/>
<path d="M20 14C19.1716 14 18.5 14.6716 18.5 15.5V32.5C18.5 33.3284 19.1716 34 20 34C20.8284 34 21.5 33.3284 21.5 32.5V15.5C21.5 14.6716 20.8284 14 20 14Z" fill="white"/>
<path d="M28 14C27.1716 14 26.5 14.6716 26.5 15.5V32.5C26.5 33.3284 27.1716 34 28 34C28.8284 34 29.5 33.3284 29.5 32.5V15.5C29.5 14.6716 28.8284 14 28 14Z" fill="white"/>
</svg>
