<svg width="36" height="36" viewBox="0 0 36 36" fill="none" xmlns="http://www.w3.org/2000/svg">
<path fill-rule="evenodd" clip-rule="evenodd" d="M18 36C27.9411 36 36 27.9411 36 18C36 8.05887 27.9411 0 18 0C8.05887 0 0 8.05887 0 18C0 27.9411 8.05887 36 18 36ZM25.5 18.924C26.5 18.3466 26.5 16.9033 25.5 16.3259L14.8125 10.1555C13.8125 9.57813 12.5625 10.2998 12.5625 11.4545V23.7954C12.5625 24.9501 13.8125 25.6718 14.8125 25.0944L25.5 18.924Z" fill="#7769E1"/>
<path d="M25.5 16.3259C26.5 16.9033 26.5 18.3466 25.5 18.924L14.8125 25.0944C13.8125 25.6718 12.5625 24.9501 12.5625 23.7954V11.4545C12.5625 10.2998 13.8125 9.57813 14.8125 10.1555L25.5 16.3259Z" fill="white"/>
</svg>
