<svg width="37" height="37" viewBox="0 0 37 37" fill="none" xmlns="http://www.w3.org/2000/svg">
<path d="M22.9011 12.4356C23.3527 11.9841 24.0848 11.9841 24.5363 12.4356C24.9879 12.8872 24.9879 13.6193 24.5363 14.0708L20.1352 18.4719L24.5931 22.9298C25.0446 23.3813 25.0446 24.1134 24.5931 24.565C24.1416 25.0165 23.4095 25.0165 22.9579 24.565L18.5001 20.1071L14.0422 24.5649C13.5907 25.0165 12.8586 25.0165 12.407 24.5649C11.9555 24.1134 11.9555 23.3813 12.407 22.9298L16.8649 18.4719L12.4638 14.0708C12.0122 13.6193 12.0122 12.8872 12.4638 12.4356C12.9153 11.9841 13.6474 11.9841 14.099 12.4356L18.5001 16.8367L22.9011 12.4356Z" fill="white"/>
</svg>
