<svg width="37" height="37" viewBox="0 0 37 37" fill="none" xmlns="http://www.w3.org/2000/svg">
<path fill-rule="evenodd" clip-rule="evenodd" d="M18.5 12.3333V16.1875C18.5 16.3919 18.5813 16.5879 18.7258 16.7325C18.8704 16.8771 19.0664 16.9583 19.2708 16.9583H23.125L23.1265 24.6667H13.875V12.3333H18.5ZM15.4167 21.5833V23.125H21.5833V21.5833H15.4167ZM15.4167 18.5V20.0417H21.5833V18.5H15.4167ZM15.4167 15.4167V16.9583H16.9583V15.4167H15.4167Z" fill="#7769E1"/>
<path d="M22.035 15.4167H20.0417V13.4233L22.035 15.4167Z" fill="#7769E1"/>
<path fill-rule="evenodd" clip-rule="evenodd" d="M18.5 0C28.7173 0 37 8.28273 37 18.5C37 28.7173 28.7173 37 18.5 37C8.28273 37 0 28.7173 0 18.5C0 8.28273 8.28273 0 18.5 0ZM13.875 10.7917C13.0248 10.7917 12.3333 11.4831 12.3333 12.3333V24.6667C12.3333 25.5169 13.0248 26.2083 13.875 26.2083H23.125C23.9752 26.2083 24.6667 25.5169 24.6667 24.6667V16.1875C24.6667 16.1714 24.6585 16.1569 24.6569 16.1401C24.6527 16.0721 24.6389 16.0044 24.617 15.9398C24.6098 15.9153 24.6019 15.8913 24.5921 15.8683C24.5556 15.7847 24.5042 15.7082 24.4408 15.6425L19.8158 11.0175C19.7501 10.9542 19.6736 10.9028 19.59 10.8662C19.567 10.8555 19.5423 10.8498 19.5177 10.8413C19.4532 10.8195 19.3855 10.8057 19.3175 10.8015C19.3015 10.7998 19.2869 10.7917 19.2708 10.7917H13.875Z" fill="#7769E1"/>
<path fill-rule="evenodd" clip-rule="evenodd" d="M13.875 10.7917C13.0248 10.7917 12.3333 11.4831 12.3333 12.3333V24.6667C12.3333 25.5169 13.0248 26.2083 13.875 26.2083H23.125C23.9752 26.2083 24.6667 25.5169 24.6667 24.6667V16.1875C24.6667 16.1714 24.6585 16.1569 24.6569 16.1401C24.6527 16.0721 24.6389 16.0044 24.617 15.9398C24.6098 15.9153 24.6019 15.8913 24.5921 15.8683C24.5556 15.7847 24.5042 15.7082 24.4408 15.6425L19.8158 11.0175C19.7501 10.9542 19.6736 10.9028 19.59 10.8662C19.567 10.8555 19.5423 10.8498 19.5177 10.8413C19.4532 10.8195 19.3855 10.8057 19.3175 10.8015C19.3015 10.7998 19.2869 10.7917 19.2708 10.7917H13.875ZM18.5 16.1875V12.3333H13.875V24.6667H23.1265L23.125 16.9583H19.2708C19.0664 16.9583 18.8704 16.8771 18.7258 16.7325C18.5813 16.5879 18.5 16.3919 18.5 16.1875ZM20.0417 15.4167H22.035L20.0417 13.4233V15.4167Z" fill="white"/>
<path d="M15.4167 15.4167V16.9583H16.9583V15.4167H15.4167Z" fill="white"/>
<path d="M15.4167 18.5V20.0417H21.5833V18.5H15.4167Z" fill="white"/>
<path d="M15.4167 21.5833V23.125H21.5833V21.5833H15.4167Z" fill="white"/>
</svg>
