<svg width="44" height="44" viewBox="0 0 44 44" fill="none" xmlns="http://www.w3.org/2000/svg">
<rect x="0.75" y="0.75" width="42.5" height="42.5" rx="21.25" fill="white"/>
<rect x="0.75" y="0.75" width="42.5" height="42.5" rx="21.25" stroke="#7769E1" stroke-width="1.5"/>
<path d="M16.54 15C16.6 15.89 16.75 16.76 16.99 17.59L15.79 18.79C15.38 17.59 15.12 16.32 15.03 15H16.54ZM26.4 27.02C27.25 27.26 28.12 27.41 29 27.47V28.96C27.68 28.87 26.41 28.61 25.2 28.21L26.4 27.02ZM17.5 13H14C13.45 13 13 13.45 13 14C13 23.39 20.61 31 30 31C30.55 31 31 30.55 31 30V26.51C31 25.96 30.55 25.51 30 25.51C28.76 25.51 27.55 25.31 26.43 24.94C26.33 24.9 26.22 24.89 26.12 24.89C25.86 24.89 25.61 24.99 25.41 25.18L23.21 27.38C20.38 25.93 18.06 23.62 16.62 20.79L18.82 18.59C19.1 18.31 19.18 17.92 19.07 17.57C18.7 16.45 18.5 15.25 18.5 14C18.5 13.45 18.05 13 17.5 13Z" fill="#7769E1"/>
</svg>
