<svg width="36" height="36" viewBox="0 0 36 36" fill="none" xmlns="http://www.w3.org/2000/svg">
<path d="M4 36C2.9 36 1.95867 35.6087 1.176 34.826C0.393333 34.0433 0.00133333 33.1013 0 32V4C0 2.9 0.392 1.95867 1.176 1.176C1.96 0.393333 2.90133 0.00133333 4 0H32C33.1 0 34.042 0.392 34.826 1.176C35.61 1.96 36.0013 2.90133 36 4V32C36 33.1 35.6087 34.042 34.826 34.826C34.0433 35.61 33.1013 36.0013 32 36H4ZM4 32H32V4H4V32ZM6 28H30L22.5 18L16.5 26L12 20L6 28ZM11 14C11.8333 14 12.542 13.7087 13.126 13.126C13.71 12.5433 14.0013 11.8347 14 11C13.9987 10.1653 13.7073 9.45733 13.126 8.876C12.5447 8.29467 11.836 8.00267 11 8C10.164 7.99733 9.456 8.28933 8.876 8.876C8.296 9.46267 8.004 10.1707 8 11C7.996 11.8293 8.288 12.538 8.876 13.126C9.464 13.714 10.172 14.0053 11 14Z" fill="#1C1C1E"/>
</svg>
