<svg width="21" height="21" viewBox="0 0 21 21" fill="#747474" xmlns="http://www.w3.org/2000/svg">
  <path
    d="M12.25 3.5V7.875C12.25 8.855 12.5737 9.765 13.125 10.5H7.875C8.44375 9.7475 8.75 8.8375 8.75 7.875V3.5H12.25ZM14.875 1.75H6.125C5.64375 1.75 5.25 2.14375 5.25 2.625C5.25 3.10625 5.64375 3.5 6.125 3.5H7V7.875C7 9.3275 5.8275 10.5 4.375 10.5V12.25H9.59875V18.375L10.4738 19.25L11.3488 18.375V12.25H16.625V10.5C15.1725 10.5 14 9.3275 14 7.875V3.5H14.875C15.3562 3.5 15.75 3.10625 15.75 2.625C15.75 2.14375 15.3562 1.75 14.875 1.75Z"
  />
</svg>
