<svg width="24" height="24" viewBox="0 0 24 24" fill="none" xmlns="http://www.w3.org/2000/svg">
<path d="M14.0308 1.88867L23.6878 11.5457L15.3428 19.8907L15.0728 20.1607H20.0008V22.1607H6.7478L3.0818 18.4947C2.71035 18.1232 2.41569 17.6823 2.21466 17.197C2.01363 16.7116 1.91016 16.1915 1.91016 15.6662C1.91016 15.1409 2.01363 14.6207 2.21466 14.1354C2.41569 13.6501 2.71035 13.2091 3.0818 12.8377L14.0308 1.88867ZM14.3528 18.0517L20.8598 11.5457L14.0308 4.71667L7.2028 11.5457L14.0308 18.3737L14.3508 18.0507L14.3528 18.0517ZM5.7888 12.9597L4.4958 14.2527C4.12086 14.6277 3.91023 15.1363 3.91023 15.6667C3.91023 16.197 4.12086 16.7056 4.4958 17.0807L7.5758 20.1607H12.2558L12.6218 19.7927L5.7888 12.9597Z" fill="#747474"/>
</svg>
