<svg width="24" height="24" viewBox="0 0 24 24" fill="none" xmlns="http://www.w3.org/2000/svg">
<path d="M19.9141 12.98C19.9553 12.66 19.9861 12.34 19.9861 12C19.9861 11.66 19.9553 11.34 19.9141 11.02L22.0833 9.37C22.2787 9.22 22.3301 8.95 22.2067 8.73L20.1506 5.27C20.0581 5.11 19.8833 5.02 19.6983 5.02C19.6366 5.02 19.5749 5.03 19.5235 5.05L16.9636 6.05C16.429 5.65 15.8533 5.32 15.2262 5.07L14.8356 2.42C14.8047 2.18 14.5888 2 14.3318 2H10.2196C9.96259 2 9.7467 2.18 9.71586 2.42L9.32519 5.07C8.69808 5.32 8.12237 5.66 7.58779 6.05L5.02793 5.05C4.96625 5.03 4.90457 5.02 4.84288 5.02C4.66811 5.02 4.49335 5.11 4.40082 5.27L2.34471 8.73C2.21107 8.95 2.27275 9.22 2.46808 9.37L4.63727 11.02C4.59615 11.34 4.56531 11.67 4.56531 12C4.56531 12.33 4.59615 12.66 4.63727 12.98L2.46808 14.63C2.27275 14.78 2.22135 15.05 2.34471 15.27L4.40082 18.73C4.49335 18.89 4.66811 18.98 4.85316 18.98C4.91485 18.98 4.97653 18.97 5.02793 18.95L7.58779 17.95C8.12237 18.35 8.69808 18.68 9.32519 18.93L9.71586 21.58C9.7467 21.82 9.96259 22 10.2196 22H14.3318C14.5888 22 14.8047 21.82 14.8356 21.58L15.2262 18.93C15.8533 18.68 16.429 18.34 16.9636 17.95L19.5235 18.95C19.5852 18.97 19.6468 18.98 19.7085 18.98C19.8833 18.98 20.0581 18.89 20.1506 18.73L22.2067 15.27C22.3301 15.05 22.2787 14.78 22.0833 14.63L19.9141 12.98ZM17.8786 11.27C17.9197 11.58 17.93 11.79 17.93 12C17.93 12.21 17.9094 12.43 17.8786 12.73L17.7347 13.86L18.6496 14.56L19.7599 15.4L19.0403 16.61L17.7347 16.1L16.6655 15.68L15.7402 16.36C15.2982 16.68 14.8767 16.92 14.4552 17.09L13.3654 17.52L13.201 18.65L12.9953 20H11.5561L11.1963 17.52L10.1065 17.09C9.66445 16.91 9.25323 16.68 8.84201 16.38L7.90648 15.68L6.81675 16.11L5.51112 16.62L4.79148 15.41L5.90178 14.57L6.81675 13.87L6.67282 12.74C6.64198 12.43 6.62142 12.2 6.62142 12C6.62142 11.8 6.64198 11.57 6.67282 11.27L6.81675 10.14L5.90178 9.44L4.79148 8.6L5.51112 7.39L6.81675 7.9L7.88592 8.32L8.81117 7.64C9.25323 7.32 9.67473 7.08 10.0962 6.91L11.186 6.48L11.3505 5.35L11.5561 4H12.9851L13.3449 6.48L14.4346 6.91C14.8767 7.09 15.2879 7.32 15.6991 7.62L16.6347 8.32L17.7244 7.89L19.03 7.38L19.7497 8.59L18.6496 9.44L17.7347 10.14L17.8786 11.27ZM12.2757 8C10.0037 8 8.1635 9.79 8.1635 12C8.1635 14.21 10.0037 16 12.2757 16C14.5477 16 16.3879 14.21 16.3879 12C16.3879 9.79 14.5477 8 12.2757 8ZM12.2757 14C11.1448 14 10.2196 13.1 10.2196 12C10.2196 10.9 11.1448 10 12.2757 10C13.4066 10 14.3318 10.9 14.3318 12C14.3318 13.1 13.4066 14 12.2757 14Z" fill="#7769E1"/>
</svg>
