<svg width="37" height="37" viewBox="0 0 48 48" fill="none" xmlns="http://www.w3.org/2000/svg">
<path fill-rule="evenodd" clip-rule="evenodd" d="M24 48C37.2548 48 48 37.2548 48 24C48 10.7452 37.2548 0 24 0C10.7452 0 0 10.7452 0 24C0 37.2548 10.7452 48 24 48ZM34 25.232C35.3333 24.4622 35.3333 22.5377 34 21.7679L19.75 13.5406C18.4167 12.7708 16.75 13.7331 16.75 15.2727V31.7272C16.75 33.2668 18.4167 34.229 19.75 33.4592L34 25.232Z" fill="#7769E1"/>
<path d="M34 21.7679C35.3333 22.5377 35.3333 24.4622 34 25.232L19.75 33.4592C18.4167 34.229 16.75 33.2668 16.75 31.7272V15.2727C16.75 13.7331 18.4167 12.7708 19.75 13.5406L34 21.7679Z" fill="white"/>
</svg>
